<svg width="32" height="32" viewBox="0 0 32 32" fill="none" xmlns="http://www.w3.org/2000/svg">
<path fill-rule="evenodd" clip-rule="evenodd" d="M10.2565 7.52045L11 7L10.2565 6.47955L10.4142 5.58579L9.52045 5.74352L9 5L8.47955 5.74352L7.58579 5.58579L7.74352 6.47955L7 7L7.74352 7.52045L7.58579 8.41421L8.47955 8.25648L9 9L9.52045 8.25648L10.4142 8.41421L10.2565 7.52045ZM13.4281 11.5204L14.1716 11L13.4281 10.4796L13.5858 9.58579L12.6921 9.74352L12.1716 9L11.6512 9.74352L10.7574 9.58579L10.9152 10.4796L10.1716 11L10.9152 11.5204L10.7574 12.4142L11.6512 12.2565L12.1716 13L12.6921 12.2565L13.5858 12.4142L13.4281 11.5204ZM20.1716 11L19.4281 11.5204L19.5858 12.4142L18.6921 12.2565L18.1716 13L17.6512 12.2565L16.7574 12.4142L16.9152 11.5204L16.1716 11L16.9152 10.4796L16.7574 9.58579L17.6512 9.74352L18.1716 9L18.6921 9.74352L19.5858 9.58579L19.4281 10.4796L20.1716 11ZM16.2565 7.52045L17 7L16.2565 6.47955L16.4142 5.58579L15.5204 5.74352L15 5L14.4796 5.74352L13.5858 5.58579L13.7435 6.47955L13 7L13.7435 7.52045L13.5858 8.41421L14.4796 8.25648L15 9L15.5204 8.25648L16.4142 8.41421L16.2565 7.52045ZM8 11L7.25648 11.5204L7.41421 12.4142L6.52045 12.2565L6 13L5.47955 12.2565L4.58579 12.4142L4.74352 11.5204L4 11L4.74352 10.4796L4.58579 9.58579L5.47955 9.74352L6 9L6.52045 9.74352L7.41421 9.58579L7.25648 10.4796L8 11ZM23.0172 11.2485L23.018 11.248C23.2841 11.0978 23.581 11.0107 23.886 10.9933C24.1913 10.9758 24.4966 11.0287 24.7782 11.1478C25.0599 11.267 25.3105 11.4492 25.5106 11.6805C25.7108 11.9118 25.8552 12.1859 25.9328 12.4818C26.0104 12.7777 26.019 13.0875 25.958 13.3873C25.897 13.687 25.7681 13.9688 25.5811 14.2108C25.3941 14.4529 25.1541 14.6488 24.8795 14.7834C24.6049 14.9181 24.303 14.9879 23.9972 14.9875L23.9972 14.9896H4V16.9896H23.9944V16.9899C24.6066 16.9908 25.2108 16.851 25.7606 16.5815C25.8403 16.5424 25.9185 16.5008 25.9952 16.4567C26.4474 16.1963 26.8451 15.8496 27.1651 15.4352C27.5395 14.9507 27.7976 14.3866 27.9197 13.7865C28.0417 13.1864 28.0245 12.5663 27.8692 11.9739C27.7139 11.3816 27.4248 10.8328 27.0241 10.3698C26.6234 9.90681 26.1218 9.54201 25.5579 9.3035C25.0757 9.09954 24.559 8.99258 24.0373 8.98772C23.9489 8.9869 23.8603 8.98901 23.7718 8.99407C23.1613 9.02897 22.567 9.2034 22.0345 9.50394L22.0325 9.50504L22.0336 9.50706L23.0172 11.2485ZM4 21.0524L17.2058 25.7505L17.2057 25.7509C17.6836 25.9416 18.1977 26.0245 18.7113 25.9937C18.9088 25.9819 19.1043 25.9533 19.2959 25.9087C19.6026 25.8372 19.8991 25.7244 20.1771 25.5727C20.6288 25.3263 21.0206 24.9832 21.3246 24.5679C21.6286 24.1526 21.8372 23.6754 21.9357 23.1702C22.0342 22.6651 22.0201 22.1444 21.8943 21.6453C21.7686 21.1462 21.5344 20.681 21.2083 20.2829C21.0076 20.0378 20.7752 19.8218 20.5178 19.6403C20.357 19.5269 20.1866 19.427 20.008 19.3418C19.5443 19.1206 19.0376 19.0042 18.5239 19.001V18.998L4 18.9979V21.0524ZM18.5103 20.9982L9.8151 20.9981L17.9842 23.9044L17.9835 23.9064C18.1776 23.9781 18.3847 24.0088 18.5916 23.9963C18.8115 23.9832 19.0258 23.9216 19.2193 23.8161C19.4127 23.7105 19.5805 23.5636 19.7106 23.3858C19.8408 23.208 19.9302 23.0036 19.9723 22.7873C20.0145 22.5709 20.0085 22.348 19.9546 22.1343C19.9008 21.9205 19.8005 21.7213 19.6608 21.5508C19.5212 21.3803 19.3457 21.2427 19.1468 21.1478C18.9483 21.0531 18.7312 21.0033 18.5112 21.0019L18.5103 21.0019L18.5103 21.0015L18.5103 20.9982Z" fill="white"/>
</svg>
