<svg width="32" height="32" viewBox="0 0 32 32" fill="none" xmlns="http://www.w3.org/2000/svg">
<path fill-rule="evenodd" clip-rule="evenodd" d="M2 13C2 17.3628 4.44938 21.1323 8 22.9107V20.6003C5.61019 19.0152 4 16.2291 4 13C4 7.96046 7.92179 4 12.6083 4C16.5839 4 20.0091 6.85004 20.9569 10.7911L20.9599 10.7899C21.0937 11.3367 21.1791 11.9037 21.2108 12.4855C21.8339 12.1732 22.5272 12 23.2493 12C25.8053 12 28 14.1696 28 17C28 19.5486 26.2205 21.5615 24 21.937V23.9572C27.375 23.57 30 20.6028 30 17C30 13.134 26.9776 10 23.2493 10C23.1054 10 22.9626 10.0047 22.821 10.0139C21.5661 5.38976 17.469 2 12.6083 2C6.74949 2 2 6.92487 2 13ZM12.9998 22.456C12.9999 22.7921 12.7419 23.0021 12.4997 23.0021C12.2576 23.0021 11.9995 22.7921 11.9994 22.456C11.9992 22.0277 12.173 21.4437 12.4721 20.7938C12.5723 21.0045 12.6633 21.2136 12.7412 21.4168C12.9366 21.9263 12.9997 22.272 12.9998 22.456ZM12.4979 17C12.4979 17 11.9005 17.7302 11.29 18.7572C10.6517 19.8309 9.99898 21.229 9.99935 22.456C9.99979 23.8622 11.1195 25.0021 12.5004 25.0021C13.8812 25.0021 15.0002 23.8622 14.9998 22.456C14.9995 21.3379 14.3157 19.8977 13.6632 18.7778C13.0675 17.7554 12.4979 17 12.4979 17ZM19.5021 23.0021C19.7442 23.0021 20.0022 22.7921 20.0021 22.456C20.0021 22.272 19.9389 21.9263 19.7435 21.4168C19.6656 21.2136 19.5746 21.0045 19.4744 20.7938C19.1753 21.4437 19.0015 22.0277 19.0017 22.456C19.0018 22.7921 19.2599 23.0021 19.5021 23.0021ZM18.2923 18.7572C18.9029 17.7302 19.5002 17 19.5002 17C19.5002 17 20.0699 17.7554 20.6655 18.7778C21.318 19.8977 22.0018 21.3379 22.0021 22.456C22.0025 23.8622 20.8835 25.0021 19.5027 25.0021C18.1218 25.0021 17.0021 23.8622 17.0017 22.456C17.0013 21.229 17.654 19.8309 18.2923 18.7572ZM17.7321 27L16 26L14.2679 27V29L16 30L17.7321 29V27ZM22 26L23.7321 27V29L22 30L20.268 29V27L22 26ZM11.7321 27L10 26L8.26795 27V29L10 30L11.7321 29V27Z" fill="white"/>
</svg>
