<svg width="32" height="32" viewBox="0 0 32 32" fill="none" xmlns="http://www.w3.org/2000/svg">
<path fill-rule="evenodd" clip-rule="evenodd" d="M2 13C2 17.7615 4.91752 21.8163 9 23.3473V21.1706C6.0703 19.7535 4 16.6616 4 13C4 7.96046 7.92179 4 12.6083 4C16.5839 4 20.0091 6.85004 20.9569 10.7911L20.9599 10.7899C21.0937 11.3367 21.1791 11.9037 21.2108 12.4855C21.8339 12.1732 22.5272 12 23.2493 12C25.8053 12 28 14.1696 28 17C28 19.8105 25.8359 21.9695 23.3029 21.9996V22H23V23.9953C23.0827 23.9984 23.1658 24 23.2493 24C26.9776 24 30 20.866 30 17C30 13.134 26.9776 10 23.2493 10C23.1054 10 22.9626 10.0047 22.821 10.0139C21.5661 5.38976 17.469 2 12.6083 2C6.74949 2 2 6.92487 2 13ZM17.168 16.4453L13.168 22.4453L12.1315 24H14H17.0442L13.856 28.4145L15.4773 29.5855L19.8107 23.5855L20.9558 22H19H15.8685L18.8321 17.5547L17.168 16.4453ZM20.3609 26.9244C20.1533 27.4108 20.0009 27.9308 20.001 28.4091C20.0013 29.2877 20.6731 30 21.5015 30C22.33 30 23.0013 29.2877 23.001 28.4091C23.0009 27.9619 22.8327 27.4321 22.609 26.9252C22.1643 25.9175 21.5 25 21.5 25C21.5 25 20.8044 25.8856 20.3609 26.9244ZM9.00105 28.4091C9.0009 27.9308 9.15328 27.4108 9.36092 26.9244C9.80441 25.8856 10.5 25 10.5 25C10.5 25 11.1643 25.9175 11.609 26.9252C11.8327 27.4321 12.0009 27.9619 12.001 28.4091C12.0013 29.2877 11.33 30 10.5015 30C9.67311 30 9.00132 29.2877 9.00105 28.4091Z" fill="white"/>
</svg>
