<svg width="32" height="32" viewBox="0 0 32 32" fill="none" xmlns="http://www.w3.org/2000/svg">
<path fill-rule="evenodd" clip-rule="evenodd" d="M2 13C2 17.3628 4.44938 21.1323 8 22.9107V20.6003C5.61019 19.0152 4 16.2291 4 13C4 7.96046 7.92179 4 12.6083 4C16.5839 4 20.0091 6.85004 20.9569 10.7911L20.9599 10.7899C21.0937 11.3367 21.1791 11.9037 21.2108 12.4855C21.8339 12.1732 22.5272 12 23.2493 12C25.8053 12 28 14.1696 28 17C28 18.7105 27.1984 20.1797 26 21.0745V23.3944C28.3573 22.3025 30 19.8501 30 17C30 15.3458 29.4467 13.8257 28.5214 12.6277C29.4453 11.5051 30 10.0673 30 8.5C30 4.91015 27.0899 2 23.5 2C21.6351 2 19.9536 2.78539 18.7683 4.04346C17.0317 2.75697 14.9052 2 12.6083 2C6.74949 2 2 6.92487 2 13ZM20.2581 5.37907C21.4493 6.66439 22.3421 8.24925 22.821 10.0139C22.9626 10.0047 23.1054 10 23.2493 10C24.67 10 25.9883 10.4551 27.0758 11.2324C27.6556 10.4748 28 9.52763 28 8.5C28 6.01472 25.9853 4 23.5 4C22.2266 4 21.0767 4.52893 20.2581 5.37907ZM19.4251 19.9798C19.2571 20.2708 18.9287 20.3237 18.719 20.2026C18.5093 20.0815 18.3908 19.7705 18.5588 19.4794C18.7729 19.1084 19.2154 18.6896 19.7995 18.2764C19.7808 18.5091 19.7551 18.7357 19.721 18.9505C19.6353 19.4894 19.5171 19.8204 19.4251 19.9798ZM21.7192 15.0041C21.7192 15.0041 20.8367 15.3377 19.7944 15.9217C18.7047 16.5322 17.4402 17.4164 16.8269 18.4792C16.124 19.6971 16.5235 21.2442 17.7192 21.9348C18.915 22.6254 20.4541 22.1979 21.157 20.9801C21.7159 20.0116 21.8441 18.4225 21.8392 17.1264C21.8347 15.9432 21.7192 15.0041 21.7192 15.0041ZM12.8223 20.9975C12.6543 21.2885 12.3258 21.3414 12.1161 21.2203C11.9064 21.0992 11.788 20.7882 11.9559 20.4971C12.17 20.1261 12.6126 19.7073 13.1966 19.2941C13.178 19.5268 13.1522 19.7533 13.1181 19.9682C13.0325 20.5071 12.9142 20.8381 12.8223 20.9975ZM15.1164 16.0218C15.1164 16.0218 14.2339 16.3554 13.1916 16.9394C12.1018 17.5499 10.8374 18.4341 10.224 19.4969C9.52113 20.7147 9.92065 22.2619 11.1164 22.9525C12.3121 23.6431 13.8513 23.2156 14.5541 21.9978C15.1131 21.0293 15.2413 19.4402 15.2363 18.1441C15.2318 16.9609 15.1164 16.0218 15.1164 16.0218ZM20.9732 26.3356C21.1829 26.4567 21.5113 26.4038 21.6793 26.1128C21.7713 25.9534 21.8895 25.6224 21.9752 25.0835C22.0093 24.8687 22.0351 24.6421 22.0537 24.4094C21.4696 24.8226 21.0271 25.2415 20.813 25.6125C20.645 25.9035 20.7635 26.2145 20.9732 26.3356ZM22.0486 22.0547C23.0909 21.4707 23.9734 21.1371 23.9734 21.1371C23.9734 21.1371 24.0889 22.0762 24.0934 23.2594C24.0983 24.5556 23.9701 26.1446 23.4112 27.1131C22.7083 28.331 21.1692 28.7584 19.9734 28.0678C18.7777 27.3772 18.3782 25.8301 19.0811 24.6122C19.6944 23.5494 20.9589 22.6653 22.0486 22.0547ZM14.961 27.7147C14.793 28.0057 14.4645 28.0586 14.2549 27.9375C14.0452 27.8164 13.9267 27.5054 14.0947 27.2144C14.3088 26.8433 14.7513 26.4245 15.3354 26.0113C15.3167 26.244 15.291 26.4706 15.2568 26.6854C15.1712 27.2243 15.053 27.5553 14.961 27.7147ZM17.2551 22.739C17.2551 22.739 16.3726 23.0726 15.3303 23.6566C14.2406 24.2671 12.9761 25.1513 12.3628 26.2141C11.6599 27.432 12.0594 28.9791 13.2551 29.6697C14.4509 30.3603 15.99 29.9329 16.6929 28.715C17.2518 27.7465 17.38 26.1574 17.3751 24.8613C17.3706 23.6781 17.2551 22.739 17.2551 22.739Z" fill="white"/>
</svg>
