<svg width="32" height="32" viewBox="0 0 32 32" fill="none" xmlns="http://www.w3.org/2000/svg">
<path fill-rule="evenodd" clip-rule="evenodd" d="M9 23.3473C4.91752 21.8163 2 17.7615 2 13C2 6.92487 6.74949 2 12.6083 2C17.469 2 21.5661 5.38976 22.821 10.0139C22.9626 10.0047 23.1054 10 23.2493 10C26.9776 10 30 13.134 30 17C30 20.6028 27.375 23.57 24 23.9572V21.937C26.2205 21.5615 28 19.5486 28 17C28 14.1696 25.8053 12 23.2493 12C22.5272 12 21.8339 12.1732 21.2108 12.4855C21.1791 11.9037 21.0937 11.3367 20.9599 10.7899L20.9569 10.7911C20.0091 6.85004 16.5839 4 12.6083 4C7.92179 4 4 7.96046 4 13C4 16.6616 6.0703 19.7535 9 21.1706V23.3473ZM14 18L13.2565 18.5204L13.4142 19.4142L12.5204 19.2565L12 20L11.4796 19.2565L10.5858 19.4142L10.7435 18.5204L10 18L10.7435 17.4796L10.5858 16.5858L11.4796 16.7435L12 16L12.5204 16.7435L13.4142 16.5858L13.2565 17.4796L14 18ZM17.2565 21.5204L18 21L17.2565 20.4796L17.4142 19.5858L16.5204 19.7435L16 19L15.4796 19.7435L14.5858 19.5858L14.7435 20.4796L14 21L14.7435 21.5204L14.5858 22.4142L15.4796 22.2565L16 23L16.5204 22.2565L17.4142 22.4142L17.2565 21.5204ZM18 15L17.2565 15.5204L17.4142 16.4142L16.5204 16.2565L16 17L15.4796 16.2565L14.5858 16.4142L14.7435 15.5204L14 15L14.7435 14.4796L14.5858 13.5858L15.4796 13.7435L16 13L16.5204 13.7435L17.4142 13.5858L17.2565 14.4796L18 15ZM21.2565 18.5204L22 18L21.2565 17.4796L21.4142 16.5858L20.5204 16.7435L20 16L19.4796 16.7435L18.5858 16.5858L18.7435 17.4796L18 18L18.7435 18.5204L18.5858 19.4142L19.4796 19.2565L20 20L20.5204 19.2565L21.4142 19.4142L21.2565 18.5204ZM12.5021 28.0021C12.7442 28.0021 13.0022 27.7921 13.0021 27.456C13.0021 27.272 12.9389 26.9263 12.7435 26.4168C12.6656 26.2136 12.5746 26.0045 12.4744 25.7938C12.1753 26.4437 12.0015 27.0277 12.0017 27.456C12.0018 27.7921 12.2599 28.0021 12.5021 28.0021ZM11.2923 23.7572C11.9029 22.7302 12.5002 22 12.5002 22C12.5002 22 13.0699 22.7554 13.6655 23.7778C14.318 24.8977 15.0018 26.3379 15.0021 27.456C15.0025 28.8622 13.8835 30.0021 12.5027 30.0021C11.1218 30.0021 10.0021 28.8622 10.0017 27.456C10.0013 26.229 10.654 24.8309 11.2923 23.7572ZM20.0021 27.456C20.0022 27.7921 19.7442 28.0021 19.5021 28.0021C19.2599 28.0021 19.0018 27.7921 19.0017 27.456C19.0015 27.0277 19.1753 26.4437 19.4744 25.7938C19.5746 26.0045 19.6656 26.2136 19.7435 26.4168C19.9389 26.9263 20.0021 27.272 20.0021 27.456ZM19.5002 22C19.5002 22 18.9029 22.7302 18.2923 23.7572C17.654 24.8309 17.0013 26.229 17.0017 27.456C17.0021 28.8622 18.1218 30.0021 19.5027 30.0021C20.8835 30.0021 22.0025 28.8622 22.0021 27.456C22.0018 26.3379 21.318 24.8977 20.6655 23.7778C20.0699 22.7554 19.5002 22 19.5002 22Z" fill="white"/>
</svg>
