<svg width="32" height="32" viewBox="0 0 32 32" fill="none" xmlns="http://www.w3.org/2000/svg">
<path fill-rule="evenodd" clip-rule="evenodd" d="M17.6361 2V4.43513H19.6361V2H17.6361ZM30 12.3639H27.5649L27.5649 14.3639H30V12.3639ZM25.8687 8.03351L27.9775 6.81594L28.9775 8.54799L26.8687 9.76556L25.8687 8.03351ZM23.4521 3.02245L22.2345 5.13133L23.9666 6.13133L25.1841 4.02245L23.4521 3.02245ZM13.3056 6.13133L12.0881 4.02245L13.8201 3.02245L15.0377 5.13133L13.3056 6.13133ZM30 22.75C30 19.7235 28.2095 17.1301 25.6657 16.0442C25.981 15.2109 26.1536 14.3075 26.1536 13.3638C26.1536 9.17971 22.7617 5.78784 18.5776 5.78784C16.3591 5.78784 14.3633 6.74142 12.9778 8.26106C12.8194 8.25371 12.6601 8.25 12.5 8.25C6.70101 8.25 2 13.1189 2 19.125C2 25.1311 6.70101 30 12.5 30C12.5658 30 12.6315 29.9994 12.6971 29.9981V30H22.9949L23 30L23.0051 30H23.2414V29.9958C26.9956 29.864 30 26.6704 30 22.75ZM24.1536 13.3638C24.1536 14.1349 23.9971 14.8693 23.7141 15.5373C23.4793 15.5126 23.2411 15.5 23 15.5C22.8017 15.5 22.6053 15.5085 22.4111 15.5253C21.3046 12.257 18.7337 9.702 15.5134 8.7045C16.3927 8.12506 17.4458 7.78784 18.5776 7.78784C21.6571 7.78784 24.1536 10.2843 24.1536 13.3638ZM12.5 28L12.5411 27.9999V28L12.6971 28L22.9973 28H23L23.0043 28C25.6983 27.9976 28 25.7147 28 22.75C28 19.7838 25.6958 17.5 23 17.5C22.2698 17.5 21.5684 17.6675 20.9337 17.9708C20.8474 17.2839 20.685 16.6218 20.4555 15.9939L20.4577 15.993C19.2369 12.6095 16.0973 10.25 12.5 10.25C7.87115 10.25 4 14.1567 4 19.125C4 24.0933 7.87115 28 12.5 28Z" fill="white"/>
</svg>
