<svg width="32" height="32" viewBox="0 0 32 32" fill="none" xmlns="http://www.w3.org/2000/svg">
<path fill-rule="evenodd" clip-rule="evenodd" d="M25.8649 15.9736C26.9653 14.9127 27.7125 13.5116 27.9326 11.9582C27.8581 11.9913 27.7831 12.023 27.7075 12.0533C27.6456 12.0781 27.5833 12.102 27.5207 12.1248C26.7062 12.4222 25.8309 12.5557 24.948 12.5085L24.9296 12.5074C23.3617 12.4191 21.8823 11.7669 20.7762 10.6761L20.7684 10.6684C19.7663 9.67681 19.1368 8.38845 18.9733 7.01255C18.9555 6.86264 18.9432 6.71169 18.9366 6.55997C18.9003 5.73109 19.0342 4.91114 19.3224 4.1457C17.0224 4.60829 15.1435 6.13264 14.2165 8.14626C18.035 8.80406 21.1596 11.62 22.4111 15.3588C22.6052 15.3419 22.8017 15.3333 23 15.3333C24.0207 15.3333 24.9905 15.5621 25.8649 15.9736ZM12.1119 8.00738C13.3734 4.50795 16.7848 2 20.7954 2C21.7718 2 22.7127 2.14865 23.5957 2.42407C22.783 2.75927 22.0969 3.32884 21.6266 4.0458L21.6108 4.04407C21.148 4.76749 20.9164 5.61494 20.9541 6.47651C20.9584 6.57401 20.9661 6.67105 20.9771 6.76748C21.0849 7.70983 21.5128 8.59303 22.1967 9.27318L22.2045 9.2809C22.963 10.0315 23.9801 10.4793 25.0575 10.5369L25.0759 10.5379C25.7249 10.5699 26.3673 10.459 26.958 10.2194C27.3423 10.0636 27.7046 9.85342 28.0326 9.59276L28.034 9.5944C28.6399 9.11088 29.1091 8.47078 29.3765 7.73752C29.7791 8.74903 29.9999 9.8493 29.9999 11C29.9999 13.3551 29.0748 15.4989 27.5604 17.103C29.054 18.4478 30 20.4415 30 22.6666C30 26.7167 26.866 29.9999 23 29.9999L23 30H12.5283V30L12.5 30C6.70101 30 2 25.0751 2 19C2 13.061 6.49271 8.22127 12.1119 8.00738ZM12.5534 27.9998L12.5 28C7.89224 28 4 24.0593 4 19C4 13.9407 7.89224 10 12.5 10C16.0862 10 19.2389 12.3871 20.4607 15.8307L20.4583 15.8316C20.6824 16.4624 20.8416 17.1268 20.9271 17.8158C21.5652 17.5047 22.2695 17.3333 23 17.3333C25.6747 17.3333 28 19.6324 28 22.6666C28 25.7008 25.6747 27.9999 23 27.9999L23 28H12.5534V27.9998Z" fill="white"/>
</svg>
