<svg width="32" height="32" viewBox="0 0 32 32" fill="none" xmlns="http://www.w3.org/2000/svg">
<path fill-rule="evenodd" clip-rule="evenodd" d="M23.018 11.248L23.0172 11.2485L22.0336 9.50706L22.0325 9.50504L22.0345 9.50394C22.567 9.2034 23.1613 9.02897 23.7718 8.99407C23.8603 8.98901 23.9489 8.9869 24.0373 8.98772C24.559 8.99258 25.0757 9.09954 25.5579 9.3035C26.1218 9.54201 26.6234 9.90681 27.0241 10.3698C27.4248 10.8328 27.7139 11.3816 27.8692 11.9739C28.0245 12.5663 28.0417 13.1864 27.9197 13.7865C27.7976 14.3866 27.5395 14.9507 27.1651 15.4352C26.8451 15.8496 26.4474 16.1963 25.9952 16.4567C25.9185 16.5008 25.8403 16.5424 25.7606 16.5815C25.2108 16.851 24.6066 16.9908 23.9944 16.9899V16.9897H4V14.9897H23.9972L23.9972 14.9875C24.303 14.9879 24.6049 14.9181 24.8795 14.7834C25.1541 14.6488 25.3941 14.4529 25.5811 14.2108C25.7681 13.9688 25.897 13.687 25.958 13.3873C26.019 13.0875 26.0104 12.7777 25.9328 12.4818C25.8552 12.1859 25.7108 11.9118 25.5106 11.6805C25.3105 11.4492 25.0599 11.267 24.7782 11.1478C24.4966 11.0287 24.1913 10.9758 23.886 10.9933C23.581 11.0107 23.2841 11.0978 23.018 11.248ZM17.2058 25.7506L4 21.0525V18.998L18.5239 18.9981V19.0011C19.0376 19.0043 19.5443 19.1207 20.008 19.3419C20.1866 19.4271 20.357 19.527 20.5178 19.6404C20.7752 19.8219 21.0076 20.0379 21.2083 20.283C21.5344 20.6811 21.7686 21.1463 21.8943 21.6454C22.0201 22.1445 22.0342 22.6652 21.9357 23.1703C21.8372 23.6755 21.6286 24.1527 21.3246 24.568C21.0206 24.9833 20.6288 25.3264 20.1771 25.5728C19.8991 25.7245 19.6026 25.8373 19.2959 25.9088C19.1043 25.9534 18.9088 25.982 18.7113 25.9938C18.1977 26.0246 17.6836 25.9417 17.2057 25.751L17.2058 25.7506ZM9.8151 20.9982L18.5103 20.9983L18.5103 21.0016L18.5103 21.002L18.5112 21.002C18.7312 21.0034 18.9483 21.0532 19.1468 21.1479C19.3457 21.2428 19.5212 21.3804 19.6608 21.5509C19.8005 21.7214 19.9008 21.9206 19.9546 22.1344C20.0085 22.3481 20.0145 22.571 19.9723 22.7874C19.9302 23.0037 19.8408 23.2081 19.7106 23.3859C19.5805 23.5637 19.4127 23.7106 19.2193 23.8162C19.0258 23.9217 18.8115 23.9833 18.5916 23.9964C18.3847 24.0089 18.1776 23.9782 17.9835 23.9065L17.9842 23.9045L9.8151 20.9982Z" fill="url(#paint0_linear_9_4207)"/>
<path fill-rule="evenodd" clip-rule="evenodd" d="M11 7L10.2565 7.52045L10.4142 8.41421L9.52045 8.25648L9 9L8.47955 8.25648L7.58579 8.41421L7.74352 7.52045L7 7L7.74352 6.47955L7.58579 5.58579L8.47955 5.74352L9 5L9.52045 5.74352L10.4142 5.58579L10.2565 6.47955L11 7ZM14.1716 11L13.4281 11.5204L13.5858 12.4142L12.6921 12.2565L12.1716 13L11.6512 12.2565L10.7574 12.4142L10.9152 11.5204L10.1716 11L10.9152 10.4796L10.7574 9.58579L11.6512 9.74352L12.1716 9L12.6921 9.74352L13.5858 9.58579L13.4281 10.4796L14.1716 11ZM19.4281 11.5204L20.1716 11L19.4281 10.4796L19.5858 9.58579L18.6921 9.74352L18.1716 9L17.6512 9.74352L16.7574 9.58579L16.9152 10.4796L16.1716 11L16.9152 11.5204L16.7574 12.4142L17.6512 12.2565L18.1716 13L18.6921 12.2565L19.5858 12.4142L19.4281 11.5204ZM17 7L16.2565 7.52045L16.4142 8.41421L15.5204 8.25648L15 9L14.4796 8.25648L13.5858 8.41421L13.7435 7.52045L13 7L13.7435 6.47955L13.5858 5.58579L14.4796 5.74352L15 5L15.5204 5.74352L16.4142 5.58579L16.2565 6.47955L17 7ZM7.25648 11.5204L8 11L7.25648 10.4796L7.41421 9.58579L6.52045 9.74352L6 9L5.47955 9.74352L4.58579 9.58579L4.74352 10.4796L4 11L4.74352 11.5204L4.58579 12.4142L5.47955 12.2565L6 13L6.52045 12.2565L7.41421 12.4142L7.25648 11.5204Z" fill="url(#paint1_linear_9_4207)"/>
<path fill-rule="evenodd" clip-rule="evenodd" d="M23.018 11.248L23.0172 11.2485L22.0336 9.50706L22.0325 9.50504L22.0345 9.50394C22.567 9.2034 23.1613 9.02897 23.7718 8.99407C23.8603 8.98901 23.9489 8.9869 24.0373 8.98772C24.559 8.99258 25.0757 9.09954 25.5579 9.3035C26.1218 9.54201 26.6234 9.90681 27.0241 10.3698C27.4248 10.8328 27.7139 11.3816 27.8692 11.9739C28.0245 12.5663 28.0417 13.1864 27.9197 13.7865C27.7976 14.3866 27.5395 14.9507 27.1651 15.4352C26.8451 15.8496 26.4474 16.1963 25.9952 16.4567C25.9185 16.5008 25.8403 16.5424 25.7606 16.5815C25.2108 16.851 24.6066 16.9908 23.9944 16.9899V16.9897H4V14.9897H23.9972L23.9972 14.9875C24.303 14.9879 24.6049 14.9181 24.8795 14.7834C25.1541 14.6488 25.3941 14.4529 25.5811 14.2108C25.7681 13.9688 25.897 13.687 25.958 13.3873C26.019 13.0875 26.0104 12.7777 25.9328 12.4818C25.8552 12.1859 25.7108 11.9118 25.5106 11.6805C25.3105 11.4492 25.0599 11.267 24.7782 11.1478C24.4966 11.0287 24.1913 10.9758 23.886 10.9933C23.581 11.0107 23.2841 11.0978 23.018 11.248ZM17.2058 25.7506L4 21.0525V18.998L18.5239 18.9981V19.0011C19.0376 19.0043 19.5443 19.1207 20.008 19.3419C20.1866 19.4271 20.357 19.527 20.5178 19.6404C20.7752 19.8219 21.0076 20.0379 21.2083 20.283C21.5344 20.6811 21.7686 21.1463 21.8943 21.6454C22.0201 22.1445 22.0342 22.6652 21.9357 23.1703C21.8372 23.6755 21.6286 24.1527 21.3246 24.568C21.0206 24.9833 20.6288 25.3264 20.1771 25.5728C19.8991 25.7245 19.6026 25.8373 19.2959 25.9088C19.1043 25.9534 18.9088 25.982 18.7113 25.9938C18.1977 26.0246 17.6836 25.9417 17.2057 25.751L17.2058 25.7506ZM9.8151 20.9982L18.5103 20.9983L18.5103 21.0016L18.5103 21.002L18.5112 21.002C18.7312 21.0034 18.9483 21.0532 19.1468 21.1479C19.3457 21.2428 19.5212 21.3804 19.6608 21.5509C19.8005 21.7214 19.9008 21.9206 19.9546 22.1344C20.0085 22.3481 20.0145 22.571 19.9723 22.7874C19.9302 23.0037 19.8408 23.2081 19.7106 23.3859C19.5805 23.5637 19.4127 23.7106 19.2193 23.8162C19.0258 23.9217 18.8115 23.9833 18.5916 23.9964C18.3847 24.0089 18.1776 23.9782 17.9835 23.9065L17.9842 23.9045L9.8151 20.9982Z" fill="url(#paint2_linear_9_4207)"/>
<path fill-rule="evenodd" clip-rule="evenodd" d="M11 7L10.2565 7.52045L10.4142 8.41421L9.52045 8.25648L9 9L8.47955 8.25648L7.58579 8.41421L7.74352 7.52045L7 7L7.74352 6.47955L7.58579 5.58579L8.47955 5.74352L9 5L9.52045 5.74352L10.4142 5.58579L10.2565 6.47955L11 7ZM14.1716 11L13.4281 11.5204L13.5858 12.4142L12.6921 12.2565L12.1716 13L11.6512 12.2565L10.7574 12.4142L10.9152 11.5204L10.1716 11L10.9152 10.4796L10.7574 9.58579L11.6512 9.74352L12.1716 9L12.6921 9.74352L13.5858 9.58579L13.4281 10.4796L14.1716 11ZM19.4281 11.5204L20.1716 11L19.4281 10.4796L19.5858 9.58579L18.6921 9.74352L18.1716 9L17.6512 9.74352L16.7574 9.58579L16.9152 10.4796L16.1716 11L16.9152 11.5204L16.7574 12.4142L17.6512 12.2565L18.1716 13L18.6921 12.2565L19.5858 12.4142L19.4281 11.5204ZM17 7L16.2565 7.52045L16.4142 8.41421L15.5204 8.25648L15 9L14.4796 8.25648L13.5858 8.41421L13.7435 7.52045L13 7L13.7435 6.47955L13.5858 5.58579L14.4796 5.74352L15 5L15.5204 5.74352L16.4142 5.58579L16.2565 6.47955L17 7ZM7.25648 11.5204L8 11L7.25648 10.4796L7.41421 9.58579L6.52045 9.74352L6 9L5.47955 9.74352L4.58579 9.58579L4.74352 10.4796L4 11L4.74352 11.5204L4.58579 12.4142L5.47955 12.2565L6 13L6.52045 12.2565L7.41421 12.4142L7.25648 11.5204Z" fill="url(#paint3_linear_9_4207)"/>
<defs>
<linearGradient id="paint0_linear_9_4207" x1="16" y1="8.98755" x2="16" y2="26.0001" gradientUnits="userSpaceOnUse">
<stop stop-color="#CED3EA"/>
<stop offset="1" stop-color="#7E83A9"/>
</linearGradient>
<linearGradient id="paint1_linear_9_4207" x1="12.0858" y1="5" x2="12.0858" y2="13" gradientUnits="userSpaceOnUse">
<stop stop-color="#B2D4F7"/>
<stop offset="1" stop-color="#D9E2F3"/>
</linearGradient>
<linearGradient id="paint2_linear_9_4207" x1="16" y1="8.98755" x2="16" y2="26.0001" gradientUnits="userSpaceOnUse">
<stop stop-color="#CED3EA"/>
<stop offset="1" stop-color="#7E83A9"/>
</linearGradient>
<linearGradient id="paint3_linear_9_4207" x1="12.0858" y1="5" x2="12.0858" y2="13" gradientUnits="userSpaceOnUse">
<stop stop-color="#B2D4F7"/>
<stop offset="1" stop-color="#D9E2F3"/>
</linearGradient>
</defs>
</svg>
