<svg width="32" height="32" viewBox="0 0 32 32" fill="none" xmlns="http://www.w3.org/2000/svg">
<path fill-rule="evenodd" clip-rule="evenodd" d="M29.8175 8.76719C30.0309 7.9702 30.0536 7.16703 29.9136 6.4062C29.3725 7.64442 28.0001 8.34539 26.6469 8.00239C26.2042 7.89018 25.8129 7.67873 25.4906 7.39783C25.3503 7.29434 25.2225 7.17396 25.1105 7.03907C24.9136 6.80214 24.7696 6.52588 24.688 6.22877L24.6797 6.19761C24.5048 5.69555 24.4701 5.13844 24.6103 4.58462C24.894 3.46383 25.814 2.6724 26.8869 2.49833C26.6119 2.37127 26.3223 2.26584 26.0197 2.18471C23.3256 1.46232 20.5608 2.92363 19.6021 5.48441C20.2284 6.0358 20.7853 6.66436 21.2578 7.35523C21.2598 7.0737 21.2973 6.78779 21.3735 6.50308C21.5871 5.70543 22.0688 5.05176 22.6953 4.61281C22.6631 4.73883 22.6367 4.86651 22.6163 4.99547C22.5224 5.5877 22.556 6.19316 22.7148 6.77136C22.8736 7.34956 23.1539 7.88717 23.537 8.34824C23.9201 8.80932 24.3971 9.18323 24.9362 9.44498C25.4753 9.70672 26.0641 9.85027 26.6631 9.86602C26.7441 9.86815 26.8251 9.86793 26.9058 9.86539C26.0846 10.6164 24.91 10.9448 23.7569 10.6356C23.3056 10.5146 22.9002 10.3074 22.5539 10.0364C22.6515 10.3519 22.734 10.6742 22.8004 11.0023C22.8666 11.0001 22.9331 10.999 22.9998 10.999C24.4182 10.999 25.7217 11.4915 26.7487 12.315C28.2073 11.6871 29.3747 10.4211 29.8175 8.76719Z" fill="url(#paint0_linear_9_3466)"/>
<path fill-rule="evenodd" clip-rule="evenodd" d="M30 17C30 20.2381 27.8796 22.9627 25 23.7623V21.6467C26.7314 20.9218 28 19.1518 28 17C28 14.1696 25.8053 12 23.2493 12C22.5272 12 21.8339 12.1732 21.2108 12.4855C21.1791 11.9037 21.0937 11.3367 20.9599 10.7899L20.9569 10.7911C20.0091 6.85004 16.5839 4 12.6083 4C7.92179 4 4 7.96046 4 13C4 16.2291 5.61019 19.0152 8 20.6003V22.9107C4.44938 21.1323 2 17.3628 2 13C2 6.92487 6.74949 2 12.6083 2C17.469 2 21.5661 5.38976 22.821 10.0139C22.9626 10.0047 23.1054 10 23.2493 10C26.9776 10 30 13.134 30 17ZM10.001 22.4091C10.0009 21.9308 10.1533 21.4108 10.3609 20.9244C10.8044 19.8856 11.5 19 11.5 19C11.5 19 12.1643 19.9175 12.609 20.9252C12.8327 21.4321 13.0009 21.9619 13.001 22.4091C13.0013 23.2877 12.33 24 11.5015 24C10.6731 24 10.0013 23.2877 10.001 22.4091ZM15.3609 20.9244C15.1533 21.4108 15.0009 21.9308 15.001 22.4091C15.0013 23.2877 15.6731 24 16.5015 24C17.33 24 18.0013 23.2877 18.001 22.4091C18.0009 21.9619 17.8327 21.4321 17.609 20.9252C17.1643 19.9175 16.5 19 16.5 19C16.5 19 15.8044 19.8856 15.3609 20.9244ZM12.8756 27.4091C12.8754 26.9308 13.0278 26.4108 13.2354 25.9244C13.6789 24.8856 14.3745 24 14.3745 24C14.3745 24 15.0388 24.9175 15.4835 25.9252C15.7072 26.4321 15.8754 26.9619 15.8756 27.4091C15.8758 28.2877 15.2045 29 14.376 29C13.5476 29 12.8758 28.2877 12.8756 27.4091ZM20.3609 20.9244C20.1533 21.4108 20.0009 21.9308 20.001 22.4091C20.0013 23.2877 20.6731 24 21.5015 24C22.33 24 23.0013 23.2877 23.001 22.4091C23.0009 21.9619 22.8327 21.4321 22.609 20.9252C22.1643 19.9175 21.5 19 21.5 19C21.5 19 20.8044 19.8856 20.3609 20.9244ZM17.8905 27.4091C17.8903 26.9308 18.0427 26.4108 18.2503 25.9244C18.6938 24.8856 19.3894 24 19.3894 24C19.3894 24 20.0537 24.9175 20.4984 25.9252C20.7221 26.4321 20.8903 26.9619 20.8904 27.4091C20.8907 28.2877 20.2194 29 19.3909 29C18.5625 29 17.8907 28.2877 17.8905 27.4091Z" fill="url(#paint1_linear_9_3466)"/>
<defs>
<linearGradient id="paint0_linear_9_3466" x1="24.802" y1="2.00024" x2="24.802" y2="12.315" gradientUnits="userSpaceOnUse">
<stop stop-color="#F5BD52"/>
<stop offset="1" stop-color="#F5DA79"/>
</linearGradient>
<linearGradient id="paint1_linear_9_3466" x1="16" y1="2" x2="16" y2="29" gradientUnits="userSpaceOnUse">
<stop stop-color="#95B6F6"/>
<stop offset="1" stop-color="#5193DE"/>
</linearGradient>
</defs>
</svg>
