<svg width="32" height="32" viewBox="0 0 32 32" fill="none" xmlns="http://www.w3.org/2000/svg">
<path fill-rule="evenodd" clip-rule="evenodd" d="M29.8176 8.76719C30.0311 7.9702 30.0538 7.16703 29.9137 6.4062C29.3727 7.64442 28.0002 8.34539 26.647 8.00239C26.2044 7.89018 25.813 7.67873 25.4908 7.39783C25.3504 7.29434 25.2227 7.17396 25.1106 7.03907C24.9137 6.80214 24.7697 6.52588 24.6881 6.22877L24.6798 6.19761C24.505 5.69555 24.4703 5.13844 24.6104 4.58462C24.8941 3.46383 25.8142 2.6724 26.8871 2.49833C26.612 2.37127 26.3224 2.26584 26.0199 2.18471C23.3257 1.46232 20.5609 2.92363 19.6022 5.48441C20.2285 6.0358 20.7854 6.66436 21.2579 7.35523C21.2599 7.0737 21.2974 6.78779 21.3737 6.50308C21.5872 5.70543 22.0689 5.05176 22.6954 4.61281C22.6632 4.73883 22.6368 4.86651 22.6164 4.99547C22.5225 5.5877 22.5561 6.19316 22.7149 6.77136C22.8737 7.34956 23.154 7.88717 23.5371 8.34824C23.9202 8.80932 24.3972 9.18323 24.9363 9.44498C25.4755 9.70672 26.0642 9.85027 26.6632 9.86602C26.7442 9.86815 26.8252 9.86793 26.906 9.86539C26.0848 10.6164 24.9101 10.9448 23.757 10.6356C23.3057 10.5146 22.9004 10.3074 22.554 10.0364C22.6516 10.3519 22.7341 10.6742 22.8006 11.0023C22.8668 11.0001 22.9332 10.999 23 10.999C24.4183 10.999 25.7218 11.4915 26.7488 12.315C28.2074 11.6871 29.3748 10.4211 29.8176 8.76719Z" fill="url(#paint0_linear_9_2729)"/>
<path fill-rule="evenodd" clip-rule="evenodd" d="M2 13C2 17.3628 4.44938 21.1323 8 22.9107V20.6003C5.61019 19.0152 4 16.2291 4 13C4 7.96046 7.92179 4 12.6083 4C16.5839 4 20.0091 6.85004 20.9569 10.7911L20.9599 10.7899C21.0937 11.3367 21.1791 11.9037 21.2108 12.4855C21.8339 12.1732 22.5272 12 23.2493 12C25.8053 12 28 14.1696 28 17C28 18.7105 27.1984 20.1797 26 21.0745V23.3944C28.3573 22.3025 30 19.8501 30 17C30 13.134 26.9776 10 23.2493 10C23.1054 10 22.9626 10.0047 22.821 10.0139C21.5661 5.38976 17.469 2 12.6083 2C6.74949 2 2 6.92487 2 13ZM18.7189 20.2026C18.9286 20.3237 19.2571 20.2708 19.4251 19.9798C19.5171 19.8204 19.6353 19.4894 19.7209 18.9505C19.7551 18.7356 19.7808 18.509 19.7994 18.2764C19.2154 18.6896 18.7729 19.1084 18.5587 19.4794C18.3908 19.7704 18.5092 20.0815 18.7189 20.2026ZM19.7944 15.9217C20.8367 15.3377 21.7192 15.0041 21.7192 15.0041C21.7192 15.0041 21.8346 15.9432 21.8392 17.1264C21.8441 18.4225 21.7159 20.0116 21.157 20.98C20.4541 22.1979 18.9149 22.6254 17.7192 21.9348C16.5235 21.2442 16.1239 19.697 16.8268 18.4792C17.4402 17.4164 18.7046 16.5322 19.7944 15.9217ZM12.1161 21.2204C12.3258 21.3415 12.6543 21.2886 12.8222 20.9976C12.9142 20.8382 13.0324 20.5072 13.1181 19.9683C13.1522 19.7535 13.178 19.5269 13.1966 19.2942C12.6125 19.7074 12.17 20.1262 11.9559 20.4972C11.7879 20.7883 11.9064 21.0993 12.1161 21.2204ZM13.1915 16.9395C14.2339 16.3555 15.1164 16.0219 15.1164 16.0219C15.1164 16.0219 15.2318 16.961 15.2363 18.1442C15.2412 19.4403 15.1131 21.0294 14.5541 21.9979C13.8512 23.2157 12.3121 23.6432 11.1164 22.9526C9.92063 22.262 9.5211 20.7149 10.224 19.497C10.8374 18.4342 12.1018 17.55 13.1915 16.9395ZM21.6793 26.1128C21.5113 26.4039 21.1828 26.4567 20.9731 26.3356C20.7635 26.2145 20.645 25.9035 20.8129 25.6125C21.0271 25.2415 21.4696 24.8227 22.0537 24.4094C22.035 24.6421 22.0093 24.8687 21.9751 25.0835C21.8895 25.6224 21.7713 25.9535 21.6793 26.1128ZM23.9734 21.1372C23.9734 21.1372 23.0909 21.4708 22.0486 22.0547C20.9589 22.6653 19.6944 23.5495 19.0811 24.6122C18.3782 25.8301 18.7777 27.3772 19.9734 28.0678C21.1691 28.7584 22.7083 28.331 23.4112 27.1131C23.9701 26.1447 24.0983 24.5556 24.0934 23.2594C24.0889 22.0762 23.9734 21.1372 23.9734 21.1372ZM14.2548 27.9374C14.4645 28.0585 14.793 28.0057 14.961 27.7146C15.0529 27.5553 15.1712 27.2243 15.2568 26.6854C15.291 26.4705 15.3167 26.2439 15.3353 26.0112C14.7513 26.4245 14.3088 26.8433 14.0946 27.2143C13.9267 27.5053 14.0451 27.8163 14.2548 27.9374ZM15.3303 23.6565C16.3726 23.0726 17.2551 22.739 17.2551 22.739C17.2551 22.739 17.3705 23.678 17.375 24.8612C17.38 26.1574 17.2518 27.7465 16.6929 28.7149C15.99 29.9328 14.4508 30.3602 13.2551 29.6696C12.0594 28.979 11.6598 27.4319 12.3627 26.214C12.9761 25.1513 14.2405 24.2671 15.3303 23.6565Z" fill="url(#paint1_linear_9_2729)"/>
<defs>
<linearGradient id="paint0_linear_9_2729" x1="24.8021" y1="2.00024" x2="24.8021" y2="12.315" gradientUnits="userSpaceOnUse">
<stop stop-color="#F5BD52"/>
<stop offset="1" stop-color="#F5DA79"/>
</linearGradient>
<linearGradient id="paint1_linear_9_2729" x1="16" y1="2" x2="16" y2="29.9999" gradientUnits="userSpaceOnUse">
<stop stop-color="#95B6F6"/>
<stop offset="1" stop-color="#5193DE"/>
</linearGradient>
</defs>
</svg>
