<svg width="32" height="32" viewBox="0 0 32 32" fill="none" xmlns="http://www.w3.org/2000/svg">
<path fill-rule="evenodd" clip-rule="evenodd" d="M27.3145 17.3537C26.7911 16.892 26.1697 16.5347 25.4845 16.3151C26.7923 15.2228 27.688 13.6846 27.9325 11.9582C27.8581 11.9913 27.7831 12.023 27.7075 12.0533C27.6456 12.0781 27.5833 12.102 27.5207 12.1248C26.7061 12.4222 25.8309 12.5557 24.948 12.5085L24.9296 12.5074C23.3617 12.4191 21.8823 11.7669 20.7762 10.6761L20.7683 10.6684C19.7663 9.67681 19.1368 8.38845 18.9733 7.01255C18.9555 6.86264 18.9432 6.71169 18.9366 6.55997C18.9003 5.73109 19.0342 4.91114 19.3224 4.1457C16.7754 4.65796 14.7448 6.47226 13.9514 8.81117C13.2994 8.66669 12.6244 8.58146 11.9326 8.56156C13.0199 4.77577 16.5761 2 20.7953 2C21.7717 2 22.7126 2.14865 23.5956 2.42407C22.783 2.75927 22.0969 3.32884 21.6266 4.0458C21.6213 4.04522 21.616 4.04464 21.6108 4.04407C21.148 4.76749 20.9164 5.61494 20.9541 6.47651C20.9584 6.57401 20.966 6.67105 20.9771 6.76748C21.0849 7.70983 21.5128 8.59303 22.1967 9.27318L22.2045 9.2809C22.963 10.0315 23.98 10.4793 25.0574 10.5369L25.0759 10.5379C25.7248 10.5699 26.3673 10.459 26.958 10.2194C27.3422 10.0636 27.7046 9.85342 28.0326 9.59276L28.034 9.5944C28.6398 9.11088 29.109 8.47078 29.3765 7.73752C29.779 8.74903 29.9999 9.8493 29.9999 11C29.9999 13.48 28.974 15.7258 27.3145 17.3537Z" fill="url(#paint0_linear_9_2079)"/>
<path fill-rule="evenodd" clip-rule="evenodd" d="M12.5 28L12.5534 27.9998V28H23L23 27.9999C25.6747 27.9999 28 25.7008 28 22.6666C28 19.6324 25.6747 17.3333 23 17.3333C22.2695 17.3333 21.5652 17.5047 20.9271 17.8158C20.8416 17.1268 20.6824 16.4624 20.4583 15.8316L20.4607 15.8307C19.2389 12.3871 16.0862 10 12.5 10C7.89224 10 4 13.9407 4 19C4 24.0593 7.89224 28 12.5 28ZM23 29.9999C26.866 29.9999 30 26.7167 30 22.6666C30 18.6165 26.866 15.3333 23 15.3333C22.8017 15.3333 22.6052 15.3419 22.4111 15.3588C20.9766 11.0731 17.0809 8 12.5 8C6.70101 8 2 12.9249 2 19C2 25.0751 6.70101 30 12.5 30C12.5094 30 12.5188 30 12.5283 30V30H23L23 29.9999Z" fill="url(#paint1_linear_9_2079)"/>
<defs>
<linearGradient id="paint0_linear_9_2079" x1="20.9663" y1="2" x2="20.9663" y2="17.3537" gradientUnits="userSpaceOnUse">
<stop stop-color="#F5BD52"/>
<stop offset="1" stop-color="#F5DA79"/>
</linearGradient>
<linearGradient id="paint1_linear_9_2079" x1="16" y1="8" x2="16" y2="30" gradientUnits="userSpaceOnUse">
<stop stop-color="#B2D4F7"/>
<stop offset="1" stop-color="#D9E2F3"/>
</linearGradient>
</defs>
</svg>
