<svg width="90" height="90" viewBox="0 0 90 90" fill="none" xmlns="http://www.w3.org/2000/svg">
<path d="M3.75 33.75C3.75 23.249 3.75 17.9985 5.79363 13.9877C7.59125 10.4596 10.4596 7.59125 13.9877 5.79363C17.9985 3.75 23.249 3.75 33.75 3.75H56.25C66.751 3.75 72.0015 3.75 76.0123 5.79363C79.5404 7.59125 82.4087 10.4596 84.2064 13.9877C86.25 17.9985 86.25 23.249 86.25 33.75V56.25C86.25 66.751 86.25 72.0015 84.2064 76.0123C82.4087 79.5404 79.5404 82.4087 76.0123 84.2064C72.0015 86.25 66.751 86.25 56.25 86.25H33.75C23.249 86.25 17.9985 86.25 13.9877 84.2064C10.4596 82.4087 7.59125 79.5404 5.79363 76.0123C3.75 72.0015 3.75 66.751 3.75 56.25V33.75Z" stroke="white" stroke-width="5"/>
</svg>
