<svg width="90" height="90" viewBox="0 0 90 90" fill="none" xmlns="http://www.w3.org/2000/svg">
<path d="M84.4822 88.0178C85.4585 88.9941 87.0415 88.9941 88.0178 88.0178C88.9941 87.0415 88.9941 85.4585 88.0178 84.4822L84.4822 88.0178ZM17.4007 16.3759L19.0012 14.4554L17.4007 16.3759ZM28.9486 25.9992L30.5491 24.0787L30.5491 24.0787L28.9486 25.9992ZM38.5514 25.9992L40.1518 27.9198L40.1518 27.9198L38.5514 25.9992ZM51.4486 15.2515L49.8482 13.331L49.8482 13.331L51.4486 15.2515ZM61.0514 15.2515L59.4509 17.1721L59.4509 17.1721L61.0514 15.2515ZM73.3528 25.5027L71.7523 27.4232L71.7523 27.4232L73.3528 25.5027ZM28.9486 74.7492L30.5491 72.8287L30.5491 72.8287L28.9486 74.7492ZM13.9486 62.2492L12.3482 64.1698L12.3482 64.1698L13.9486 62.2492ZM33.75 78.9876C35.1307 78.9876 36.25 77.8683 36.25 76.4876C36.25 75.1068 35.1307 73.9876 33.75 73.9876V78.9876ZM36.25 30.0004C36.25 28.6197 35.1307 27.5004 33.75 27.5004C32.3693 27.5004 31.25 28.6197 31.25 30.0004H36.25ZM31.25 75.0004C31.25 76.3811 32.3693 77.5004 33.75 77.5004C35.1307 77.5004 36.25 76.3811 36.25 75.0004H31.25ZM73.5514 37.5C73.5514 38.8807 74.6707 40 76.0514 40C77.4321 40 78.5514 38.8807 78.5514 37.5H73.5514ZM76.4706 61.9853C76.4706 69.9853 69.9853 76.4706 61.9853 76.4706V81.4706C72.7467 81.4706 81.4706 72.7467 81.4706 61.9853H76.4706ZM61.9853 76.4706C53.9853 76.4706 47.5 69.9853 47.5 61.9853H42.5C42.5 72.7467 51.2239 81.4706 61.9853 81.4706V76.4706ZM47.5 61.9853C47.5 53.9853 53.9853 47.5 61.9853 47.5V42.5C51.2239 42.5 42.5 51.2239 42.5 61.9853H47.5ZM61.9853 47.5C69.9853 47.5 76.4706 53.9853 76.4706 61.9853H81.4706C81.4706 51.2239 72.7467 42.5 61.9853 42.5V47.5ZM72.3499 75.8854L84.4822 88.0178L88.0178 84.4822L75.8854 72.3499L72.3499 75.8854ZM15.8002 18.2965L27.3482 27.9198L30.5491 24.0787L19.0012 14.4554L15.8002 18.2965ZM40.1518 27.9198L53.0491 17.1721L49.8482 13.331L36.9509 24.0787L40.1518 27.9198ZM59.4509 17.1721L71.7523 27.4232L74.9532 23.5821L62.6518 13.331L59.4509 17.1721ZM30.5491 72.8287L15.5491 60.3287L12.3482 64.1698L27.3482 76.6698L30.5491 72.8287ZM13.75 56.4876V19.2568H8.75V56.4876H13.75ZM15.5491 60.3287C14.4091 59.3787 13.75 57.9715 13.75 56.4876H8.75C8.75 59.4554 10.0682 62.2698 12.3482 64.1698L15.5491 60.3287ZM53.0491 17.1721C54.9033 15.6269 57.5967 15.6269 59.4509 17.1721L62.6518 13.331C58.9434 10.2406 53.5566 10.2406 49.8482 13.331L53.0491 17.1721ZM27.3482 27.9198C31.0566 31.0102 36.4434 31.0102 40.1518 27.9198L36.9509 24.0787C35.0967 25.6239 32.4033 25.6239 30.5491 24.0787L27.3482 27.9198ZM19.0012 14.4554C14.9304 11.0631 8.75 13.9578 8.75 19.2568H13.75C13.75 18.197 14.9861 17.618 15.8002 18.2965L19.0012 14.4554ZM33.75 73.9876C32.611 73.9876 31.4765 73.6015 30.5491 72.8287L27.3482 76.6698C29.2021 78.2147 31.4783 78.9876 33.75 78.9876V73.9876ZM31.25 30.0004V75.0004H36.25V30.0004H31.25ZM73.5514 31.2643V37.5H78.5514V31.2643H73.5514ZM71.7523 27.4232C72.8923 28.3732 73.5514 29.7804 73.5514 31.2643H78.5514C78.5514 28.2965 77.2332 25.4821 74.9532 23.5821L71.7523 27.4232Z" fill="white"/>
</svg>
