<svg width="90" height="90" viewBox="0 0 90 90" fill="none" xmlns="http://www.w3.org/2000/svg">
<path d="M80.7322 73.0178C81.7085 73.9941 83.2915 73.9941 84.2678 73.0178C85.2441 72.0415 85.2441 70.4585 84.2678 69.4822L80.7322 73.0178ZM7.5 23.75C6.11929 23.75 5 24.8693 5 26.25C5 27.6307 6.11929 28.75 7.5 28.75L7.5 23.75ZM30 28.75C31.3807 28.75 32.5 27.6307 32.5 26.25C32.5 24.8693 31.3807 23.75 30 23.75L30 28.75ZM7.5 42.5C6.11929 42.5 5 43.6193 5 45C5 46.3807 6.11929 47.5 7.5 47.5L7.5 42.5ZM22.5 47.5C23.8807 47.5 25 46.3807 25 45C25 43.6193 23.8807 42.5 22.5 42.5L22.5 47.5ZM7.5 61.25C6.11929 61.25 5 62.3693 5 63.75C5 65.1307 6.11929 66.25 7.5 66.25L7.5 61.25ZM30 66.25C31.3807 66.25 32.5 65.1307 32.5 63.75C32.5 62.3693 31.3807 61.25 30 61.25L30 66.25ZM72.0588 44.7794C72.0588 53.6322 64.8822 60.8088 56.0294 60.8088V65.8088C67.6436 65.8088 77.0588 56.3936 77.0588 44.7794H72.0588ZM56.0294 60.8088C47.1766 60.8088 40 53.6322 40 44.7794H35C35 56.3936 44.4152 65.8088 56.0294 65.8088V60.8088ZM40 44.7794C40 35.9266 47.1766 28.75 56.0294 28.75V23.75C44.4152 23.75 35 33.1652 35 44.7794H40ZM56.0294 28.75C64.8822 28.75 72.0588 35.9266 72.0588 44.7794H77.0588C77.0588 33.1652 67.6436 23.75 56.0294 23.75V28.75ZM67.4969 59.7825L80.7322 73.0178L84.2678 69.4822L71.0325 56.2469L67.4969 59.7825ZM7.5 28.75L30 28.75L30 23.75L7.5 23.75L7.5 28.75ZM7.5 47.5L22.5 47.5L22.5 42.5L7.5 42.5L7.5 47.5ZM7.5 66.25L30 66.25L30 61.25L7.5 61.25L7.5 66.25Z" fill="white"/>
</svg>
