<svg width="131" height="129" viewBox="0 0 131 129" fill="none" xmlns="http://www.w3.org/2000/svg">
<g clip-path="url(#clip0_23_171)">
<path d="M89.2242 112.055V112.241H89.4095V112.426H89.5948H89.7802V112.612H89.9655H90.1509H90.3362V112.797H90.5215H90.7069H90.8922H91.0776H91.2629H91.4482H91.6336H91.8189H92.0043M89.2242 112.055H89.4095V111.87M89.2242 112.055V111.87H89.4095M89.4095 111.87V111.685V111.499H89.2242H89.0387V111.314L88.8534 111.499V111.314H88.668H88.4827L88.2974 111.499H88.112H87.9267M87.9267 111.499V111.685H87.7413H87.556L87.3707 111.87H87.1853L87 112.055L86.8146 112.241L86.6293 112.426H86.444V112.612H86.2586V112.797L86.0733 112.982H85.8879V113.168H85.7026M87.9267 111.499H87.7413M85.7026 113.168L85.5173 113.353M85.7026 113.168V113.353H85.5173M85.7026 113.168H85.5173M85.5173 113.353V113.168M85.5173 113.168L85.3319 113.353V113.539H85.1466M85.1466 113.539V113.353H84.9611M85.1466 113.539H84.9611V113.724H84.7758M84.7758 113.724V113.539M84.7758 113.724H84.5905L84.4051 113.909L84.2198 114.095H84.0344V114.28V114.466H83.8491V114.651H83.6638V114.837H83.4784V115.022H83.2931V115.207M83.2931 115.207V115.393M83.2931 115.207H83.1077H82.9224H82.7371H82.5517V115.022H82.3664H82.181H81.9957V115.207H81.8104H81.625V115.393H81.4397L81.2542 115.578H81.0689V115.764H80.8836L80.6982 115.949L80.5129 116.134H80.3275V116.32L80.1422 116.505L79.9569 116.691V116.876H79.7715V117.061H79.5862V117.247V117.432H79.4008V117.618H79.2155V117.803V117.988H79.0302V118.174L78.8448 118.359V118.545V118.73V118.915L78.6595 119.101V119.286V119.472V119.657V119.842V120.028H78.8448V120.213L78.6595 120.399V120.584V120.769V120.955V121.14V121.326V121.511V121.696V121.882V122.067V122.253M78.6595 122.253H78.4741M78.6595 122.253V122.438L78.4741 122.623H78.6595V122.809V122.994H78.4741V123.18V123.365V123.55V123.736V123.921V124.107H78.6595V124.292V124.477V124.663V124.848V125.034V125.219H78.8448H79.0302V125.404H79.2155M79.2155 125.404H79.4008H79.5862V125.59H79.4008V125.775M79.2155 125.404V125.59M79.4008 125.775H79.5862M79.4008 125.775V125.961H79.5862H79.7715V126.146V126.331L79.9569 126.517H79.7715H79.5862M79.5862 126.517V126.702M79.5862 126.517H79.4008H79.2155V126.702H79.0302V126.517H78.8448L78.6595 126.331V126.146H78.4741H78.2888H78.1035H77.9181H77.7328V125.961H77.5474V126.146H77.3621V126.331H77.1768V126.146L76.9913 126.331V126.146H76.806V126.331H76.6206L76.4353 126.517H76.25V126.702V126.888H76.0646H75.8793V126.702H75.6939H75.5086H75.3233V126.888H75.1379M75.1379 126.888V127.073M75.1379 126.888H74.9526V127.073V127.258H74.7672V127.444H74.9526V127.629V127.815H74.7672H74.5819H74.3966H74.2112V127.629H74.0259H73.8405V127.815H73.6552V128H73.4699L73.2844 127.815H73.0991H72.9137V127.629H72.7284V127.444H72.5431V127.258V127.073H72.3577M72.3577 127.073V127.258M72.3577 127.073H72.1724H71.987H71.8017V126.888H71.6164H71.431V126.702H71.2457H71.0603L70.875 126.517M70.875 126.517V126.702M70.875 126.517H70.6897V126.702H70.5043H70.319V126.888H70.1336L69.9483 126.702H69.763V126.888H69.5776V127.073H69.3923V127.258L69.2068 127.444V127.629H69.0215M69.0215 127.629V127.444M69.0215 127.629H68.8362H68.6508H68.4655M68.4655 127.629V127.815M68.4655 127.629H68.2801H68.0948V127.444H67.9095V127.258V127.073V126.888V126.702H67.7241V126.517V126.331H67.5388V126.517H67.3534V126.331H67.1681M67.1681 126.331V126.517M67.1681 126.331L66.9828 126.146H66.7974L66.6121 125.961H66.4267V125.775L66.2414 125.961H66.0561H65.8707V125.775H65.6854H65.4999V125.59V125.404H65.6854V125.219V125.034V124.848H65.8707H66.0561L66.2414 124.663H66.0561H65.8707L65.6854 124.477H65.4999V124.292H65.6854V124.107H65.4999H65.3146H65.1293H64.9439H64.7586V123.921H64.5732M64.5732 123.921V124.107M64.5732 123.921L64.3879 124.107M64.3879 124.107V123.921M64.3879 124.107L64.2026 123.921L64.0172 123.736H63.8319M63.8319 123.736V123.55M63.8319 123.736H63.6465H63.4612H63.2759H63.0905V123.921V124.107V124.292H62.9052H62.7198V124.107H62.5345V123.921V123.736V123.55H62.3492V123.365H62.1638V123.18H61.9785V122.994H61.793V122.809M61.793 122.809H61.9785M61.793 122.809L61.6077 122.623V122.809H61.4225H61.237H61.0517H60.8663L60.681 122.623H60.4957V122.809H60.3103H60.125V122.994H59.9396V122.809H59.7543V122.623V122.438V122.253H59.569V122.067H59.3836H59.1983V121.882H59.0129H58.8276H58.6423H58.4569H58.2716H58.0862V121.696L57.9009 121.511V121.696H57.7156V121.882L57.5301 121.696H57.3448V121.511H57.1594H56.9741V121.326H56.7888H56.6034V121.14H56.4181H56.2327H56.0474H55.8621V120.955H55.6767H55.4914M55.4914 120.955V120.769M55.4914 120.955H55.306H55.1207V121.14H54.9354V121.326H55.1207V121.511V121.696H54.9354V121.882V122.067M54.9354 122.067H55.1207M54.9354 122.067V122.253M54.9354 122.253H54.75M54.9354 122.253L55.1207 122.438V122.623V122.809H55.306V122.994H55.1207V123.18H54.9354H54.75H54.5647V122.994H54.3793L54.194 123.18V122.994H54.0087H53.8232H53.6379V123.18H53.4525H53.2672V122.994H53.0819V123.18H52.8965H52.7112H52.5258V122.994H52.3405V122.809H52.1552L51.9698 122.623V122.809H51.7845V122.994H51.5991V123.18V123.365H51.4138H51.2285V123.18H51.0431V122.994M51.0431 122.994H51.2285M51.0431 122.994V122.809H50.8578H50.6724L50.4871 122.623H50.3018V122.438L50.1164 122.623V122.809L49.9311 122.623V122.809H49.7456H49.5603H49.375H49.1896V122.994H49.0043H48.8189H48.6336V123.18H48.4483H48.2629H48.0776H47.8922V122.994V122.809H47.7069H47.5216H47.3362V122.623V122.438V122.253H47.1509V122.067H46.9655V121.882V121.696H46.7802V121.882H46.5949V121.696H46.4095H46.2242V121.511H46.0387V121.326L45.8534 121.511V121.326H45.6681V121.14H45.4827L45.2974 120.955V121.14H45.112H44.9267V121.326V121.511H44.7414V121.696H44.556L44.3707 121.511V121.696H44.1853H44H43.8147V121.511H43.6293L43.444 121.326V121.511H43.2586V121.696M43.2586 121.696V121.882M43.2586 121.696H43.0733V121.882V122.067L42.888 121.882V121.696V121.511H42.7026V121.696H42.5173V121.511V121.326V121.14H42.3319H42.1466V120.955H41.9613V120.769L41.7758 120.584H41.5905H41.4051V120.399H41.2198V120.213V120.028V119.842V119.657H41.0345V119.472H40.8491H40.6638H40.4784V119.657H40.2931H40.1078H39.9224H39.7371H39.5517V119.472H39.3664V119.657H39.1811H38.9957V119.472H38.8104V119.286H38.625L38.4397 119.101H38.2544H38.0689H37.8836V118.915H37.6982V118.73H37.5129H37.3276L37.1422 118.915V118.73V118.545H36.9569H36.7715L36.5862 118.359H36.4009L36.2155 118.174V118.359H36.0302H35.8448V118.174H35.6595V117.988H35.4742V117.803H35.6595V117.618L35.8448 117.432H35.6595H35.4742H35.2888V117.618H35.1035V117.803V117.988V118.174V118.359V118.545H34.9181H34.7328L34.5475 118.359H34.3621H34.1768V118.174H33.9913V117.988H33.806V117.803L33.9913 117.618H34.1768V117.432H34.3621V117.247M34.3621 117.247H34.5475M34.3621 117.247V117.061H34.5475L34.3621 116.876H34.5475V116.691V116.505H34.7328V116.32V116.134V115.949V115.764M34.7328 115.764H34.9181M34.7328 115.764V115.578V115.393H34.5475V115.207H34.3621V115.393H34.1768L33.9913 115.207H33.806H33.6207V115.022H33.4353H33.25H33.0646M33.0646 115.022H32.8793M33.0646 115.022V115.207V115.393H32.8793V115.578H32.694H32.5086V115.393H32.3233V115.207V115.022V114.837H32.1379V114.651H31.9526L31.7673 114.837V114.651H31.5819V114.837H31.3966M31.3966 114.837V115.022M31.3966 114.837H31.2112V114.651V114.466H31.0259V114.28H30.8406V114.095V113.909M30.8406 113.909H30.6552M30.8406 113.909H31.0259V113.724H31.2112H31.3966H31.5819V113.539H31.7673V113.724H31.9526V113.539H32.1379V113.353H32.3233V113.168H32.5086H32.694V112.982V112.797H32.8793V112.612V112.426H33.0646V112.241H33.25V112.055V111.87H33.4353V111.685M33.4353 111.685H33.25M33.4353 111.685V111.499L33.6207 111.128H33.806L33.9913 110.572V110.387L34.1768 110.201V110.016V109.831V109.645V109.46V109.274L34.3621 109.089M34.3621 109.089H34.1768M34.3621 109.089V108.904V108.718V108.533V108.347V108.162H34.5475V107.977V107.791V107.606V107.42H34.7328V107.235V107.05V106.864V106.679L34.9181 106.493M34.9181 106.493H34.7328M34.9181 106.493V106.308V106.123V105.937V105.752L35.1035 105.566V105.381V105.196V105.01V104.825V104.639H35.2888V104.454V104.269V104.083V103.898V103.712H35.4742V103.527V103.342V103.156V102.971V102.785V102.6H35.6595V102.415V102.229V102.044V101.858V101.673V101.488V101.302M35.6595 101.302H35.8448M35.6595 101.302L35.8448 101.117V100.931V100.746V100.561V100.375V100.19V100.004V99.819H36.0302V99.6336V99.4482V99.2628V99.0774V98.892V98.7066V98.5212V98.3358V98.1504V97.965V97.7796L36.2155 97.5942V97.4088L36.4009 97.2234V97.038V96.8526H36.5862V96.6672V96.4818V96.2964V96.1109H36.7715H36.9569H37.1422V96.2964M37.1422 96.2964V96.4818M37.1422 96.2964H37.3276M37.3276 96.2964V96.4818M37.3276 96.2964H37.5129M37.5129 96.2964V96.4818M37.5129 96.2964H37.6982M37.6982 96.2964V96.4818L37.8836 96.2964M37.6982 96.2964H37.8836M37.8836 96.2964V96.4818M37.8836 96.2964H38.0689H38.2544M38.2544 96.2964V96.4818M38.2544 96.2964H38.4397L38.2544 96.4818M38.2544 96.2964V96.1109H38.4397V95.9256H38.2544H38.0689L37.8836 95.7401M38.2544 96.4818H38.4397M37.8836 95.7401H38.0689M37.8836 95.7401V95.5547M38.0689 95.7401L37.8836 95.5547M38.0689 95.7401H38.2544M38.0689 95.7401V95.5547H37.8836M37.8836 95.5547V95.3693H37.6982V95.1839L37.5129 94.9985H37.3276V94.8131H37.1422V94.6277H36.9569H36.7715V94.8131V94.9985H36.5862V95.1839M36.5862 95.1839H36.7715M36.5862 95.1839V95.3693H36.4009V95.5547H36.2155V95.7401V95.9256V96.1109V96.2964M36.2155 96.2964L36.0302 96.4818M36.2155 96.2964V96.4818M36.0302 96.4818H36.2155M36.0302 96.4818V96.6672H36.2155V96.4818M36.0302 96.4818V96.2964V96.1109V95.9256V95.5547V95.3693V95.1839V94.9985L36.2155 94.8131V94.6277V94.4423V94.2569V94.0715V93.8861V93.7007H36.4009V93.5153V93.3299V93.1445V92.9591V92.7737V92.5883V92.4029V92.2175V92.0321H36.5862V91.8467V91.6613V91.4759V91.2905V91.1051V90.9197V90.7343V90.5489V90.3635V90.1781V89.9927L36.7715 89.8073V89.6219V89.4365V89.2511V89.0657V88.8803V88.6949V88.5095V88.3241V88.1387H36.9569V87.9533V87.7679V87.5825V87.3971V87.2117V87.0263V86.8409V86.6555V86.4701V86.2847V86.0993V85.9139V85.7285V85.5431V85.3577L37.1422 85.1723V84.9869L36.9569 84.8015V84.6161H37.1422V84.4307V84.2453H37.3276V84.0599H37.5129V83.8745V83.689L37.6982 83.5037H37.8836M37.8836 83.5037V83.3183M37.8836 83.5037V83.689H38.0689V83.8745M38.0689 83.8745H38.2544M38.0689 83.8745H37.8836V84.0599V84.2453H38.0689V84.4307H38.2544V84.6161H38.4397L38.625 84.8015V84.9869H38.8104H38.9957L39.1811 85.1723V85.3577H39.3664V85.5431H39.5517V85.7285H39.7371V85.9139H39.9224L40.1078 86.0993V86.2847H40.2931L40.4784 86.4701V86.6555L40.6638 86.8409V87.0263H40.8491V87.2117V87.3971V87.5825H41.0345V87.7679V87.9533V88.1387V88.3241V88.5095V88.6949L41.2198 88.8803V89.0657V89.2511H41.4051V89.4365M38.0689 83.8745V84.0599M41.4051 89.4365H41.2198M41.4051 89.4365V89.6219V89.8073H41.5905V89.9927V90.1781L41.7758 90.3635M41.7758 90.3635H41.5905M41.7758 90.3635V90.5489H41.9613M41.9613 90.5489V90.7343H42.1466M41.9613 90.5489L42.1466 90.7343M41.9613 90.5489V90.3635M41.9613 90.5489H42.1466V90.7343M42.1466 90.7343V90.9197H42.3319M42.1466 90.7343H42.3319M42.3319 90.9197V91.1051H42.5173V91.2905H42.7026M42.3319 90.9197V90.7343M42.3319 90.9197H42.5173V90.7343H42.3319M42.3319 90.7343V90.5489L42.1466 90.3635V90.1781V89.9927H41.9613V89.8073L41.7758 89.6219V89.4365V89.2511V89.0657V88.8803V88.6949V88.5095L41.5905 88.3241V88.1387M41.5905 88.1387H41.7758M41.5905 88.1387V87.9533V87.7679V87.5825V87.3971H41.4051V87.2117V87.0263V86.8409V86.6555L41.2198 86.4701V86.2847M41.2198 86.2847H41.4051M41.2198 86.2847V86.0993V85.9139H41.0345L41.2198 85.7285H41.0345V85.5431V85.3577H40.8491V85.1723V84.9869L40.6638 85.1723V84.9869V84.8015M40.6638 84.8015H40.4784M40.6638 84.8015V84.6161L40.4784 84.8015M40.4784 84.8015L40.2931 84.6161V84.4307H40.1078V84.2453H39.9224V84.0599H39.7371V83.8745H39.5517M39.5517 83.8745H39.3664M39.5517 83.8745L39.3664 83.689V83.5037H39.1811V83.689H38.9957V83.5037H38.8104V83.3183H38.625V83.1328V82.9474H38.4397V82.762V82.5766H38.2544V82.762H38.0689V82.5766H37.8836V82.3912H37.6982H37.5129V82.2058H37.3276H37.1422V82.0204L36.9569 81.835H36.7715M36.7715 81.835V81.6496H36.5862H36.4009M36.7715 81.835H36.5862M36.4009 81.6496H36.2155M36.4009 81.6496L36.2155 81.835M36.2155 81.6496V81.835M36.2155 81.6496V81.4642V81.2788V80.908V80.7226V80.5372V80.3518H36.4009V80.1664H36.5862V80.3518L36.7715 80.1664H36.9569H37.1422M36.2155 81.835H36.4009M36.4009 81.835H36.5862M36.4009 81.835V82.0204L36.5862 81.835M37.1422 80.1664L37.3276 80.3518M37.1422 80.1664H37.3276V80.3518M37.1422 80.1664V79.981V79.7956V79.6102H36.9569V79.4248M37.3276 80.3518L37.5129 80.5372M37.3276 80.3518H37.5129V80.5372M37.5129 80.5372L37.6982 80.7226M37.5129 80.5372H37.6982V80.7226M37.6982 80.7226H37.8836V80.908H38.0689V81.0934H38.2544V81.2788H38.4397M38.4397 81.2788V81.4642H38.625V81.6496M38.4397 81.2788H38.625H38.8104V81.4642H38.9957M36.9569 79.4248V79.2394H37.1422M36.9569 79.4248H37.1422V79.2394M37.1422 79.2394H37.3276H37.5129V79.054M37.5129 79.054H37.6982M37.5129 79.054V78.8686H37.6982V78.6832H37.8836V78.4978V78.3124V78.127H37.6982H37.5129V77.9416M37.5129 77.9416H37.6982H37.8836M37.5129 77.9416H37.3276V77.7562H37.5129V77.9416ZM37.8836 77.9416H38.0689M37.8836 77.9416V77.7562H37.6982V77.5708H37.5129V77.3854M38.0689 77.9416H38.2544H38.4397V77.7562M38.0689 77.9416V77.7562H38.2544H38.4397M38.4397 77.7562H38.625M38.4397 77.7562V77.5708H38.625V77.7562M38.625 77.7562V77.9416V78.127H38.4397V78.3124H38.625V78.4978H38.8104M37.5129 77.3854V77.2H37.3276M37.5129 77.3854H37.6982H37.8836H38.0689V77.2V77.0146H37.8836V76.8292H38.0689L37.8836 76.6438V76.4584H37.6982V76.273V76.0876H37.5129V75.9022L37.3276 75.7168M37.3276 75.7168V75.9022M37.3276 75.7168H37.1422M37.3276 75.7168V75.5314H37.1422V75.346H36.9569M36.9569 75.346H36.7715V75.1606M36.9569 75.346V75.1606M36.7715 75.1606H36.9569M36.7715 75.1606L36.9569 74.9752H37.1422M36.7715 75.1606H36.5862H36.4009H36.2155L36.4009 74.9752H36.2155V74.7898H36.4009V74.6044H36.5862V74.419V74.2336H36.7715V74.0482H36.9569V73.8628H37.1422V73.6774H37.3276V73.492V73.3066V73.1212V72.9358H37.1422V72.7504H36.9569H36.7715V72.9358H36.5862V73.1212V73.3066V73.492L36.4009 73.3066H36.2155V73.1212H36.0302M36.9569 75.1606L37.1422 74.9752M37.1422 74.9752V75.1606M36.0302 73.1212L35.8448 72.9358M36.0302 73.1212H35.8448M36.0302 73.1212L35.8448 73.3066V73.1212M35.8448 72.9358L35.6595 72.7504M35.8448 72.9358H35.6595V72.7504M35.8448 72.9358V73.1212M35.6595 72.7504H35.4742M35.4742 72.7504V72.565V72.3796H35.2888M35.4742 72.7504V72.9358V73.1212H35.6595H35.8448M35.4742 72.7504H35.2888V72.565L35.1035 72.3796H34.9181V72.1942L34.7328 72.3796H34.5475H34.3621H34.1768H33.9913H33.806V72.1942V72.0088V71.8234H33.6207V71.638L33.4353 71.4526H33.25H33.0646H32.8793H32.694H32.5086M32.5086 71.4526V71.2672M32.5086 71.4526L32.3233 71.2672H32.1379V71.0818H31.9526V70.8964H31.7673M31.7673 70.8964V71.0818M31.7673 70.8964H31.5819V70.7109H31.3966L31.2112 70.5255M31.2112 70.5255H31.3966M31.2112 70.5255H31.0259V70.3402H30.8406V70.1547H30.6552M30.6552 70.1547V70.3402M30.6552 70.1547H30.4699V69.9693V69.7839V69.5985H30.2844V69.4131V69.2277V69.0423L30.0991 68.8569V68.6715V68.4861H29.9138V68.3007H29.7284V68.1153H29.5431V67.9299V67.7445L29.3577 67.5591V67.3737H29.1724M29.1724 67.3737V67.1883M29.1724 67.3737H28.9871V67.1883H28.8017V67.0029V66.8175H28.6164V66.6321H28.431V66.4467H28.2457V66.2613H28.0604V66.0759H27.875V65.8905H27.6897L27.5043 65.7051L27.319 65.5197H27.1337V65.3343V65.1489V64.9635V64.7781V64.5927V64.4073H27.319H27.5043V64.2219V64.0365H27.6897V63.8511H27.875V63.6657H28.0604L28.2457 63.2949V63.1095V62.9241M28.2457 62.9241H28.431M28.2457 62.9241L28.431 62.7387L28.6164 62.5533H28.8017V62.3679V62.1825H28.6164V61.9971H28.431V61.8117H28.2457V61.6263H28.0604V61.4409H27.875H27.6897V61.2555H27.5043H27.319H27.1337L26.9483 61.0701H26.763H26.5776H26.3923V60.8847M26.3923 60.8847H26.207M26.3923 60.8847V60.6993H26.5776V60.5139H26.763H26.9483V60.3285V60.1431H27.1337V59.9577L26.9483 59.7723M26.9483 59.7723H27.1337M26.9483 59.7723V59.5869H26.763V59.4015H26.9483V59.2161V59.0307H27.1337L26.9483 58.8453V58.6599M26.9483 58.6599V58.4745H26.763M26.9483 58.6599H26.763V58.8453L26.5776 59.0307M26.5776 59.0307V58.8453M26.5776 59.0307H26.3923V59.2161H26.207H26.0215V59.4015H25.8362H25.6508H25.4655V59.2161H25.2802M25.2802 59.2161V59.0307H25.0948M25.2802 59.2161H25.0948V59.0307M25.0948 59.0307V58.8453H24.9095H24.7241H24.5388V59.0307H24.3535H24.1681H23.9828V58.8453H23.7974H23.6121V58.6599M23.6121 58.6599H23.4268H23.2414V58.4745H23.4268H23.6121M23.6121 58.6599V58.4745M23.6121 58.6599H23.7974H23.9828V58.4745M23.6121 58.4745V58.2891M23.9828 58.4745H23.7974M23.9828 58.4745V58.2891H23.7974H23.6121M23.6121 58.2891V58.1036V57.9183V57.7328H23.4268V57.5474H23.2414V57.362M23.2414 57.362H23.0561M23.2414 57.362H23.4268V57.1766H23.6121V56.9912H23.7974V56.8058H23.9828H24.1681M24.1681 56.8058H24.3535M24.1681 56.8058V56.6204V56.435V56.2496H23.9828V56.435H23.7974V56.2496M23.7974 56.2496H23.6121M23.7974 56.2496V56.0642V55.8788H23.6121V55.6934H23.7974H23.9828H24.1681H24.3535H24.5388M24.5388 55.6934H24.7241V55.508M24.5388 55.6934L24.7241 55.508M24.5388 55.6934V55.508H24.3535H24.1681H23.9828V55.3226H23.7974M24.7241 55.508L24.9095 55.6934V55.508H24.7241ZM23.7974 55.3226H23.6121V55.1372M23.7974 55.3226V55.1372H23.6121M23.6121 55.1372H23.4268H23.2414V55.3226H23.0561H22.8707M22.8707 55.3226H22.6854M22.8707 55.3226V55.1372M22.6854 55.3226V55.508H22.5001M22.6854 55.3226H22.5001M22.5001 55.508H22.3146M22.5001 55.508V55.3226M22.5001 55.3226V55.1372M22.5001 55.3226H22.3146H22.1293M22.5001 55.1372H22.6854M22.5001 55.1372V54.9518M22.5001 55.1372H22.3146M22.6854 55.1372H22.8707M22.6854 55.1372L22.8707 54.9518M22.6854 55.1372V54.9518M22.8707 55.1372H23.0561M22.8707 55.1372V54.9518M22.8707 54.9518H23.0561V54.7664M22.8707 54.9518V54.7664M22.8707 54.9518H22.6854M23.0561 54.7664L23.2414 54.9518V54.7664H23.0561ZM23.0561 54.7664H22.8707M23.0561 54.7664V54.581H22.8707M22.8707 54.7664V54.581M22.8707 54.581V54.3956M22.6854 54.9518H22.5001M22.5001 54.9518V54.7664H22.3146M22.3146 55.1372V54.9518H22.1293M22.3146 55.1372H22.1293M22.1293 54.9518V54.7664M22.1293 54.9518H21.9439V55.1372M22.1293 54.9518V55.1372M21.9439 55.1372H22.1293M21.9439 55.1372L22.1293 55.3226M21.9439 55.1372V55.3226M22.1293 55.1372V55.3226M22.1293 55.3226H21.9439M21.9439 55.3226V55.508M21.9439 55.508H22.1293M21.9439 55.508V55.6934L21.7586 55.508H21.5733H21.3879H21.2026V55.6934H21.0172H20.8319V55.8788L20.6466 55.6934H20.4612H20.2759V55.508V55.3226H20.0905V55.1372H19.9052V54.9518M19.9052 54.9518H19.7199M19.9052 54.9518V54.7664M19.9052 54.9518H20.0905M19.7199 54.9518V55.1372M19.7199 54.9518H19.5345V54.7664M19.7199 54.9518V54.7664M19.5345 54.7664H19.7199M19.5345 54.7664H19.3492M19.7199 54.7664V54.581M19.7199 54.7664H19.9052M19.9052 54.7664V54.581M19.9052 54.7664H20.0905V54.9518M20.0905 54.9518H20.2759H20.4612V54.7664H20.6466V54.9518H20.8319M20.8319 54.9518V54.7664M20.8319 54.9518H21.0172M21.0172 54.9518V54.7664M21.0172 54.9518V55.1372L21.2026 54.9518H21.3879V54.7664V54.581H21.5733V54.3956M21.5733 54.3956V54.2102M21.5733 54.3956H21.7586V54.2102M21.5733 54.2102H21.7586M21.5733 54.2102V54.0248M21.5733 54.2102H21.3879V54.0248M21.7586 54.2102V54.0248M21.7586 54.0248V53.8394M21.7586 54.0248H21.5733M21.7586 53.8394H21.9439M21.7586 53.8394V53.654M21.7586 53.8394H21.5733M21.7586 53.654H21.9439M21.7586 53.654V53.4686H21.5733V53.654M21.7586 53.654H21.5733M21.5733 53.654V53.8394M21.5733 53.8394V54.0248M21.5733 54.0248H21.3879M21.3879 54.0248H21.2026V53.8394M21.2026 53.8394H21.0172V53.654M21.2026 53.8394H21.3879M21.2026 53.8394V53.654M21.0172 53.654V53.4686H21.2026M21.0172 53.654H20.8319M21.2026 53.654H21.3879M21.2026 53.654V53.4686M21.2026 53.4686V53.2832M20.8319 53.654V53.4686V53.2832H20.6466M20.8319 53.654V53.8394H20.6466H20.4612H20.2759H20.0905V54.0248V54.2102H19.9052M19.9052 54.2102V54.0248M19.9052 54.2102H19.7199M19.9052 54.2102V54.3956H19.7199V54.2102M19.7199 54.2102H19.5345M19.5345 54.2102V54.3956M19.5345 54.2102V54.0248H19.3492M19.3492 54.0248V54.2102V54.3956M19.3492 54.0248H19.1638M19.3492 54.0248V53.8394H19.1638M19.3492 54.3956H19.1638V54.2102V54.0248M19.3492 54.3956V54.581V54.7664M19.1638 54.0248V53.8394M19.1638 54.0248H18.9785M19.1638 53.8394L19.3492 53.654H19.1638M19.1638 53.8394V53.654M19.1638 53.654V53.4686M19.1638 53.654H18.9785V53.4686M19.1638 53.4686H18.9785M19.1638 53.4686L18.9785 53.2832V53.4686M19.3492 54.7664H19.1638M19.1638 54.7664V54.581M19.1638 54.7664H18.9785V54.581V54.3956H18.7932M18.7932 54.3956V54.2102M18.7932 54.3956V54.581H18.6077M18.6077 54.581V54.3956M18.6077 54.581H18.4225V54.3956M18.6077 54.3956V54.2102V54.0248H18.4225M18.6077 54.3956H18.4225M18.4225 54.0248V53.8394M18.4225 54.0248V54.2102V54.3956M18.4225 53.8394H18.6077M18.4225 53.8394V53.654M18.4225 53.654V53.4686M18.4225 53.654H18.237M18.4225 54.3956H18.237V54.581H18.0517H17.8664H17.681V54.3956M17.681 54.3956H17.8664M17.681 54.3956V54.2102H17.4957M17.681 54.3956H17.4957M17.681 54.3956L17.4957 54.581M17.4957 54.2102V54.0248M17.4957 54.2102V54.3956M17.4957 54.3956V54.581M17.4957 54.581V54.7664V54.9518M17.4957 54.9518V55.1372V55.3226V55.508V55.6934H17.681V55.8788M17.4957 54.9518H17.3103V55.1372H17.125V55.3226H17.3103V55.508V55.6934V55.8788H17.4957M17.4957 54.9518L17.3103 54.7664V54.581V54.3956V54.2102L17.125 54.0248L16.9397 53.8394H16.7543V53.654V53.4686M17.681 55.8788H17.8664V56.0642L17.681 55.8788ZM17.681 55.8788V56.0642M17.681 55.8788H17.4957M17.4957 55.8788V56.0642M16.7543 53.4686H16.569M16.7543 53.4686V53.2832M16.569 53.4686L16.7543 53.2832M16.569 53.4686V53.2832M16.7543 53.2832V53.0978M16.7543 53.2832H16.9397V53.0978H16.7543M16.7543 53.2832H16.569M16.7543 53.0978V52.9124M16.7543 53.0978H16.569V53.2832M16.7543 52.9124H16.9397H17.125M16.7543 52.9124V52.727M16.7543 52.9124H16.569M17.125 52.9124V52.727M17.125 52.9124L17.3103 52.727M17.125 52.727H17.3103M17.125 52.727V52.5416M17.3103 52.727H17.4957V52.5416M17.3103 52.727V52.5416M17.4957 52.5416H17.3103M17.4957 52.5416V52.3562M17.3103 52.5416H17.125M17.3103 52.5416V52.3562M17.3103 52.5416L17.4957 52.3562M17.125 52.5416V52.3562M17.125 52.5416H16.9397M17.3103 52.3562H17.4957M17.3103 52.3562H17.125M17.3103 52.3562V52.1708M17.4957 52.3562V52.1708M17.4957 52.3562H17.681V52.1708H17.4957M17.4957 52.1708H17.3103M17.125 52.3562V52.1708M17.125 52.3562H16.9397M17.3103 52.1708H17.125M17.3103 52.1708V51.9854M17.125 52.1708V51.9854M17.125 52.1708H16.9397M17.3103 51.9854V51.8M17.3103 51.9854H17.125M17.125 51.9854L16.9397 52.1708M16.9397 52.1708V51.9854M16.9397 52.1708H16.7543L16.9397 51.9854M16.9397 51.9854H16.7543M16.9397 52.5416V52.727H16.7543M16.9397 52.5416H16.7543V52.727M16.7543 52.727H16.569M16.569 53.2832H16.3836V53.0978H16.1983L16.013 52.9124M16.013 52.9124H15.8276V52.727M16.013 52.9124V52.727H15.8276M15.8276 52.727H15.6423H15.4569M15.8276 52.727V52.5416H15.6423H15.4569M15.4569 52.727H15.2716M15.4569 52.727V52.5416M15.2716 52.727V52.9124H15.0863L15.2716 52.727ZM15.2716 52.727H15.0863M15.2716 52.727V52.5416M15.2716 52.5416H15.4569M15.2716 52.5416H15.0863M15.2716 52.5416V52.3562V52.1708M15.0863 52.5416V52.3562V52.1708M15.0863 52.5416H14.9009H14.7156H14.5301M15.2716 52.1708H15.4569H15.6423V51.9854V51.8M15.2716 52.1708V51.9854M15.2716 52.1708H15.0863M15.6423 51.8H15.8276V51.6146M15.6423 51.8V51.6146H15.8276M15.6423 51.8H15.4569M15.8276 51.6146H16.013V51.4292H15.8276M15.8276 51.6146V51.4292M15.8276 51.4292V51.2438H16.013V51.0584M16.013 51.0584V50.873H15.8276L16.013 51.0584ZM15.4569 51.8V51.6146M15.4569 51.8V51.9854H15.2716M15.2716 51.9854V51.8H15.0863V51.6146V51.4292M15.0863 51.4292V51.2438H14.9009M15.0863 51.4292H14.9009V51.2438M14.9009 51.2438V51.0584M14.9009 51.0584V50.873V50.6876M14.9009 51.0584H14.7156M15.0863 52.1708H14.9009M14.5301 52.5416V52.727M14.5301 52.5416H14.3448V52.727H14.1595V52.5416H13.9741V52.3562H13.7888V52.1708V51.9854H13.6034V51.8L13.4181 51.6146M13.4181 51.6146H13.6034M13.4181 51.6146V51.4292H13.6034M13.4181 51.6146V51.8M13.4181 51.6146H13.2328H13.0474H12.8621H12.6767M13.6034 51.4292V51.2438M13.6034 51.4292L13.4181 51.2438H13.6034M13.6034 51.2438V51.0584H13.4181V50.873M12.6767 51.6146L12.8621 51.4292H12.6767V51.6146ZM12.6767 51.6146H12.4914V51.4292L12.3061 51.6146V51.4292M12.3061 51.4292V51.2438H12.4914M12.3061 51.4292H12.1207M12.1207 51.4292V51.2438M12.1207 51.4292H11.9354H11.75V51.2438H11.5647V51.0584M11.5647 51.0584H11.75V50.873M11.5647 51.0584H11.3794M11.75 50.873H11.9354M11.75 50.873V50.6876H11.9354V50.873M11.9354 50.873H12.1207M12.1207 50.873H12.3061M12.1207 50.873V50.6876M11.3794 51.0584V50.873M11.3794 51.0584V51.2438H11.194H11.0087H10.8232M11.3794 50.873V50.6876M11.3794 50.873H11.194M11.3794 50.6876V50.5022M11.3794 50.6876L11.194 50.5022H11.3794M11.3794 50.6876H11.194M11.3794 50.5022V50.3168M10.8232 51.2438V51.4292M10.8232 51.2438H10.6379H10.4526H10.2672V51.0584H10.0819V50.873L9.89652 50.6876M9.89652 50.6876H9.71123M9.89652 50.6876V50.5022M9.89652 50.5022V50.3168H9.71123M9.89652 50.5022H9.71123V50.3168M9.71123 50.3168V50.1314M9.71123 50.1314V49.946M9.71123 50.1314H9.52593V49.946H9.34051V49.7606M9.34051 49.7606V49.5752M9.34051 49.7606H9.15521M9.15521 49.7606V49.5752M9.15521 49.7606H8.9698M9.15521 49.7606L8.9698 49.946V50.1314V50.3168M9.15521 49.5752L8.9698 49.7606M9.15521 49.5752H8.9698V49.7606M8.9698 50.3168H9.15521M8.9698 50.3168H8.7845V50.5022H8.5992H8.41379V50.3168H8.22849M8.22849 50.3168H8.04308M8.22849 50.3168V50.1314H8.04308L7.85778 50.3168V50.1314H7.67248M7.67248 50.1314V49.946M7.67248 50.1314V50.3168M7.67248 50.1314L7.48707 50.3168H7.30177V50.5022H7.11635M7.67248 49.946H7.85778M7.67248 49.946V49.7606H7.48707M7.67248 49.946H7.48707V49.7606M7.48707 49.7606V49.5752V49.3898M7.48707 49.7606H7.30177M7.48707 49.3898V49.2044H7.67248V49.019M7.48707 49.3898H7.30177V49.5752V49.7606M7.67248 49.019H7.85778M7.67248 49.019V48.8336V48.6482M7.85778 49.019V49.2044H8.04308L7.85778 49.019ZM7.85778 49.019H8.04308V48.8336M7.85778 49.019V48.8336V48.6482H7.67248M7.67248 48.6482V48.4628M7.30177 49.7606H7.11635V49.5752M7.11635 50.5022V50.3168V50.1314V49.946H6.93105V50.1314V50.3168M7.11635 50.5022H6.93105M7.11635 50.5022V50.6876M6.93105 50.3168H6.74575V50.1314H6.56034M6.93105 50.3168V50.5022M6.93105 50.5022L7.11635 50.6876M6.93105 50.5022V50.6876H7.11635M7.11635 50.6876H7.30177V50.873M7.30177 50.873H7.11635M7.30177 50.873V51.0584L7.11635 50.873M7.11635 50.873V51.0584V51.2438H6.93105H6.74575M6.74575 51.2438V51.0584M6.74575 51.2438H6.56034H6.37504H6.18963M6.74575 51.0584V50.873H6.56034M6.74575 51.0584H6.56034M6.18963 51.2438H6.00433H5.81903H5.63362H5.44832H5.26291H5.07761V51.0584V50.873V50.6876L5.26291 50.873V50.6876H5.44832V50.5022V50.3168H5.26291V50.1314V49.946V49.7606L5.07761 49.5752V49.3898V49.2044H4.89231V49.019H4.70689V48.8336V48.6482L4.5216 48.8336V48.6482H4.33618V48.4628H4.15088V48.2774H3.96558L3.78017 48.092H3.59487V47.9066M6.18963 51.2438V51.0584M3.59487 47.9066V47.7212M3.59487 47.9066H3.40946M3.59487 47.9066L3.40946 48.092H3.22416M3.59487 47.7212H3.78017M3.59487 47.7212L3.40946 47.5358V47.7212H3.59487ZM3.78017 47.7212H3.96558V47.5358L3.78017 47.7212ZM3.78017 47.7212V47.5358M3.22416 48.092V48.2774M3.22416 48.092H3.03886L2.85345 47.9066H2.66815V47.7212H2.48274V47.9066H2.29744V47.7212L2.11214 47.9066V47.7212L1.92672 47.9066V47.7212H1.74142H1.55601V47.5358H1.74142M1.74142 47.5358H1.92672M1.74142 47.5358V47.3504M1.74142 47.3504V47.165M1.74142 47.3504H1.92672M1.92672 47.3504V47.165L2.11214 47.3504M1.92672 47.3504H2.11214M2.11214 47.3504V47.165H2.29744H2.48274H2.66815H2.85345M2.85345 47.165V46.9796M2.85345 47.165H3.03886V46.9796H3.22416H3.40946H3.59487V46.7942L3.78017 46.9796V46.7942H3.96558M3.96558 46.7942V46.9796M3.96558 46.7942H4.15088H4.33618H4.5216H4.70689V46.6088H4.89231H5.07761H5.26291H5.44832V46.7942M5.44832 46.7942V46.9796H5.63362V46.7942M5.44832 46.7942H5.63362M5.63362 46.7942H5.81903H6.00433V46.6088V46.4234L6.18963 46.238V46.0526V45.8672H6.00433M6.00433 45.8672H5.81903M6.00433 45.8672V45.6818M6.00433 45.6818H5.81903M6.00433 45.6818V45.4964H5.81903V45.3109H5.63362V45.1255H5.44832H5.26291H5.07761V44.9401H4.89231H4.70689V44.7547H4.5216H4.33618V44.5693H4.15088V44.7547H3.96558H3.78017V44.9401M3.78017 44.9401H3.96558M3.78017 44.9401V45.1255V45.3109H3.59487V45.4964H3.40946M3.40946 45.4964V45.6818H3.22416V45.4964H3.40946ZM3.40946 45.4964V45.3109V45.1255M3.40946 45.1255H3.22416M3.40946 45.1255L3.22416 44.9401M3.22416 44.9401H3.40946M3.22416 44.9401V44.7547V44.5693H3.40946V44.3839H3.22416H3.03886M3.03886 44.3839V44.5693M3.03886 44.3839H2.85345H2.66815V44.1985V44.0131H2.85345M2.85345 44.0131H3.03886M2.85345 44.0131L3.03886 44.1985V44.0131M3.03886 44.0131H3.22416V43.8277V43.6423M3.22416 43.6423H3.03886M3.22416 43.6423L3.03886 43.4569L3.22416 43.2715H3.40946M3.40946 43.2715V43.0861H3.59487V43.2715H3.40946ZM3.40946 43.2715V43.4569V43.6423V43.8277M3.40946 43.8277H3.59487M3.40946 43.8277V44.0131H3.59487V43.8277M3.59487 43.8277H3.78017M3.78017 43.8277V43.6423H3.96558M3.78017 43.8277V44.0131H3.96558H4.15088V43.8277H4.33618H4.5216H4.70689V44.0131V44.1985H4.89231H5.07761V44.0131H5.26291H5.44832V43.8277H5.63362H5.81903H6.00433M6.00433 43.8277H6.18963V44.0131M6.00433 43.8277V44.0131M6.18963 44.0131H6.00433M6.18963 44.0131H6.37504V43.8277M6.00433 44.0131V44.1985H6.18963M6.00433 44.0131L6.18963 44.1985M6.18963 44.1985L6.37504 44.3839M6.18963 44.1985H6.37504V44.3839M6.37504 44.3839H6.18963M6.37504 44.3839V44.5693L6.56034 44.3839M6.37504 44.3839H6.56034M6.56034 44.3839V44.5693M6.56034 44.3839H6.74575V44.5693H6.93105M6.93105 44.5693H7.11635H7.30177H7.48707M6.93105 44.5693V44.3839M7.48707 44.5693V44.7547M7.48707 44.5693H7.67248M7.67248 44.5693V44.7547V44.9401V45.1255H7.85778M7.67248 44.5693H7.85778M6.37504 43.8277H6.56034M6.37504 43.8277V43.6423M6.56034 43.8277V44.0131M6.56034 43.8277H6.74575H6.93105H7.11635M6.56034 43.8277V43.6423M6.56034 43.6423H6.37504M6.56034 43.6423V43.4569M6.37504 43.6423H6.18963H6.00433M6.00433 43.6423V43.4569H6.18963H6.37504V43.2715M6.00433 43.6423H5.81903V43.4569H5.63362M5.63362 43.4569H5.44832V43.6423M5.63362 43.4569V43.2715H5.81903L6.00433 43.0861V42.9007M6.00433 42.9007H6.18963M6.00433 42.9007H5.81903V43.0861H5.63362V42.9007L5.44832 43.0861M5.44832 43.0861V42.9007L5.26291 43.0861M5.44832 43.0861H5.26291M5.26291 43.0861V43.2715H5.07761V43.4569H4.89231H4.70689V43.2715M4.70689 43.2715H4.89231M4.70689 43.2715V43.0861M4.70689 43.2715H4.5216L4.33618 43.4569V43.2715L4.5216 43.0861V42.9007V42.7153H4.70689V42.5299H4.89231L5.07761 42.3445M4.89231 43.2715V43.0861H4.70689M4.89231 43.2715L4.70689 43.0861M5.07761 42.3445H5.26291V42.1591M5.07761 42.3445V42.1591H5.26291M5.07761 42.3445H4.89231H4.70689H4.5216V42.5299H4.33618H4.15088H3.96558M5.26291 42.1591H5.44832M5.44832 42.1591H5.63362V41.9737M5.44832 42.1591V41.9737H5.63362M5.63362 41.9737H5.81903V41.7883H6.00433V41.6029H6.18963H6.37504V41.4175M3.96558 42.5299V42.3445H3.78017M3.96558 42.5299H3.78017V42.7153H3.59487V42.9007H3.40946H3.22416V43.0861H3.03886H2.85345V43.2715H2.66815V43.0861H2.48274H2.29744V42.9007H2.11214H1.92672V43.0861V43.2715H1.74142H1.55601H1.37071H1.18541V43.0861V42.9007M1.18541 42.9007H1.37071V42.7153M1.18541 42.9007V42.7153M1.18541 42.9007H1V42.7153H1.18541M1.37071 42.7153H1.18541M1.37071 42.7153V42.5299H1.18541V42.3445V42.1591H1V41.9737V41.7883V41.6029H1.18541V41.4175V41.2321M1.18541 41.2321H1.37071M1.18541 41.2321V41.0467V40.8613V40.6759V40.4905H1.37071V40.3051M1.37071 41.2321V41.4175M1.37071 41.2321H1.55601M1.55601 41.2321H1.74142V41.0467H1.55601V41.2321ZM1.37071 40.3051H1.18541M1.37071 40.3051V40.1197H1.55601V39.9343H1.74142H1.92672V39.7489M1.92672 39.7489H1.74142M1.92672 39.7489V39.5635M1.92672 39.7489H2.11214V39.5635H2.29744V39.7489H2.48274V39.5635H2.66815L2.85345 39.7489L3.03886 39.9343M3.03886 39.9343H2.85345M3.03886 39.9343H3.22416M3.22416 39.9343H3.40946M3.22416 39.9343V39.7489H3.40946V39.9343M3.22416 39.9343L3.03886 39.7489V39.5635H2.85345V39.3781M3.40946 39.9343H3.59487M3.59487 39.9343V40.1197M3.59487 39.9343H3.78017V40.1197M2.85345 39.3781V39.1927H3.03886V39.3781M2.85345 39.3781H3.03886M3.03886 39.3781H3.22416H3.40946H3.59487M3.59487 39.3781V39.5635H3.78017V39.3781M3.59487 39.3781H3.78017M3.59487 39.3781L3.40946 39.1927H3.22416V39.0073V38.8219H3.40946M3.78017 39.3781L3.96558 39.5635M3.78017 39.3781H3.96558V39.5635M3.96558 39.5635V39.7489H4.15088M3.96558 39.5635L4.15088 39.7489M4.15088 39.7489H4.33618M3.40946 38.8219V38.6365H3.59487M3.40946 38.8219L3.59487 38.6365M3.40946 38.8219H3.59487M3.59487 38.6365V38.8219M3.59487 38.8219H3.78017V39.0073H3.96558V38.8219H4.15088H4.33618V38.6365H4.5216M4.5216 38.6365V38.8219M4.5216 38.6365H4.70689H4.89231M4.5216 38.6365V38.4511H4.70689H4.89231L5.07761 38.2657M5.07761 38.2657V38.4511M5.07761 38.2657H5.26291V38.0803H5.44832H5.63362V38.2657H5.81903H6.00433L5.81903 38.4511V38.6365M5.81903 38.6365V38.8219M5.81903 38.6365H6.00433M6.00433 38.6365V38.8219M6.00433 38.6365L6.18963 38.4511H6.37504H6.56034M6.56034 38.4511H6.74575H6.93105M6.56034 38.4511L6.74575 38.2657V38.0803H6.93105V37.8949H7.11635M7.11635 37.8949V38.0803M7.11635 37.8949H7.30177H7.48707H7.67248H7.85778H8.04308H8.22849M8.22849 37.8949L8.04308 38.0803H8.22849M8.22849 37.8949V38.0803M8.22849 37.8949H8.41379M8.22849 37.8949V37.7095H8.41379V37.5241H8.5992H8.7845M8.22849 38.0803V38.2657M8.7845 37.5241V37.3387M8.7845 37.5241H8.9698V37.3387H9.15521V37.5241V37.7095V37.8949M9.15521 37.8949H9.34051M9.15521 37.8949V38.0803H9.34051V38.2657V38.4511M9.34051 38.4511V38.6365V38.8219V39.0073M9.34051 38.4511H9.52593V38.2657V38.0803H9.71123V38.2657M9.34051 39.0073H9.15521M9.34051 39.0073V39.1927H9.52593V39.3781M9.34051 39.0073H9.52593M9.71123 38.2657H9.89652V38.0803M9.71123 38.2657V38.4511H9.89652V38.6365H10.0819V38.8219H10.2672M10.2672 38.8219V39.0073V39.1927M10.2672 38.8219H10.4526H10.6379M10.2672 38.8219V38.6365V38.4511M10.2672 39.1927H10.0819M10.2672 39.1927H10.4526V39.3781M10.2672 38.4511V38.2657M10.2672 38.4511L10.4526 38.2657M10.2672 38.2657H10.0819L10.2672 38.0803M10.2672 38.2657V38.0803M10.2672 38.2657H10.4526M10.2672 38.0803L10.4526 38.2657M10.2672 38.0803V37.8949H10.4526V37.7095M10.4526 37.7095V37.5241M10.4526 37.7095H10.6379V37.5241H10.8232V37.7095H11.0087H11.194M11.194 37.7095V37.5241M11.194 37.7095H11.3794H11.5647H11.75V37.8949H11.9354H12.1207H12.3061V38.0803H12.4914M12.4914 38.0803L12.3061 38.2657M12.4914 38.0803V38.2657H12.3061M12.4914 38.0803V37.8949M12.4914 38.0803H12.6767V38.2657H12.8621H13.0474V38.0803V37.8949M12.3061 38.2657V38.4511H12.1207M13.0474 37.8949H12.8621M13.0474 37.8949V37.7095V37.5241M13.0474 37.5241H12.8621M13.0474 37.5241V37.3387H13.2328M13.2328 37.3387H13.4181M13.2328 37.3387V37.1533V36.9679V36.7825H13.0474M13.0474 36.7825V36.9679H12.8621M13.0474 36.7825H12.8621M13.0474 36.7825L12.8621 36.5971H13.0474V36.4117M13.0474 36.4117H12.8621M13.0474 36.4117V36.2263L13.2328 36.4117L13.4181 36.2263V36.0409M13.4181 36.0409H13.2328M13.4181 36.0409V35.8555H13.6034M13.6034 35.8555V36.0409M13.6034 35.8555V35.6701H13.7888M13.6034 35.8555H13.7888H13.9741M13.9741 35.8555V35.6701M13.9741 35.8555H14.1595V36.0409H14.3448M14.3448 36.0409H14.5301V35.8555M14.3448 36.0409V36.2263H14.5301H14.7156H14.9009V36.0409H15.0863V35.8555L15.2716 36.0409V35.8555H15.4569V35.6701H15.6423H15.8276M15.8276 35.6701V35.8555M15.8276 35.6701H16.013H16.1983V35.4847H16.3836V35.2993H16.569V35.4847M16.569 35.4847H16.7543M16.569 35.4847V35.6701H16.7543V35.8555M16.7543 35.8555V36.0409M16.7543 35.8555L16.9397 35.6701H17.125V35.4847H17.3103M16.7543 36.0409H16.569V36.2263M16.7543 36.0409V36.2263H16.569M16.569 36.2263H16.3836M16.569 36.2263V36.4117M16.569 36.4117H16.3836H16.1983M16.569 36.4117V36.5971V36.7825M16.569 36.7825H16.3836V36.9679H16.1983H16.013L16.1983 37.1533M16.569 36.7825H16.7543M17.3103 35.4847V35.2993M17.3103 35.4847L17.4957 35.2993H17.681H17.8664M17.8664 35.2993V35.1139H18.0517V34.9285M17.8664 35.2993H18.0517V35.4847L17.8664 35.2993ZM17.8664 35.2993V35.4847V35.6701M17.8664 35.6701H17.681L17.8664 35.8555M17.8664 35.6701V35.8555M17.8664 35.8555H17.681M17.8664 35.8555H18.0517V36.0409M17.8664 35.8555V36.0409M17.8664 36.0409V36.2263M17.8664 36.0409H18.0517M17.8664 36.2263H17.681L17.8664 36.4117M17.8664 36.2263V36.4117M17.8664 36.4117H17.681V36.5971M17.8664 36.4117V36.5971H17.681M17.681 36.5971H17.4957V36.7825M17.681 36.5971V36.7825H17.4957M17.4957 36.7825V36.9679H17.3103V37.1533V37.3387H17.4957M17.4957 37.3387V37.5241H17.3103M17.4957 37.3387H17.681V37.5241H17.8664M18.0517 36.0409L18.237 35.8555V36.0409H18.4225M18.4225 36.0409V35.8555M18.4225 36.0409L18.6077 35.8555V36.0409V36.2263M18.6077 36.2263H18.7932M18.6077 36.2263V36.4117H18.4225M18.4225 36.4117H18.237V36.5971L18.4225 36.4117ZM18.4225 36.4117V36.5971M18.4225 36.5971H18.6077V36.7825M18.4225 36.5971L18.6077 36.7825M18.6077 36.7825H18.7932H18.9785H19.1638M19.1638 36.7825V36.5971M19.1638 36.7825L19.3492 36.9679M19.3492 36.9679H19.5345M19.3492 36.9679V37.1533V37.3387V37.5241H19.5345V37.7095H19.7199H19.9052V37.8949V38.0803H20.0905V38.2657H20.2759V38.4511H20.4612M20.4612 38.4511H20.6466V38.6365L20.4612 38.4511ZM20.4612 38.4511V38.6365V38.8219V39.0073H20.6466V39.1927H20.4612V39.3781H20.6466L20.8319 39.5635H21.0172V39.7489H21.2026L21.3879 39.9343M21.3879 39.9343V39.7489M21.3879 39.9343H21.5733V40.1197M21.5733 40.1197H21.3879M21.5733 40.1197V40.3051M21.5733 40.3051H21.3879M21.5733 40.3051V40.4905H21.7586V40.6759V40.8613H21.9439V40.6759V40.4905V40.3051H22.1293L22.3146 40.4905V40.3051M22.3146 40.3051H22.5001V40.4905M22.3146 40.3051V40.1197H22.5001H22.6854V39.9343L22.8707 39.7489V39.5635H23.0561V39.3781M23.0561 39.3781H23.2414M23.0561 39.3781L23.2414 39.1927V39.3781M23.2414 39.3781L23.4268 39.1927H23.6121H23.7974V39.0073H23.9828V38.8219V38.6365M23.9828 38.6365H23.7974M23.9828 38.6365V38.4511H24.1681H24.3535L24.5388 38.6365M24.5388 38.6365V38.8219M24.5388 38.6365H24.7241V38.4511H24.9095H25.0948V38.2657H25.2802L25.4655 38.0803M25.4655 38.0803V37.8949M25.4655 38.0803H25.6508M25.4655 38.0803V38.2657H25.6508H25.8362L25.6508 38.4511M25.6508 38.4511H25.8362M25.6508 38.4511V38.6365V38.8219M25.6508 38.8219H25.4655H25.2802V39.0073H25.4655V39.1927L25.6508 39.0073V38.8219ZM25.6508 38.8219L25.8362 39.0073V38.8219V38.6365H26.0215H26.207V38.8219V39.0073H26.3923V39.1927V39.3781H26.5776V39.5635M26.5776 39.5635V39.7489M26.5776 39.5635L26.763 39.3781M26.5776 39.7489H26.3923M26.5776 39.7489V39.9343M26.3923 39.7489V39.9343H26.5776M26.3923 39.7489L26.5776 39.9343M26.763 39.3781V39.1927M26.763 39.3781V39.5635H26.9483L27.1337 39.3781H26.9483V39.1927H27.1337V39.0073H27.319M27.319 39.0073V39.1927H27.5043M27.319 39.0073V38.8219M27.319 39.0073L27.1337 38.8219H27.319M27.319 38.8219V38.6365M27.319 38.8219L27.5043 38.6365H27.6897V38.8219H27.875V38.6365H28.0604H28.2457V38.8219M28.2457 38.8219H28.0604M28.2457 38.8219H28.431M28.431 38.8219V39.0073M28.431 38.8219V38.6365V38.4511H28.6164V38.2657H28.8017V38.0803M28.431 39.0073H28.2457V39.1927H28.431M28.431 39.0073H28.6164V39.1927M28.431 39.1927V39.3781H28.6164M28.431 39.1927L28.6164 39.3781M28.431 39.1927H28.6164M28.6164 39.3781V39.5635M28.6164 39.3781H28.8017M28.6164 39.3781V39.1927M28.6164 39.5635H28.8017M28.6164 39.5635V39.7489M28.8017 39.5635V39.7489H28.9871M28.8017 39.5635V39.3781M28.8017 39.5635H28.9871M28.6164 39.7489H28.431M28.6164 39.7489V39.9343H28.8017M28.8017 39.9343V40.1197H28.9871M28.8017 39.9343H28.9871M28.9871 40.1197V40.3051M28.9871 40.1197H29.1724V40.3051V40.4905H28.9871M28.9871 40.1197V39.9343M28.9871 40.3051H28.8017V40.4905M28.9871 40.3051V40.4905M28.8017 40.4905H28.6164M28.8017 40.4905V40.6759M28.8017 40.6759V40.8613H28.6164M28.8017 40.6759L28.9871 40.4905M28.9871 39.9343V39.7489M28.9871 39.7489L29.1724 39.5635M28.9871 39.7489H29.1724V39.5635M28.8017 39.3781H28.9871V39.5635M28.9871 39.5635H29.1724M28.8017 38.0803V37.8949M28.8017 38.0803H28.9871M28.9871 38.0803V37.8949H29.1724M28.9871 38.0803H29.1724V37.8949M29.1724 37.8949L29.3577 38.0803M29.1724 37.8949H29.3577M29.3577 37.8949V37.7095M29.3577 37.8949H29.5431H29.7284V37.7095H29.9138M29.9138 37.7095V37.8949M29.9138 37.7095H30.0991M30.0991 37.7095V37.5241H30.2844V37.7095H30.0991ZM30.0991 37.7095V37.8949H30.2844V38.0803H30.0991V38.2657H29.9138V38.4511M29.9138 38.4511H30.0991M29.9138 38.4511V38.6365L30.0991 38.8219V39.0073H30.2844L30.4699 39.1927H30.6552H30.8406H31.0259H31.2112H31.3966H31.5819H31.7673H31.9526L32.3233 39.0073L32.8793 38.8219H33.25H33.4353V39.0073H33.6207H33.806H33.9913M33.9913 39.0073V38.8219M33.9913 39.0073H34.1768V38.8219H34.3621V38.6365H34.5475H34.7328H34.9181M34.9181 38.6365V38.8219H35.1035V38.6365H34.9181ZM34.9181 38.6365L34.7328 38.4511H34.5475V38.2657M34.5475 38.2657H34.7328V38.0803H34.5475V38.2657ZM34.5475 38.2657H34.3621H34.1768M34.1768 38.2657V38.4511M34.1768 38.2657H33.9913V38.0803H33.806V37.8949H33.6207M33.6207 37.8949V38.0803M33.6207 37.8949H33.4353V37.7095V37.5241V37.3387H33.25H33.0646V37.1533H32.8793V36.9679V36.7825V36.5971V36.4117V36.2263V36.0409V35.8555H32.694V35.6701M32.694 35.6701L32.5086 35.8555V35.6701H32.694ZM32.694 35.6701V35.4847H32.8793V35.2993V35.1139V34.9285V34.7431V34.5577V34.3723H33.0646M33.0646 34.3723V34.1869M33.0646 34.3723V34.5577M33.0646 34.3723H33.25V34.1869H33.0646M33.0646 34.1869V34.0015V33.8161V33.6307V33.4453V33.2599V33.0745V32.8891M33.0646 32.8891L33.25 32.7037M33.0646 32.8891V32.7037H33.25M33.0646 32.8891H32.8793V33.0745V33.2599H32.694V33.0745V32.8891V32.7037L32.5086 32.5182V32.3328V32.1474M33.25 32.7037H33.4353V32.8891H33.6207M32.5086 32.1474H32.694M32.5086 32.1474V31.962V31.7766V31.5912L32.694 31.4058V31.2204V31.035V30.8496V30.6642L32.5086 30.4788V30.2934V30.108V29.9226M32.5086 29.9226H32.694M32.5086 29.9226V29.7372L32.3233 29.9226M32.694 29.9226H32.8793M32.694 29.9226V29.7372M32.3233 29.9226V30.108M32.3233 29.9226H32.1379V29.7372V29.5518H31.9526V29.3664V29.181L31.7673 28.9956V28.8102M31.7673 28.8102L31.9526 28.9956V28.8102H31.7673ZM31.7673 28.8102V28.6248H31.5819V28.4394V28.254M31.5819 28.254H31.7673H31.9526M31.5819 28.254V28.0686M31.5819 28.254H31.3966M31.5819 28.0686H31.3966M31.5819 28.0686L31.3966 28.254M31.3966 28.254L31.2112 28.0686V27.8832H31.0259V27.6978M31.0259 27.6978H30.8406V27.5124M31.0259 27.6978L30.8406 27.5124M31.0259 27.6978V27.5124H30.8406M30.8406 27.5124H30.6552M30.6552 27.5124V27.6978M30.6552 27.5124H30.4699V27.327V27.1416V26.9562V26.7708V26.5854V26.4H30.2844V26.2146V26.0292M30.2844 26.0292H30.0991M30.2844 26.0292L30.0991 25.8438H30.2844L30.0991 25.6584V25.473H29.9138V25.2876H29.7284V25.1022L29.9138 24.9168H30.0991V24.7314V24.546H30.2844V24.3606V24.1752V23.9898H30.0991V23.8044V23.619V23.4336H29.9138V23.2482H29.7284V23.0628H29.5431H29.3577H29.1724V22.8774L29.3577 22.692H29.1724V22.5066V22.3212V22.1358H29.3577H29.5431V22.3212H29.7284V22.5066H29.9138V22.3212H30.0991H30.2844V22.5066V22.692H30.4699H30.6552V22.8774H30.8406H31.0259H31.2112H31.3966H31.5819V23.0628H31.7673M31.7673 23.0628H31.9526M31.7673 23.0628V23.2482H31.9526H32.1379M32.1379 23.2482H32.3233M32.1379 23.2482V23.4336M32.1379 23.2482L32.3233 23.4336M32.3233 23.2482H32.5086M32.3233 23.2482V23.4336M32.5086 23.2482V23.4336H32.3233M32.5086 23.2482H32.694M32.694 23.2482V23.4336M32.694 23.2482H32.8793H33.0646H33.25H33.4353H33.6207V23.0628H33.806V22.8774V22.692H33.9913H34.1768V22.5066H34.3621H34.5475H34.7328H34.9181H35.1035H35.2888V22.692H35.4742H35.6595H35.8448V22.8774V23.0628H36.0302V23.2482H36.2155V23.4336V23.619V23.8044V23.9898H36.0302V24.1752H35.8448V24.3606M35.8448 24.3606H36.0302M35.8448 24.3606V24.546M35.8448 24.3606H35.6595L35.4742 24.546V24.7314V24.9168V25.1022L35.6595 25.2876L35.8448 25.473V25.6584L36.0302 25.8438V26.0292H36.2155V26.2146L36.4009 26.4L36.5862 26.5854L36.7715 26.7708V26.9562L36.9569 27.1416V27.327V27.5124H36.7715V27.6978V27.8832M36.7715 27.8832V28.0686H36.5862V28.254M36.7715 27.8832H36.9569V27.6978L37.1422 27.8832H37.3276M37.3276 27.8832V28.0686L37.5129 27.8832H37.3276ZM37.3276 27.8832V27.6978H37.5129V27.5124H37.6982V27.327H37.8836H38.0689H38.2544H38.4397V27.1416L38.625 27.327V27.1416L38.8104 27.327V27.1416H38.9957V27.327H39.1811H39.3664V27.5124H39.5517H39.7371V27.6978H39.9224H40.1078L40.2931 27.8832H40.4784H40.6638H40.8491H41.0345H41.2198V28.0686H41.4051M41.4051 28.0686V27.8832M41.4051 28.0686H41.5905H41.7758H41.9613H42.1466H42.3319H42.5173H42.7026H42.888H43.0733H43.2586H43.444H43.6293H43.8147H44L44.1853 28.254L44.3707 28.0686V28.254H44.556H44.7414L44.9267 28.4394H45.112V28.6248H45.2974H45.4827V28.8102H45.6681H45.8534H46.0387V28.9956H46.2242H46.4095H46.5949H46.7802L46.9655 28.8102H47.1509H47.3362H47.5216L47.7069 28.6248H47.8922L48.0776 28.4394H48.2629L48.4483 28.254L48.6336 28.0686H48.8189L49.0043 27.8832L49.1896 27.6978L49.375 27.5124L49.5603 27.327L49.7456 27.1416H49.9311L50.1164 26.9562H50.3018H50.4871V26.7708H50.6724H50.8578H51.0431H51.2285H51.4138H51.5991H51.7845V26.5854M51.7845 26.5854H51.9698H52.1552M51.7845 26.5854H51.5991H51.4138H51.2285H51.0431V26.4H50.8578H50.6724H50.3018H50.1164H49.9311L49.5603 26.2146V26.0292L49.375 25.8438V25.6584H49.1896V25.473V25.2876V25.1022V24.9168H49.375V24.7314V24.546H49.5603V24.3606V24.1752H49.7456V23.9898V23.8044L49.9311 23.619V23.4336V23.2482M49.9311 23.2482V23.0628H49.7456H49.5603M49.9311 23.2482H50.1164V23.0628V22.8774V22.692H50.3018V22.5066H50.4871V22.3212H50.6724H50.8578L51.0431 22.1358H51.2285V21.9504H51.4138H51.5991H51.7845V21.765H51.9698L52.1552 21.5796H52.3405V21.3942H52.5258H52.7112V21.2088H52.8965V21.0234H53.0819H53.2672V20.838H53.4525H53.6379V20.6526L53.8232 20.4672H54.0087V20.2818H54.194H54.3793H54.5647V20.0964H54.75H54.9354H55.1207H55.306V19.9109H55.4914M55.4914 19.9109V20.0964M55.4914 19.9109H55.6767H55.8621H56.0474H56.2327H56.4181V19.7255H56.6034H56.7888H56.9741V19.5401H57.1594H57.3448H57.5301L57.7156 19.3547H57.9009V19.1693H58.0862H58.2716H58.4569V19.3547H58.6423L58.8276 19.1693H59.0129L59.1983 18.9839H59.3836H59.569V18.7985H59.7543L59.9396 18.6131H60.125V18.4277H60.3103H60.4957V18.2423M60.4957 18.2423H60.3103M60.4957 18.2423H60.681V18.0569H60.8663V17.8715H61.0517V17.6861H61.237V17.5007H61.4225H61.6077V17.3153L61.793 17.1299H61.9785M61.9785 17.1299V16.9445H62.1638M61.9785 17.1299H62.1638V16.9445M62.1638 16.9445V16.7591H62.3492H62.5345V16.5737H62.7198V16.3883H62.9052V16.2029V16.0175L63.0905 15.8321V15.6467V15.4613V15.2759H63.2759V15.0905L63.4612 14.9051V14.7197H63.6465H63.8319H64.0172M64.0172 14.7197V14.5343M64.0172 14.7197V14.9051V15.0905H64.2026H64.3879H64.5732H64.7586V15.2759H64.9439H65.1293V15.0905V14.9051V14.7197H64.9439H64.7586M64.7586 14.7197V14.5343M64.7586 14.7197H64.5732V14.5343H64.3879V14.3489L64.2026 14.1635V13.9781H64.0172H63.8319H63.6465V13.7927V13.6073V13.4219L63.8319 13.2365V13.0511V12.8657V12.6803V12.4949V12.3095H64.0172V12.4949H64.2026H64.3879L64.5732 12.3095M64.5732 12.3095V12.4949H64.7586V12.6803M64.5732 12.3095H64.3879V12.1241H64.2026M64.2026 12.1241H64.0172M64.2026 12.1241V11.9387H64.0172L63.8319 11.7533L64.0172 11.5679V11.3825V11.1971V11.0117V10.8263V10.6409V10.4555V10.2701V10.0847V9.89927H64.2026V9.71387M64.2026 9.71387V9.52847M64.2026 9.71387L64.3879 9.89927M64.3879 9.89927V9.71387M64.3879 9.89927H64.5732M64.3879 9.71387H64.5732V9.89927M64.3879 9.71387V9.52847V9.34307H64.2026V9.15766H64.0172V8.97226H64.2026L64.0172 8.78686V8.60146V8.41606V8.23066V8.04526V7.85985V7.67445V7.48905V7.30365V7.11825V6.93285V6.74745H64.2026M64.5732 9.89927V10.0847H64.7586M64.5732 9.89927L64.7586 10.0847M64.7586 10.0847H64.9439M64.9439 10.0847L65.1293 10.2701M64.9439 10.0847H65.1293V10.2701M65.1293 10.2701H65.3146M64.2026 6.74745V6.56204M64.2026 6.74745H64.3879L64.2026 6.56204M64.2026 6.56204V6.37664L64.3879 6.19124V6.00584V5.82044V5.63504V5.44964L64.2026 5.26423V5.07883V4.89343V4.70803H64.0172L64.2026 4.52263V4.33723H64.3879M64.3879 4.33723V4.52263M64.3879 4.33723H64.5732H64.7586V4.15182H64.9439L65.1293 3.96642V3.78102H65.3146V3.59562L65.4999 3.41022H65.6854V3.22482H65.8707H66.0561V3.03942H66.2414H66.4267H66.6121V2.85401H66.7974M66.7974 2.85401V3.03942M66.7974 2.85401H66.9828V2.66861M66.9828 2.66861H66.7974M66.9828 2.66861H67.1681V2.85401H67.3534V2.66861H67.5388H67.7241H67.9095M67.9095 2.66861V2.48321M67.9095 2.66861L68.0948 2.48321H68.2801H68.4655H68.6508L68.8362 2.29781H69.0215H69.2068M69.2068 2.29781H69.3923M69.2068 2.29781V2.11241L69.3923 2.29781M69.3923 2.29781V2.48321H69.5776M69.3923 2.29781H69.5776V2.11241H69.763M69.5776 2.48321L69.3923 2.66861H69.5776V2.48321ZM69.763 2.11241V1.92701L69.9483 1.74161H70.1336M69.763 2.11241H69.9483M69.9483 2.11241V2.29781H70.1336V2.11241M69.9483 2.11241H70.1336M70.1336 2.11241V1.92701V1.74161M70.1336 1.74161H70.319V1.92701H70.5043L70.6897 1.74161H70.875L71.2457 1.5562H71.431H71.6164H71.8017H71.987M71.987 1.5562V1.74161M71.987 1.5562H72.1724H72.3577H72.5431L72.7284 1.3708H72.9137H73.0991V1.1854H73.2844H73.4699V1H73.6552L73.8405 1.3708V1.5562V1.74161L74.0259 2.11241V2.29781V2.48321H74.2112L74.3966 2.66861M74.3966 2.66861H74.2112M74.3966 2.66861V2.85401V3.03942L74.5819 3.22482H74.3966V3.41022L74.2112 3.59562V3.78102M74.2112 3.78102H74.3966M74.2112 3.78102V3.96642H74.3966L74.2112 4.15182V4.33723H74.3966V4.52263L74.2112 4.70803H74.3966V4.89343L74.5819 5.07883V5.26423H74.7672H74.9526H75.1379H75.3233L75.5086 5.44964V5.63504V5.82044H75.6939V6.00584H75.8793V6.19124M75.8793 6.19124H75.6939M75.8793 6.19124V6.37664L76.0646 6.19124V6.37664V6.56204V6.74745H76.25V6.93285L76.4353 6.74745M76.4353 6.74745V6.93285M76.4353 6.74745H76.6206H76.806V6.93285L76.9913 7.11825V6.93285L77.1768 7.11825V7.30365L77.3621 7.11825V6.93285H77.5474V6.74745V6.56204M77.5474 6.56204H77.7328M77.5474 6.56204V6.37664H77.7328M77.7328 6.37664V6.19124M77.7328 6.37664H77.9181V6.19124H78.1035H78.2888V6.00584H78.4741H78.6595V5.82044H78.8448L79.0302 6.00584L79.2155 5.82044V5.63504H79.4008V5.82044H79.5862V5.63504H79.7715V5.82044V6.00584L79.9569 6.19124V6.37664V6.56204H80.1422V6.74745H80.3275V6.93285M80.3275 6.93285H80.1422M80.3275 6.93285H80.5129H80.6982V7.11825V7.30365V7.48905M80.6982 7.48905H80.8836M80.6982 7.48905L80.5129 7.67445L80.6982 7.85985V8.04526V8.23066V8.41606H80.8836V8.60146V8.78686V8.97226H81.0689V9.15766M81.0689 9.15766H80.8836L81.0689 9.34307M81.0689 9.15766V9.34307M81.0689 9.34307H80.8836V9.52847M80.8836 9.52847H81.0689M80.8836 9.52847V9.71387H81.0689V9.89927H81.2542H81.4397V10.0847H81.625H81.8104V10.2701L81.9957 10.4555V10.2701H82.181H82.3664V10.0847H82.5517H82.7371V9.89927L82.9224 9.71387H83.1077H83.2931V9.89927V10.0847H83.1077V10.2701V10.4555H83.2931V10.2701H83.4784H83.6638H83.8491L84.0344 10.4555V10.2701H84.2198V10.4555H84.4051V10.6409H84.5905V10.8263H84.7758V11.0117V11.1971V11.3825V11.5679V11.7533M84.7758 11.7533H84.9611M84.7758 11.7533V11.9387M84.7758 11.9387H84.9611M84.7758 11.9387V12.1241V12.3095V12.4949V12.6803H84.9611L84.7758 12.8657H84.9611V13.0511H85.1466M85.1466 13.0511V13.2365H85.3319M85.1466 13.0511L85.3319 13.2365M85.1466 13.0511H85.3319M85.3319 13.2365V13.0511M85.3319 13.2365H85.5173M85.3319 13.0511H85.5173M85.3319 13.0511V12.8657H85.5173V12.6803V12.4949H85.7026M85.7026 12.4949V12.6803M85.7026 12.4949H85.8879H86.0733H86.2586V12.6803H86.444V12.4949H86.6293V12.6803H86.8146H87V12.8657H87.1853H87.3707L87.556 12.6803L87.7413 12.4949V12.6803H87.9267H88.112V12.4949H88.2974H88.4827V12.6803H88.668V12.8657H88.8534V13.0511V13.2365H89.0387M89.0387 13.2365V13.0511M89.0387 13.2365H89.2242V13.4219H89.4095V13.6073H89.2242L89.4095 13.7927V13.9781H89.5948H89.7802V13.7927M89.7802 13.7927H89.5948V13.6073H89.7802V13.7927ZM89.7802 13.7927H89.9655H90.1509V13.9781H90.3362V14.1635H90.1509V14.3489H89.9655L89.7802 14.5343V14.7197H89.5948V14.9051M89.5948 14.9051H89.7802M89.5948 14.9051V15.0905V15.2759V15.4613V15.6467H89.4095V15.8321V16.0175H89.5948V15.8321H89.7802V16.0175H89.9655M89.9655 16.0175V15.8321H90.1509V16.0175M89.9655 16.0175H90.1509M90.1509 16.0175V16.2029L89.9655 16.3883H90.1509V16.5737H90.3362V16.7591V16.9445V17.1299H90.1509H89.9655V17.3153H89.7802H89.5948V17.5007L89.4095 17.6861V17.8715H89.5948M89.5948 17.8715V18.0569M89.5948 17.8715L89.7802 18.0569H89.5948M89.5948 18.0569V18.2423H89.4095L89.5948 18.4277H89.7802H89.9655H90.1509L89.9655 18.6131H90.1509H90.3362H90.5215H90.7069V18.4277L90.8922 18.6131H91.0776V18.4277H91.2629V18.6131H91.4482H91.6336V18.7985H91.8189M91.8189 18.7985V18.6131M91.8189 18.7985H92.0043H92.1896H92.3749V18.9839H92.5603L92.9311 18.7985H93.1164H93.3017V18.6131H93.4871V18.4277H93.6724L93.8578 18.2423H94.0431H94.2284H94.4138V18.0569H94.5991H94.7845H94.9698V17.8715V17.6861V17.5007V17.3153V17.1299V16.9445M94.9698 16.9445H94.7845M94.9698 16.9445V16.7591V16.5737H95.1551V16.3883H95.3405L95.5258 16.2029V16.0175L95.7112 15.8321H95.8965L96.0818 15.6467L96.2672 15.4613V15.6467H96.4525H96.6379H96.8232V15.8321H97.0085V16.0175H96.8232H96.6379V16.2029H96.8232V16.3883H96.6379M96.6379 16.3883V16.5737H96.8232M96.6379 16.3883H96.4525V16.5737V16.7591V16.9445H96.2672V17.1299V17.3153H96.4525V17.5007H96.2672V17.6861V17.8715V18.0569H96.0818V18.2423H95.8965V18.4277V18.6131H96.0818L96.2672 18.7985H96.4525H96.6379V18.9839V19.1693H96.8232V19.3547M96.8232 19.3547H97.0085M96.8232 19.3547V19.5401V19.7255H96.6379V19.9109M96.6379 19.9109H96.8232M96.6379 19.9109V20.0964H96.4525V20.2818H96.6379V20.4672V20.6526H96.8232V20.838H96.6379V21.0234V21.2088M96.6379 21.2088H96.4525M96.6379 21.2088H96.8232H97.0085H97.194H97.3793H97.5647V21.0234H97.75H97.9353V21.2088H98.1207V21.3942H98.306V21.5796H98.4914H98.6767H98.862L99.0474 21.765V21.9504H99.2327V22.1358V22.3212H99.4181M99.4181 22.3212V22.5066M99.4181 22.3212H99.6034V22.5066V22.692H99.7887H99.9741H100.159M100.159 22.692V22.8774M100.159 22.692H100.345V22.8774H100.53V22.692H100.715V22.8774H100.901V23.0628H101.086L101.272 23.2482V23.4336H101.086V23.619V23.8044V23.9898H101.272V23.8044H101.457V23.619L101.642 23.8044H101.828H102.013V23.9898L102.198 24.1752V24.3606H102.384V24.546H102.569V24.7314H102.384V24.9168H102.569V25.1022V25.2876H102.384V25.473H102.569V25.6584H102.754V25.473H102.94H103.125H103.31V25.2876H103.496H103.681H103.866V25.473H104.052L104.237 25.2876H104.052L104.237 25.1022V24.9168H104.422H104.608H104.793H104.978V25.1022H105.164V24.9168H105.349V25.1022H105.534V24.9168V24.7314H105.72L105.905 24.9168H106.09V25.1022H106.276M106.276 25.1022V24.9168M106.276 25.1022L106.461 25.2876H106.276V25.473H106.461V25.6584H106.646H106.832H107.017H107.203H107.388V25.8438H107.573V26.0292V26.2146H107.759V26.4H107.944H108.129H108.315V26.2146H108.5H108.685V26.4H108.871V26.2146V26.0292H109.056H109.241V25.8438M109.241 25.8438V25.6584M109.241 25.8438H109.427H109.612L109.427 25.6584L109.612 25.473H109.797V25.6584L109.983 25.473H110.168H110.353H110.539V25.6584H110.724V25.8438H110.909V26.0292H111.095H111.28V26.2146H111.466M111.466 26.2146H111.651M111.466 26.2146V26.0292L111.651 26.2146M111.651 26.2146H111.836H112.022V26.0292H112.207V26.2146H112.392H112.578V26.4H112.763H112.948V26.5854H113.134L113.319 26.7708M113.319 26.7708V26.5854M113.319 26.7708V26.9562M113.319 26.9562L113.504 26.7708V26.9562H113.319ZM113.319 26.9562V27.1416V27.327H113.504H113.69V27.5124V27.6978H113.875V27.8832H113.69H113.504V28.0686H113.69V28.254M113.69 28.254H113.875M113.69 28.254V28.4394H113.875V28.6248H114.06L114.246 28.8102H114.431V28.9956M114.431 28.9956H114.616M114.431 28.9956V29.181M114.431 29.181H114.616M114.431 29.181V29.3664H114.616L114.802 29.5518M114.802 29.5518H114.616M114.802 29.5518V29.7372V29.9226H114.987L115.172 30.108L114.987 30.4788V30.6642H115.172V30.8496L115.358 30.6642H115.543H115.728V30.8496H115.914H116.099V31.035L116.284 30.8496V30.6642H116.47V30.4788L116.284 30.2934V30.108V29.9226H116.47H116.655V30.108H116.84V29.9226H117.026H117.211L117.396 30.108H117.582H117.767V30.2934H117.953M117.953 30.2934V30.4788M117.953 30.2934L118.138 30.4788M118.138 30.4788V30.2934M118.138 30.4788V30.6642V30.8496V31.035H118.323V31.2204V31.4058V31.5912H118.509V31.4058L118.694 31.2204V31.035V30.8496H118.879V31.035V31.2204H119.065M119.065 31.2204V31.035M119.065 31.2204H119.25V31.4058H119.435V31.2204H119.621L119.806 31.4058M119.806 31.4058H119.621M119.806 31.4058V31.5912M119.806 31.4058H119.991H120.177V31.2204L120.362 31.4058H120.547H120.733M120.733 31.4058V31.5912M120.733 31.4058H120.918V31.2204V31.035H121.103H121.289H121.474V30.8496V30.6642H121.659V30.4788H121.845H122.215V30.6642M122.215 30.6642H122.03M122.215 30.6642V30.8496M122.215 30.6642H122.401M122.401 30.6642V30.8496M122.401 30.6642H122.586H122.772V30.8496V31.035H122.586V31.2204H122.772V31.4058H122.957V31.5912H123.142V31.7766V31.962H123.328H123.513H123.698H123.884V32.1474H124.069V32.3328V32.5182H124.254H124.44H124.625M124.625 32.5182H124.81M124.625 32.5182V32.3328H124.81V32.5182M124.81 32.5182H124.996M124.996 32.5182V32.3328M124.996 32.5182H125.181H125.366H125.552V32.3328H125.737H125.922V32.5182H126.108H126.293V32.7037H126.478V32.5182H126.664H126.849V32.7037L127.034 32.5182V32.3328H127.22V32.5182H127.405V32.7037V32.8891H127.59H127.776H127.961H128.147V33.0745H128.332V33.2599H128.517V33.4453H128.703H128.888H129.073V33.6307H129.259H129.444H129.629V33.8161M129.629 33.8161H129.815M129.629 33.8161V34.0015V34.1869H129.444V34.3723L129.259 34.5577L129.073 34.7431V34.9285V35.1139H128.888V35.2993V35.4847V35.6701L128.703 35.8555V36.0409V36.2263H128.517V36.4117H128.332H128.147H127.961V36.5971V36.7825H127.776V36.9679L127.59 36.7825H127.405V36.9679V37.1533V37.3387V37.5241L127.22 37.7095H127.034L126.664 38.2657V38.4511H126.478H126.293V38.6365H126.108V38.8219V39.0073H125.922V39.1927L125.737 39.3781V39.5635V39.7489V39.9343V40.1197V40.3051V40.4905V40.6759L125.552 40.8613H125.366V41.0467V41.2321V41.4175V41.6029V41.7883H125.181V41.9737V42.1591L124.996 42.3445V42.5299V42.7153H125.181V42.9007V43.0861V43.2715V43.4569H124.996L124.81 43.6423H124.625V43.8277V44.0131V44.1985V44.3839L124.44 44.5693V44.9401L124.254 45.1255L124.069 45.3109V45.4964L123.884 45.6818V45.8672H123.698V46.0526V46.238L123.513 46.4234V46.6088V46.7942V46.9796V47.165V47.3504V47.5358V47.7212V47.9066L123.698 48.092H123.884V48.2774V48.4628H124.069V48.6482H123.884V48.8336L123.698 49.2044H123.513V49.3898V49.5752V49.7606V49.946H123.328V50.1314V50.3168V50.5022V50.6876V50.873L123.142 51.0584V51.2438V51.4292V51.6146V51.8L123.328 51.9854V52.1708H123.142V52.3562V52.5416H122.957V52.727V52.9124V53.0978V53.2832H123.142V53.4686H123.328V53.654H123.513V53.8394L123.698 54.0248V54.2102V54.3956H123.513L123.328 54.581L123.142 54.7664H122.957V54.9518H122.772V55.1372H122.957H123.142L122.957 55.3226H122.772L122.957 55.508H122.772L122.957 55.6934H122.772V55.8788H122.586H122.401V55.6934H122.215H122.03V55.8788H122.215L122.401 56.0642H122.215L122.03 56.2496V56.435H121.845H121.659V56.6204H121.474H121.289V56.435H121.103H120.918H120.733M129.815 33.8161V33.6307H130V33.8161H129.815ZM120.733 56.435V56.6204M120.733 56.435L120.547 56.6204H120.362V56.8058H120.177V56.6204V56.435H119.991L119.806 56.6204V56.435H119.621H119.435L119.621 56.2496V56.0642V55.8788V55.6934M119.621 55.6934H119.806M119.621 55.6934H119.435H119.25V55.508H119.065L118.879 55.6934H118.694H118.509H118.323V55.508L118.138 55.6934V55.508H117.953H117.767V55.6934M117.767 55.6934H117.582M117.767 55.6934V55.8788V56.0642V56.2496H117.582V56.435H117.396M117.396 56.435V56.6204M117.396 56.435L117.211 56.6204V56.8058V56.9912H117.026L116.84 57.1766M116.84 57.1766H117.026M116.84 57.1766V57.362H116.655V57.5474V57.7328H116.84V57.5474L117.026 57.7328H117.211V57.5474H117.396H117.582H117.767H117.953M117.953 57.5474V57.362M117.953 57.5474H118.138H118.323V57.7328L118.509 57.9183H118.323V58.1036H118.138H117.953V58.2891V58.4745H117.767L117.582 58.6599M117.582 58.6599V58.4745M117.582 58.6599H117.396H117.211V58.8453H117.396V59.0307V59.2161M117.396 59.2161H117.211M117.396 59.2161V59.4015H117.211V59.5869H117.026V59.7723H116.84L116.655 59.9577V60.1431H116.47V60.3285H116.284V60.5139M116.284 60.5139H116.47M116.284 60.5139V60.6993H116.099V60.8847H115.914V61.0701H115.728H115.543H115.358V61.2555H115.172V61.4409H115.358L115.172 61.6263H114.987M114.987 61.6263H114.802M114.987 61.6263V61.8117H114.802V61.9971H114.987V62.1825L114.802 62.3679H114.616L114.431 62.5533L114.246 62.7387V62.9241H114.06H113.875L113.69 63.1095H113.504L113.319 63.2949H113.134H112.948H112.763L112.578 63.4803V63.6657H112.392V63.8511H112.207V64.0365L112.392 64.2219L112.578 64.4073V64.5927V64.9635H112.392V65.1489V65.3343L112.207 65.5197V65.7051L112.392 65.8905V66.0759L112.207 66.2613V66.4467H112.022H111.836V66.6321L111.651 66.8175H111.466V67.0029H111.28V67.1883H111.095L110.909 67.3737H110.724H110.539V67.5591L110.353 67.7445L110.168 67.9299L109.983 68.1153L109.797 68.3007H109.612V68.4861H109.427V68.6715H109.241V68.8569H109.056V69.0423L109.241 69.2277L109.427 69.4131V69.5985V69.7839L109.241 69.5985V69.7839H109.056V69.9693L108.871 70.1547V70.3402L108.685 70.5255V70.7109V70.8964V71.0818V71.2672H108.5L108.685 71.4526H108.871L109.056 71.638V71.4526L109.241 71.638L109.427 71.8234L109.612 72.0088L109.427 72.1942V72.3796H109.241V72.565V72.7504H109.056V72.9358V73.1212H108.871V73.3066H109.056V73.492V73.6774V73.8628H108.871V73.6774H108.685V73.8628H108.5M108.5 73.8628V73.6774M108.5 73.8628H108.315M108.315 73.8628V74.0482M108.315 73.8628H108.129V74.0482H107.944H107.759V74.2336H107.573V74.419L107.759 74.6044H107.944L107.759 74.7898V74.9752H107.573V75.1606V75.346M107.573 75.346H107.388M107.573 75.346H107.759V75.1606H107.944H108.129V75.346H108.315V75.1606H108.5H108.685H108.871H109.056L109.241 75.346V75.1606H109.427L109.612 74.9752H109.797V74.7898V74.6044H109.983V74.419H110.168V74.2336L110.353 74.419V74.2336H110.539H110.724V74.0482H110.909V73.8628V73.6774V73.492H110.724V73.6774H110.539L110.353 73.492V73.3066V73.1212V72.9358V72.7504H110.539V72.565V72.3796H110.724V72.1942H110.909V72.0088H111.095H111.28H111.466V72.1942V72.3796H111.651H111.836V72.1942H112.022H112.207V72.0088H112.392H112.578V71.8234H112.763V71.638L112.948 71.4526H113.134V71.638H113.319H113.504L113.69 71.4526H113.875H114.06H114.246H114.431H114.616H114.802H114.987H115.172H115.358H115.543V71.638H115.728H115.914V71.8234V72.0088H115.728H115.543V72.1942V72.3796H115.728V72.565H115.914V72.7504H116.099V72.9358H116.284V73.1212H116.47V73.3066V73.492V73.6774H116.284V73.8628H116.099V74.0482L115.914 74.2336V74.419V74.6044V74.7898H115.728V74.9752V75.1606V75.346H115.914H116.099H116.284V75.5314H116.47H116.655H116.84V75.7168L116.655 75.9022V76.0876M116.655 76.0876H116.84M116.655 76.0876V76.273V76.4584H116.47L116.655 76.6438H116.84L117.026 76.4584V76.273H117.211V76.4584H117.396V76.6438V76.8292H117.582V77.0146V77.2H117.767H117.953V77.3854V77.5708M117.953 77.5708H118.138M117.953 77.5708V77.7562V77.9416H118.138V78.127V78.3124M118.138 78.3124H118.323M118.138 78.3124V78.4978H117.953V78.6832H117.767V78.8686M117.767 78.8686H117.953M117.767 78.8686V79.054V79.2394L117.582 79.054V79.2394H117.396L117.211 79.4248H117.026H116.84H116.655V79.6102H116.47M116.47 79.6102V79.7956M116.47 79.6102H116.284H116.099H115.914V79.7956V79.981V80.1664V80.3518V80.5372V80.7226V80.908M115.914 80.908H116.099M115.914 80.908V81.0934V81.2788H116.099V81.4642H116.284V81.6496L116.47 81.835H116.655H116.84V82.0204H117.026V82.2058H117.211M117.211 82.2058V82.3912M117.211 82.2058H117.396H117.582V82.3912H117.767V82.5766L117.582 82.762H117.767L117.582 82.9474V83.1328H117.767V83.3183V83.5037V83.689V83.8745V84.0599H117.953L117.767 84.2453H117.953V84.4307H118.138H118.323V84.6161V84.8015H118.509H118.694H118.879V84.9869V85.1723V85.3577H119.065H119.25V85.5431H119.435V85.7285H119.621V85.9139H119.435V86.0993V86.2847V86.4701H119.25H119.065V86.6555V86.8409H118.879V87.0263H119.065V87.2117V87.3971H119.25V87.5825H119.065V87.7679H119.25L119.065 87.9533H118.879V88.1387H118.694V88.3241V88.5095H118.509V88.3241H118.323H118.138H117.953H117.767V88.5095H117.582H117.396V88.6949M117.396 88.6949H117.582M117.396 88.6949V88.8803H117.211V89.0657H117.026H116.84H116.655V89.2511V89.4365M116.655 89.4365H116.84M116.655 89.4365H116.47V89.6219H116.284V89.4365H116.099L115.914 89.2511H115.728H115.543H115.358V89.4365H115.172H114.987H114.802H114.616V89.6219H114.431V89.8073H114.246H114.06V89.9927H114.246V90.1781V90.3635H114.431V90.5489V90.7343H114.616L114.431 90.9197H114.616V91.1051H114.802H114.987H115.172H115.358V91.2905V91.4759H115.172L115.358 91.6613V91.8467H115.543V92.0321H115.358V92.2175M115.358 92.2175V92.4029M115.358 92.2175L115.543 92.4029H115.358M115.358 92.4029V92.5883V92.7737H115.543H115.728L115.543 92.9591H115.728H115.914V93.1445H116.099V93.3299H116.284H116.47V93.5153H116.655H116.84H117.026V93.3299H117.211L117.396 93.5153H117.582H117.767V93.7007H117.953V93.8861M117.953 93.8861H118.138M117.953 93.8861V94.0715V94.2569H117.767V94.4423H117.953V94.6277L118.138 94.8131H117.953V94.9985H118.138V95.1839V95.3693H118.323H118.509V95.5547V95.7401V95.9256H118.323V95.7401H118.138H117.953H117.767H117.582V95.9256H117.396V96.1109V96.2964V96.4818V96.6672M117.396 96.6672H117.582M117.396 96.6672V96.8526H117.211V97.038V97.2234V97.4088H117.026V97.5942H116.84H116.655V97.7796H116.47V97.965V98.1504V98.3358V98.5212H116.655V98.7066H116.84V98.892L117.026 99.0774V99.2628H117.211L117.396 99.4482H117.211H117.026H116.84V99.6336V99.819V100.004V100.19H116.655V100.375H116.84H117.026V100.561V100.746H117.211V100.931H117.396V101.117V101.302H117.582H117.767V101.488V101.673V101.858L117.953 102.044H118.138V102.229H118.323H118.509V102.044H118.694V102.229H118.879L119.065 102.415H119.25V102.6L119.435 102.415V102.6H119.621H119.806V102.785L119.991 102.971H120.177L120.362 103.156V103.342H120.547H120.733H120.918H121.103H121.289V103.527V103.712H121.474L121.659 103.527H121.845V103.712H122.03V103.527H122.215H122.401H122.586L122.772 103.342H122.957H123.142H123.328V103.156H123.513H123.698H123.884H124.069V102.971V102.785H124.254H124.44L124.625 102.971L124.44 103.156L124.625 103.342H124.44V103.527V103.712H124.625L124.81 103.898V104.083H124.996V104.269L124.81 104.454V104.639V104.825H124.625H124.44V105.01V105.196V105.381V105.566H124.254V105.752H124.069L123.884 105.937H123.698H123.513V106.123V106.308L123.328 106.493V106.679L123.142 106.864H122.957V107.05H122.772V107.235V107.42V107.606H122.957V107.791V107.977V108.162H123.142V108.347H122.957H122.772V108.533H122.586V108.718H122.401V108.533L122.215 108.718H122.03V108.904H121.845V109.089M121.845 109.089H122.03M121.845 109.089H121.659H121.474M121.474 109.089V109.274M121.474 109.089H121.289V109.274H121.103V109.46M121.103 109.46V109.645M121.103 109.46H120.918M121.103 109.645H121.289M121.103 109.645V109.831M121.103 109.645H120.918M120.918 109.645V109.46M120.918 109.645H120.733V109.46H120.547H120.362V109.645H120.177V109.831L119.991 110.016V110.201H119.806V110.016H119.621H119.435L119.25 110.201V110.387L119.065 110.572V110.758V110.943V111.128M120.918 109.46V109.274M119.065 111.128V111.314M119.065 111.128H119.25V111.314M119.065 111.314H119.25M119.065 111.314L119.25 111.499M119.065 111.314V111.499M119.065 111.314H118.879V111.128H118.694V111.314H118.509L118.323 111.499L118.138 111.685V111.499H117.953H117.767H117.582L117.396 111.685V111.87H117.211V112.055H117.396V112.241M119.25 111.314V111.499M119.25 111.499H119.065M119.065 111.499V111.685M117.396 112.241H117.211M117.396 112.241L117.211 112.426M117.211 112.426H117.396M117.211 112.426H117.026V112.612V112.797V112.982H116.84V113.168H116.655H116.47M116.47 113.168V112.982M116.47 113.168V113.353H116.284H116.099H115.914H115.728H115.543V113.168H115.358V113.353H115.172V113.539V113.724H114.987V113.909V114.095V114.28H114.802H114.616V114.466H114.431V114.651M114.431 114.651H114.616M114.431 114.651V114.837H114.246H114.06V115.022H113.875V115.207H113.69V115.393H113.875H114.06H114.246V115.207L114.431 115.393M114.431 115.393V115.207M114.431 115.393H114.616V115.207H114.802V115.393V115.578H114.616H114.431V115.764V115.949V116.134H114.616V116.32H114.431L114.246 116.505V116.691H114.06M114.06 116.691V116.876M114.06 116.691H113.875V116.505H113.69H113.504M113.504 116.505V116.32M113.504 116.505H113.319L113.134 116.691M113.134 116.691H113.319M113.134 116.691H112.948V116.876H112.763H112.578H112.392V117.061H112.207V116.876H112.022M112.022 116.876V117.061M112.022 116.876H111.836V117.061H111.651H111.466V117.247V117.432V117.618M111.466 117.618H111.651M111.466 117.618V117.803M111.466 117.803H111.651M111.466 117.803H111.28H111.095V117.618V117.432H110.909M110.909 117.432V117.618M110.909 117.432H110.724V117.247H110.539V117.432H110.353H110.168H109.983H109.797L109.612 117.618V117.803H109.427V117.988V118.174V118.359V118.545M109.427 118.545H109.612M109.427 118.545H109.241H109.056H108.871V118.359H109.056H109.241V118.174V117.988L109.056 117.803H108.871H108.685H108.5V117.988L108.315 117.803V117.988H108.129V117.803V117.618H107.944H107.759V117.432H107.573M107.573 117.432V117.618M107.573 117.432H107.388M107.388 117.432V117.618M107.388 117.432H107.203M107.203 117.432V117.618M107.203 117.432V117.247H107.017V117.432M107.203 117.432H107.017M107.017 117.432H106.832M106.832 117.432H106.646M106.832 117.432V117.618M106.832 117.618H106.646M106.832 117.618H107.017V117.803M107.017 117.803H106.832M107.017 117.803V117.988M107.017 117.803H107.203M107.017 117.988H107.203M107.017 117.988H106.832H106.646V118.174H106.461V118.359H106.276V118.174H106.09V117.988H105.905V117.803H106.09V117.618M107.203 117.803V117.988M107.203 117.803H107.388V117.988H107.203M106.09 117.618H105.905M106.09 117.618V117.432H105.905H105.72M105.72 117.432H105.534M105.72 117.432V117.247V117.061H105.534V117.247M105.534 117.247H105.349V117.061M105.534 117.247L105.349 117.061M105.349 117.061H105.164M105.164 117.061V116.876M105.164 117.061H104.978H104.793L104.978 116.876H104.793V116.691H104.978L104.793 116.505H104.608H104.422V116.32H104.237V116.505H104.052V116.691V116.876L103.866 116.691H103.681V116.505H103.496V116.32V116.134H103.31H103.125V116.32H102.94V116.134H102.754H102.569M102.569 116.134H102.384H102.198H102.013H101.828H101.642H101.457M102.569 116.134V116.32M101.457 116.134H101.272M101.457 116.134V115.949V115.764H101.642V115.578V115.393V115.207H101.457V115.022H101.642V114.837V114.651H101.457V114.466V114.28H101.272M101.272 114.28V114.095H101.086M101.272 114.28L101.086 114.095M101.086 114.095H100.901H100.715V114.28H100.53V114.466H100.345H100.159H99.9741H99.7887H99.6034H99.4181H99.2327H99.0474H98.862H98.6767H98.4914M98.4914 114.466V114.651M98.4914 114.466H98.306V114.28M98.306 114.28H98.1207M98.306 114.28V114.095H98.1207V113.909H97.9353V113.724V113.539M97.9353 113.539H98.1207M97.9353 113.539H97.75V113.353V113.168H97.5647H97.3793H97.194H97.0085M97.0085 113.168V113.353M97.0085 113.168H96.8232M97.0085 113.353H96.8232M97.0085 113.353V113.539L96.8232 113.353M97.0085 113.353L96.8232 113.168M96.8232 113.353V113.168M96.8232 113.353L96.6379 113.168M96.8232 113.353L96.6379 113.539M96.8232 113.168H96.6379M96.6379 113.168V112.982M96.6379 112.982V112.797H96.4525L96.6379 112.982ZM96.6379 113.539V113.353H96.4525M96.6379 113.539L96.4525 113.353M96.6379 113.539H96.4525M96.4525 113.353L96.2672 113.168V113.353H96.4525ZM96.4525 113.539V113.724M96.4525 113.539L96.6379 113.724M96.4525 113.724H96.6379M96.4525 113.724V113.909H96.6379V114.095H96.8232M96.6379 113.724H96.8232M96.8232 114.095H97.0085V113.909M96.8232 114.095L97.0085 113.909M96.8232 114.095V114.28H96.6379V114.466H96.4525H96.2672L96.0818 114.28H95.8965H95.7112H95.5258H95.3405H95.1551H94.9698H94.7845H94.5991H94.4138L94.2284 114.095H94.0431H93.8578V113.909H93.6724V113.724M97.0085 113.909H97.194V113.724M93.6724 113.724H93.4871M93.6724 113.724V113.539H93.8578H94.0431V113.353H93.8578V113.168V112.982H93.6724H93.4871V112.797H93.3017H93.1164H92.9311H92.7456H92.5603H92.3749V112.982H92.1896V112.797H92.0043M92.0043 112.797V112.982M68.0948 125.961V126.146H68.2801V126.331H68.4655L68.2801 126.517H68.0948V126.331H67.9095V126.146V125.961H68.0948ZM68.0948 125.961H68.2801V125.775H68.0948V125.961Z" stroke="white" stroke-width="0.983607" stroke-linejoin="round"/>
</g>
<defs>
<clipPath id="clip0_23_171">
<rect width="131" height="129" fill="white"/>
</clipPath>
</defs>
</svg>
