<svg width="73" height="146" viewBox="0 0 73 146" fill="none" xmlns="http://www.w3.org/2000/svg">
<g clip-path="url(#clip0_24_559)">
<path d="M64.6121 10.4077L64.6655 10.3541L64.6121 10.3005H64.5589V10.2469L64.6121 10.086L64.6655 10.0324L64.7187 9.97883L64.6655 9.87161V9.7644H64.7187L64.772 9.71079V9.65718V9.60357L64.7187 9.54997V9.44275L64.8253 9.38914V9.33554H64.8786V9.28193L64.9319 9.22832V9.17471L64.8786 9.0675H64.772H64.6655L64.4523 9.01389L64.2924 8.96028H64.1858H64.0792L63.9193 8.85307L63.7594 8.79946V8.69225L63.866 8.58503V8.53142L63.9726 8.47782L64.0259 8.26339V8.15617V8.04896L64.1325 7.83453L64.2391 7.6737L64.1858 7.6201V7.56649H64.2391L64.1858 7.51288L64.2391 7.45927H64.2924V7.29845V7.19124L64.2391 7.08402L64.1858 7.03041L64.0792 6.9768L63.9193 6.81598L63.8127 6.70877L63.7594 6.65516L63.6528 6.60155H63.5995L63.5462 6.54794L63.4397 6.44073L63.3863 6.38712L63.3331 6.54794L63.1199 6.9232L63.0666 6.9768V6.9232H62.96L62.9067 6.9768L62.8001 7.03041L62.7468 7.08402V7.13763L62.6935 7.19124H62.5869H62.5336L62.3737 7.13763H62.2671L61.8408 7.24484H61.5743L61.3611 7.29845L61.3078 7.35206H61.0414L60.988 7.40567L60.6683 7.24484H60.615H60.5617H60.5084H60.4551H60.4018H60.3485L60.2952 7.19124H60.2419L60.0287 7.13763L59.9221 7.08402L59.8155 6.86959L59.7622 6.70877L59.709 6.65516V6.60155L59.6556 6.44073L59.5491 6.17269L59.4958 5.90465L59.3359 5.79744H59.176H58.9095L58.8029 5.74383L58.7496 5.69022H58.5897L58.6431 5.95826V6.06548V6.33351L58.5365 6.49434L58.3766 7.03041L58.2167 7.08402H58.1101L57.7903 7.13763L57.6837 7.08402L57.5771 6.9768L57.3639 6.9232L57.2573 7.08402H57.1507L57.0975 7.13763L57.0442 7.19124H56.9909H56.8843H56.831H56.7244V7.13763H56.6178L56.5112 7.08402H56.4579H56.3513H56.298H56.1914H56.1382L56.0848 7.03041H56.0316H55.9783H55.8717L55.8184 7.08402L55.7651 7.03041L55.7118 6.9232V6.86959H55.6585L55.6052 6.76238V6.70877V6.60155L55.5519 6.54794L55.4986 6.44073L55.4453 6.33351L55.2321 6.27991L55.0189 6.2263H54.9124V6.27991H54.859L54.8058 6.33351V6.38712H54.7524L54.6459 6.49434L54.5926 6.54794L54.5393 6.60155V6.65516L54.486 6.76238L54.4327 6.81598V6.86959L54.3261 6.9232L54.2728 6.86959L54.2195 6.9232L54.0063 6.86959H53.8997H53.7931L53.6865 6.81598L53.6333 6.76238H53.58V6.81598H53.5267V6.86959L53.4734 6.9232H53.4201H53.3135L53.2069 6.86959L53.1536 6.9232H53.1003H52.9937L52.9404 6.81598L52.7272 6.49434V6.33351L52.6739 6.2263L52.4075 6.06548L52.1943 5.95826L52.0877 5.90465L52.0344 5.85105L51.8745 5.79744H51.7146L51.6613 5.74383L51.5547 5.69022L51.2882 5.85105V5.90465L51.2349 6.01187V6.06548L51.1817 6.11908H51.1283L51.0218 6.06548L50.8619 6.01187H50.8086H50.7553L50.702 6.06548V6.11908L50.6487 6.17269L50.5954 6.2263V6.27991V6.33351L50.5421 6.44073L50.5954 6.54794V6.60155L50.5421 6.65516V6.70877H50.5954H50.6487V6.76238V6.86959L50.5954 6.9232L50.5421 6.9768V7.03041H50.6487L50.5954 7.08402H50.5421L50.4888 7.13763H50.5421L50.5954 7.19124V7.24484H50.6487L50.5954 7.29845L50.6487 7.40567H50.702V7.51288L50.7553 7.56649V7.6201L50.8086 7.6737H50.7553V7.72731H50.8086V7.78092H50.8619L50.7553 7.88813L50.702 7.94174L50.6487 7.99535L50.702 8.10256L50.6487 8.15617V8.26339L50.5954 8.31699V8.42421L50.4888 8.69225L50.3289 8.90668L50.169 8.96028H50.1158V8.90668L50.0092 9.01389L49.9558 9.0675L49.8493 9.12111L49.796 9.17471L49.6361 9.22832V9.28193H49.5828L49.4762 9.22832L49.4229 9.28193H49.3696L49.3163 9.22832L49.2097 9.28193H49.1564V9.33554H49.0498V9.38914L48.9432 9.44275H48.8899L48.7834 9.49636L48.6234 9.60357L48.5702 9.65718L48.4636 9.71079L48.357 9.7644H48.1438L48.0372 9.87161H47.9839L47.9306 9.92522V9.97883H47.824H47.7707H47.6641H47.6109H47.451L47.3977 9.92522L47.2378 9.97883L46.918 10.086L46.7581 9.71079L46.6515 9.7644V9.818H46.5982H46.5449V9.87161H46.4916L46.4383 9.92522L46.3317 9.97883L46.2785 10.0324H46.2251V10.086V10.1396L46.1719 10.1933V10.2469L46.1186 10.3005V10.3541L46.0653 10.4613H45.9587V10.5149V10.6221H45.9054L45.8521 10.6757L45.7988 10.7293L45.7455 10.7829L45.6389 10.8365V10.8902H45.5856L45.5323 10.9438H45.479L45.4257 10.9974L45.3724 10.9438V10.8902V10.8365H45.4257L45.479 10.7829V10.7293L45.3724 10.6757V10.6221L45.3191 10.5149H45.3724H45.4257V10.4613L45.479 10.4077L45.4257 10.3541V10.3005H45.3724L45.2658 10.2469L45.1592 10.1396L45.0527 10.086L44.9994 9.92522V9.818L44.9461 9.71079L44.9994 9.65718V9.54997V9.49636L44.9461 9.38914L44.8928 9.33554L44.7329 9.38914H44.573H44.5197H44.4131H44.3598L44.1999 9.44275H44.1466L44.04 9.22832V9.17471H43.9334L43.8268 9.22832L43.7203 9.33554H43.6137L43.5604 9.44275L43.6137 9.54997L43.7203 9.60357V9.7644L43.667 9.818H43.6137V9.87161L43.5604 9.92522H43.5071V9.97883H43.4538L43.4005 10.0324L43.1873 10.086L43.134 10.1396L43.0274 10.1933L42.9741 10.1396V10.1933H42.9208H42.8675H42.8142L42.7609 10.2469H42.601L42.4412 10.3005L42.3879 10.3541H42.2813H42.228H42.1747H42.0681L41.9615 10.3005H41.8549H41.7483L41.5885 10.3541L41.4819 10.4077L41.4285 10.3541V10.2469V10.1933V10.1396V10.086H41.4819L41.4285 10.0324L41.4819 9.87161L41.5351 9.818H41.5885V9.71079L41.6417 9.60357V9.54997L41.695 9.49636L41.7483 9.33554H41.695L41.7483 9.22832H41.8016H41.8549L41.9082 9.17471H41.9615V9.12111L42.0148 9.0675H42.0681V9.01389V8.96028L42.0148 8.85307V8.96028L41.9615 8.90668H41.9082H41.8549H41.8016L41.695 8.96028H41.5351L41.4819 8.90668L41.4285 8.85307L41.3753 8.79946H41.322H41.2687L41.1621 8.90668L41.0022 8.96028L40.8956 8.90668H40.789H40.7357H40.5758L40.5225 8.85307L40.3093 8.69225V8.63864L40.2561 8.58503V8.53142H40.2027H40.1495H40.0961H40.0429V8.47782H39.9896L39.8297 8.26339L39.6698 8.15617H39.6165L39.5632 8.10256L39.5099 8.15617L39.2967 8.20978L39.0835 8.31699L38.9237 8.47782L38.8704 8.58503L38.6039 8.53142L38.4973 8.47782L38.444 8.3706H38.3907H38.2841H38.2308L38.1775 8.42421L38.0709 8.53142L38.0176 8.58503L37.9643 8.63864L37.911 8.74585H37.8044L37.6978 8.79946L37.5913 8.85307H37.538H37.4314H37.3781L36.5786 8.90668H36.4721L36.5254 9.0675L36.4721 9.12111H36.5254V9.28193V9.33554L36.4721 9.38914L36.3655 9.44275H36.3122H36.2589H36.2056L36.1523 9.49636H36.099L36.0457 9.54997L35.9924 9.60357V9.65718H35.9391V9.7644H35.8858V9.87161V9.92522H35.8325V9.87161L35.7792 9.818V9.7644L35.7259 9.71079V9.65718L35.6726 9.60357H35.6193H35.566H35.5127L35.4595 9.54997V9.49636L35.5127 9.44275V9.38914L35.566 9.33554V9.22832V9.17471L35.6193 9.0675V9.01389V8.90668V8.74585V8.63864V8.58503V8.47782L35.566 8.26339V8.15617L35.6193 7.99535V7.88813L35.6726 7.83453L35.6193 7.6201L35.566 7.56649H35.4595H35.2463H35.1397V7.6201L35.0864 7.6737V7.94174V8.15617V8.20978L35.0331 8.3706L34.9798 8.47782L34.9265 8.58503L34.8199 8.85307L34.8732 8.90668L34.8199 8.96028H34.7666H34.7133L34.5001 9.0675L34.3402 9.17471H34.2336L34.0737 9.12111V9.0675H34.0205H33.9671H33.9139H33.8073L33.754 9.01389V9.0675H33.7007L33.6474 9.12111L33.5408 9.17471L33.4342 9.22832L33.3809 9.28193V9.49636L33.3276 9.54997H33.2743V9.65718V9.71079L33.221 9.7644H33.1144L33.0611 9.87161H33.0078L33.0611 9.92522L33.0078 9.97883V10.086L32.9546 10.1396L32.9012 10.1933V10.2469V10.4077H32.848V10.3541L32.7414 10.3005L32.6881 10.3541H32.5815H32.5282H32.4749H32.315V10.4077H32.2617V10.5149H32.1551V10.6221H32.1018L32.0485 10.6757V10.6221L31.9952 10.6757V10.7293L31.9419 10.7829H31.8886H31.782V10.7293L31.7288 10.7829H31.6754L31.6222 10.8365H31.5688H31.4623V10.8902H31.409L31.3557 10.9438L31.3024 10.8902H31.2491H31.1425V10.9974L31.0359 10.9438H30.9826L30.9293 10.8902H30.876H30.8227H30.7694H30.7161H30.6628H30.6095H30.5562L30.5029 10.9974H30.4497H30.3431L30.0233 10.7829L29.8634 10.7293H29.7568H29.6502V10.3005L29.7035 9.49636L29.5969 9.44275V9.38914V9.28193L29.5436 9.17471V9.12111V9.01389L29.4903 8.96028H29.437L29.3305 9.01389H29.2771L29.2239 9.0675L29.1173 9.01389H29.064H29.0107L28.9574 9.0675L28.8508 9.12111V9.01389V8.96028H28.9041L28.8508 8.85307V8.79946V8.69225L28.7975 8.58503V8.53142L28.6909 8.47782L28.5843 8.42421H28.531V8.3706L28.5843 8.31699L28.531 8.20978V8.15617V8.10256V8.04896V7.94174L28.5843 7.83453L28.6376 7.78092V7.72731V7.6737H28.6909L28.7442 7.56649L28.8508 7.45927L28.7975 7.40567L28.9041 7.29845V7.24484V7.19124H28.9574L29.0107 7.08402H29.064V7.03041L29.1173 6.9768H29.1705L29.2239 6.86959L29.2771 6.81598L29.3305 6.76238H29.437L29.3837 6.65516L29.437 6.60155V6.54794L29.5436 6.49434V6.44073V6.38712H29.5969V6.27991L29.6502 6.11908V6.06548V5.95826L29.7568 5.90465L30.0766 5.79744H30.1299L30.3431 5.36858L30.3964 5.26136H30.5029H30.5562L30.7161 5.31497L30.8227 5.26136L31.0359 5.15415L31.1425 5.10054L31.2491 5.04693L31.3024 4.99333L31.3557 4.7789L31.409 4.61807L31.3557 4.51086V4.13561V4.082L31.3024 3.92118L31.2491 3.76035V3.70675L31.1425 3.59953L31.0892 3.33149L30.876 3.22428L30.6095 3.06346H30.5562L30.5029 3.11706L30.1832 3.27789L30.0233 3.17067H29.97L29.7568 3.27789L29.6502 3.33149L29.4903 3.49232L29.3837 3.54592H29.3305H29.2771L29.2239 3.49232V3.43871L29.1705 3.33149H29.1173V3.27789L29.1705 3.22428V3.11706V3.06346L29.2239 3.00985L29.1705 2.90263V2.84903L29.1173 2.79542L29.1705 2.74181V2.6346V2.58099V2.47377H29.1173V2.42017V2.31295V2.20574H29.064V2.15213V2.09852V2.04491V1.99131L29.0107 1.72327V1.66966L29.1173 1.56245V1.50884V1.45523L29.064 1.40162L29.1173 1.29441H29.064L29.0107 1.2408V1.18719L28.9574 1.13359V1.07998V1.02637L28.9041 0.972763H28.8508V1.02637V1.13359L28.7442 1.34802L28.6909 1.40162H28.5843H28.4777V1.45523L28.4244 1.56245L28.3178 1.61605H28.2112L28.1579 1.56245L28.1046 1.50884H28.0513V1.45523L27.9981 1.40162H27.9447H27.8915L27.8382 1.45523L27.7316 1.50884H27.6783V1.56245V1.61605V1.66966V1.77688V1.83048L27.625 1.9377H27.5717H27.5184H27.4651L27.4118 1.88409L27.3585 1.83048H27.3052L27.2519 1.88409L27.1986 1.9377L27.1453 1.99131L27.0387 2.04491L26.9854 2.15213L26.9322 2.20574H26.8788L26.8256 2.31295L26.719 2.36656L26.6657 2.42017H26.6124L26.5058 2.47377H26.4525L26.3992 2.42017H26.3459L26.2926 2.47377H26.2393V2.52738L26.186 2.6346V2.6882L26.2393 2.79542L26.186 2.84903L26.1327 2.90263L26.0794 3.00985H25.9728H25.9195H25.8662H25.8129L25.7596 2.95624L25.7063 2.90263H25.653L25.5998 2.84903H25.5464H25.4398H25.3866L25.28 2.90263H25.2267V2.95624H25.1734L25.1201 3.00985V3.06346L25.0668 3.17067H25.0135V3.22428H24.9602L24.8003 3.27789L24.747 3.11706H24.6404H24.4805L24.4273 3.17067L24.3739 3.22428H24.3207L24.2141 3.27789L24.1608 3.33149H24.0542H24.0009H23.9476L23.8943 3.27789V3.22428L23.841 3.17067H23.7877L23.7344 3.06346H23.6811H23.6278H23.5212H23.4146L23.2547 3.11706L23.0415 3.06346L22.935 3.11706H22.8817L22.7751 3.06346L22.6152 3.11706L22.5086 3.17067H22.4553L22.402 3.22428L22.2421 3.17067H22.1355L22.0822 3.11706L22.0289 3.17067L21.8691 3.22428V3.27789V3.33149V3.43871V3.49232L21.9224 3.54592V3.59953L21.8691 3.65314L21.8158 3.70675L21.6026 3.81396L21.496 3.86757H21.4427L21.1762 3.92118H21.0696H21.0163H20.963H20.8564H20.8032H20.6966H20.6432H20.59L20.4834 3.86757L20.4301 3.81396H20.3768L20.3235 3.86757H20.2169L20.1103 3.92118H20.0037H19.8438L19.6839 3.97478L19.524 4.082L19.4708 4.13561L19.4174 4.18921V4.24282L19.3642 4.29643L19.3109 4.40364L19.2576 4.45725H19.151L19.0977 4.51086V4.56447L19.0444 4.67168V4.7789L19.0977 4.8325V4.93972L19.0444 5.20776V5.31497L18.9911 5.36858L18.9378 5.42219L18.8312 5.47579L18.7779 5.5294L18.6713 5.69022L18.5647 5.74383H18.4581H18.4049H18.3515L18.2449 5.90465H18.1917L18.1384 5.95826L17.9252 6.01187H17.8186L17.712 6.06548L17.6054 6.11908L17.4455 6.27991L17.2856 6.38712L17.2323 6.44073L17.179 6.49434L17.1257 6.54794V6.65516V6.70877L17.179 6.86959V7.08402L17.1257 7.13763V7.19124L16.9659 7.40567H16.9125L16.806 7.51288L16.6994 7.56649L16.6461 7.6201L16.4862 7.72731L16.4329 7.78092L16.3263 7.83453L16.273 7.88813H16.1664H16.0598H15.9532L15.8466 7.94174H15.7934L15.6335 7.99535L15.5802 8.10256L15.5269 8.15617L15.4736 8.26339V8.31699L15.367 8.42421L15.2071 8.63864L14.9939 8.96028L14.8873 9.0675L14.7807 9.12111L14.6742 9.17471L14.6208 9.22832L14.5142 9.38914L14.5676 9.60357L14.6208 9.71079V9.818L14.5676 9.92522H14.5142L14.461 10.0324L14.4077 10.086V10.1396V10.1933V10.3005V10.4077L14.461 10.4613V10.5149H14.4077V10.5685L14.461 10.6221V10.6757V10.7293H14.5142V10.7829V10.8365H14.6208V10.8902V10.9974V11.1046L14.5676 11.1582H14.5142V11.2118H14.461V11.2654L14.4077 11.319H14.461V11.3726V11.4262L14.5142 11.5334V11.6407H14.461L14.5142 11.7479L14.461 11.9623V12.1231L14.4077 12.1767L14.3544 12.2839V12.3376V12.4448V12.4984L14.3011 12.552V12.6056V12.6592L14.3544 12.7128V12.7664V12.82L14.4077 12.8736H14.3544L14.4077 12.9808V13.0345L14.461 13.0881V13.1417L14.5142 13.2489L14.461 13.3025L14.5142 13.3561H14.5676L14.6208 13.4633L14.5676 13.5169L14.6208 13.5705V13.6241L14.6742 13.7314L14.7274 13.785V13.8386V13.8922V13.9458L14.7807 13.9994L14.834 14.1602V14.1066L14.8873 14.1602L14.9406 14.2138V14.2674L14.9939 14.321L15.0472 14.6427M64.6121 10.4077H64.6655M64.6121 10.4077V10.5685L64.6655 10.6221V10.6757H64.5589L64.5056 10.7293L64.5589 10.7829V10.8365H64.5056L64.4523 10.8902V10.9974V11.051H64.399H64.3457V11.1046L64.4523 11.1582L64.399 11.2118H64.3457V11.2654V11.319L64.2924 11.3726L64.2391 11.4262L64.3457 11.5334V11.6407V11.6943H64.2924V11.7479L64.2391 11.8015H64.2924L64.3457 11.8551H64.2924L64.2391 11.9087H64.1858V12.0159V12.0695L64.0792 12.1231V12.1767V12.2839V12.3912V12.4448L64.0259 12.552L63.866 12.6056V12.6592L63.8127 12.7128V12.82V12.8736L63.866 12.9272H63.9726V12.9808L64.0259 13.0345H64.0792L64.0259 13.1417V13.2489V13.3561L64.0792 13.4097H64.1325L64.1858 13.3561L64.2391 13.4097L64.1325 13.4633L64.0792 13.5169L64.1858 13.5705V13.6241M64.1858 13.6241L64.1325 13.5705V13.6241H64.1858ZM64.1858 13.6241L64.2391 13.7314L64.1858 13.785V13.8386L64.2924 13.8922L64.2391 13.9994H64.2924H64.3457V14.1066L64.2924 14.1602L64.2391 14.1066L64.1858 14.053H64.1325L64.0792 14.1066V14.1602V14.2138L64.1325 14.2674V14.321L64.2391 14.5355L64.399 14.6963L64.5589 14.8035L64.6655 14.8571L64.7187 14.9107L64.8253 15.0179L64.8786 15.1251L64.9852 15.2324L65.0918 15.286L65.305 15.3396H65.4116H65.4649H65.5182L65.678 15.2324L65.7846 15.1788L65.9445 15.0715H66.1577L66.2643 14.8035V14.6963L66.3176 14.6427L66.3709 14.5891L66.4242 14.5355L66.5308 14.5891L66.6374 14.6963L66.6907 14.6427L66.8506 14.6963H66.9039H66.9572L67.0638 14.7499H67.1704V14.6963H67.2769L67.3835 14.7499L67.4901 14.8035H67.5967L67.8632 14.8571H67.9698H68.0764L68.3961 14.8035L68.5027 14.8571H68.556H68.6093L68.7159 14.9107L68.7692 14.9643H68.8758L69.0357 15.0715L69.1956 15.1251L69.5153 15.2324L69.6219 15.286L69.6752 15.3396L69.7818 15.3932L69.8884 15.5004H69.9417L70.0483 15.6076L70.2615 15.822H70.3148L70.3681 15.8757L70.4214 15.9293L70.528 16.0365L70.6346 16.2509L70.6879 16.3045L70.7411 16.4117V16.5189L70.7944 16.5726L70.901 16.7334V16.787L71.0076 16.8406L71.0609 16.8942L71.1675 16.9478L71.2741 17.0014H71.3807H71.4873L71.5939 17.055L71.6472 17.1622L71.7005 17.2158L71.7538 17.3231V17.4303L71.807 17.5375L71.8604 17.6447L71.9136 17.7519H71.8604L71.7538 17.8055L71.7005 17.9127H71.6472L71.5939 18.02L71.5406 18.0736L71.4873 18.1272L71.434 18.1808V18.288L71.3807 18.3952H71.3274V18.4488V18.556V18.6632H71.2741L71.2208 18.7705L71.1675 18.8777H71.1142L71.0609 19.0385L70.9543 19.1457L70.901 19.2529L70.8477 19.3065H70.7944L70.7411 19.4137H70.6879H70.5813L70.528 19.4674H70.4747L70.4214 19.521L70.4747 19.5746L70.528 19.6818V19.7354L70.5813 19.8426V19.8962L70.528 19.9498H70.4747L70.3148 19.8962L70.2615 19.9498L70.2082 20.057L70.2615 20.1106L70.3681 20.2179V20.2715L70.2615 20.2179L70.2082 20.2715L70.1016 20.3787H69.995L69.9417 20.4323L69.8884 20.4859V20.5931V20.6467V20.7539L69.8351 20.8612L69.6752 21.022L69.6219 21.0756L69.5153 21.1828L69.4621 21.3436H69.4087L69.4621 21.3972L69.5153 21.5044L69.6219 21.6117L69.6752 21.7189L69.5687 21.9333L69.4621 21.9869L69.4087 22.1477L69.3555 22.2013H69.3022L69.1956 22.3086H69.1423L69.0357 22.2549H68.9824L68.9291 22.3086L68.8225 22.4694V22.5766H68.8758V22.6302H68.9824L69.0357 22.6838L69.1423 22.7374L69.1956 22.8446V22.9518V23.0591V23.1127V23.1663H69.1423L69.0357 23.1127H68.9824L68.9291 23.1663L68.8225 23.2199L68.7692 23.2735L68.6626 23.3271L68.5027 23.3807H68.4494L68.3428 23.3271L68.2895 23.2735L68.183 23.1127L68.1297 23.0591V22.9518H68.0764L68.0231 23.0055L67.9698 23.0591L67.9165 23.1127H67.8632H67.8099L67.65 23.1663L67.5967 23.2199V23.2735V23.3271L67.5434 23.3807V23.4879V23.5951L67.5967 23.6487L67.65 23.7024L67.7033 23.8096H67.7566L67.8099 23.756H67.8632L67.9165 23.8096V23.8632V23.9168L67.8632 24.024L67.7033 24.0776L67.5967 24.1848H67.5434H67.4368H67.3302H67.2769L67.0638 24.2384V24.3456L66.9572 24.3992V24.5065L66.9039 24.5601L66.8506 24.6137V24.6673V24.7209L66.9572 24.7745L67.0104 24.8281V24.8817L66.8506 24.9889L66.6907 25.0425L66.6374 25.0961V25.1498L66.5841 25.2034V25.3106L66.6374 25.4178L66.5841 25.4714H66.5308L66.4242 25.6322H66.3709L66.2643 25.6858H66.1577H66.1044V25.6322L65.9445 25.5786L65.838 25.6322L65.7846 25.6858V25.7394L65.7314 25.793H65.678L65.5715 25.8467L65.4649 25.9003V26.0075V26.0611V26.1147L65.5182 26.1683L65.678 26.2219L65.7314 26.2755V26.3291L65.678 26.3827L65.6248 26.4363L65.4116 26.4899L65.3583 26.5972H65.305H65.1984H65.1451L65.0918 26.6508H65.0385L64.9852 26.5972V26.5435L64.9319 26.4363L64.8786 26.3291H64.772V26.3827L64.7187 26.4363L64.6121 26.5435L64.5589 26.5972L64.399 26.758H64.2924L64.2391 26.8116V26.8652V26.9188L64.1858 27.026V27.0796V27.1332L64.1325 27.1868L64.0792 27.2404H63.9193H63.8127V27.2941L63.7594 27.3477H63.5995H63.5462L63.4397 27.2941V27.2404L63.3863 27.1332L63.4397 27.026L63.3863 26.9724V26.9188H63.3331H63.2797L63.2265 26.9724V27.026V27.1332L63.1732 27.1868V27.2404H63.1199L63.0666 27.1868L63.0133 27.0796H62.96H62.9067H62.8534L62.6935 27.1332L62.5869 27.1868V27.2404H62.5336H62.3737L62.3204 27.1868L62.2671 27.1332L62.1606 27.0796L62.1073 27.1332L62.054 27.1868V27.2941L62.0007 27.4013V27.4549L61.9474 27.5085H61.8941H61.8408L61.7875 27.5621L61.7342 27.6157L61.6809 27.7229L61.5743 27.8301L61.521 27.8837H61.4144V27.9373L61.3611 28.0446L61.3078 28.1518L61.2012 28.2054H61.1479V28.259L61.2012 28.3126L61.2545 28.3662V28.4198L61.2012 28.4734V28.6342L61.1479 28.6879H61.0414L60.988 28.7415L61.0414 28.7951V28.8487V28.9559L60.988 29.0095L60.9348 29.0631L60.8282 29.1167L60.7749 29.1703L60.8282 29.2239L60.7749 29.2775L60.7216 29.3311L60.5617 29.4384L60.5084 29.492L60.4018 29.5456L60.3485 29.5992L60.2419 29.6528L60.1886 29.76L60.1353 29.8136V29.9208L60.082 29.9744H60.0287L59.9754 30.028L59.9221 30.1353L59.8155 30.1889H59.7622L59.709 30.2425L59.6024 30.2961L59.5491 30.3497L59.4425 30.4569L59.4958 30.5641H59.4425L59.4958 30.6713L59.5491 30.7249V30.7785L59.6024 30.8858L59.6556 30.9394L59.709 30.993V31.1002V31.1538L59.8155 31.2074L59.7622 31.3682L59.709 31.4218L59.6556 31.4754V31.529L59.6024 31.5827L59.4958 31.6899L59.4425 31.7435V31.9043L59.3892 32.0115L59.3359 32.1187L59.2826 32.1723L59.2293 32.2796L59.176 32.3332L59.1227 32.3868L59.0694 32.5476L59.0161 32.6548L58.9095 32.7084L58.8562 32.762L58.8029 32.8156L58.6963 32.9228H58.6431V32.9765L58.6963 33.0301V33.1373H58.6431L58.5365 33.1909L58.4831 33.2445L58.3766 33.2981H58.27L58.1634 33.3517L58.1101 33.4053H57.8436H57.737H57.6837H57.6304H57.4705H57.3639H57.2573H57.1507L57.0442 33.3517L56.7777 33.2445H56.6178L56.5645 33.1909L56.5112 33.1373H56.4579L56.4046 33.0837L56.3513 33.1373L56.2447 33.1909L56.1914 33.2445H56.1382L56.0316 33.3517L56.0848 33.4589V33.5125L56.0316 33.6733V33.727V33.7806L56.0848 33.8342L56.1914 33.8878V33.995V34.0486L56.2447 34.1022L56.298 34.1558L56.3513 34.2094H56.4579H56.5112L56.5645 34.3166L56.6178 34.3702V34.4775L56.7777 34.6383L56.831 34.6919H56.8843L56.9376 34.7455L56.8843 34.7991L56.9376 34.9063L56.9909 34.9599V35.0135L57.0975 35.0671L57.1507 35.1744L57.2041 35.228L57.2573 35.3352H57.3107L57.3639 35.3888H57.4172L57.4705 35.5496L57.5771 35.6032V35.6568V35.7104L57.6304 35.764V35.8176L57.6837 35.9249L57.737 36.0321L57.6837 36.1393L57.7903 36.2465L57.8436 36.3537L57.7903 36.4073V36.4609L57.8436 36.5145V36.5682L57.7903 36.6218V36.729V36.8362V36.9434L57.8436 36.997V37.0506L57.9502 37.1042L58.0035 37.2114V37.2651L58.0568 37.3187L58.1101 37.3723H58.1634V37.4795H58.27H58.3233H58.3766L58.4299 37.5867H58.4831L58.6431 37.5331V37.5867V37.6403L58.6963 37.7475V37.8547L58.7496 37.9083V38.0156V38.0692L58.8029 38.1764H58.7496L58.8029 38.23L58.7496 38.2836L58.8029 38.3372V38.3908V38.4444V38.498H58.8562L58.8029 38.6052H58.7496H58.6963H58.6431V38.6588H58.5897V38.7125H58.5365L58.4831 38.6588L58.4299 38.7125L58.3766 38.6588H58.3233V38.6052L58.27 38.6588L58.3233 38.7125L58.27 38.7661H58.3233V38.8197H58.3766V38.8733V38.9269H58.3233V38.9805V39.0877V39.1413V39.1949H58.3766L58.3233 39.3557V39.4094H58.3766V39.463L58.4299 39.5166V39.6238L58.4831 39.6774V39.8382V39.9454V39.999H58.4299V40.0526V40.1063L58.3766 40.1599V40.2135V40.2671L58.3233 40.3207V40.4279L58.27 40.4815V40.5887V40.6959V40.7495V40.8032L58.2167 40.9104L58.27 40.964V41.0176L58.2167 41.1248L58.1634 41.232L58.2167 41.3392V41.3928V41.4464V41.5V41.5537V41.6073V41.6609H58.3233V41.7681V41.8217V41.8753V41.9289H58.4299V41.9825H58.4831V42.0361L58.5365 42.0897V42.1433L58.5897 42.2506V42.3042V42.3578V42.465L58.5365 42.5186L58.5897 42.5722V42.6258V42.6794L58.6431 42.733L58.6963 42.7866V42.8402V42.8938V42.9475H58.7496L58.6963 43.0011L58.7496 43.0547V43.1083L58.8029 43.1619L58.7496 43.2155L58.8029 43.2691V43.3763L58.7496 43.4299L58.8029 43.4835L58.7496 43.5371V43.5907V43.6443L58.9628 43.8052V43.8588V43.9124L58.8562 44.0196V44.0732V44.1268V44.234L58.8029 44.2876L58.7496 44.3412V44.4485L58.6963 44.6093V44.7165L58.6431 44.7701L58.5897 44.8237V44.8773L58.5365 44.9845V45.0381L58.4831 45.1454L58.4299 45.199L58.3766 45.2526L58.3233 45.3598L58.27 45.4134V45.467V45.5206H58.2167L58.1634 45.5742L58.1101 45.6278L58.0035 45.735V45.7886V45.8423L58.0568 46.0031V46.1103V46.1639L57.9502 46.2175V46.3247H57.8969V46.4319V46.5392H57.9502L58.0568 46.5928H58.1101L58.2167 46.6464L58.27 46.7L58.3233 46.7536L58.4831 46.8072L58.6431 46.8608H58.7496V46.9144V46.968H58.8029V47.0752L58.7496 47.1824V47.2897V47.3433V47.3969V47.5041L58.8562 47.6649V47.7185L58.9095 47.7721V47.8793L58.9628 48.0938L58.9095 48.1474H58.8562H58.8029V48.201H58.7496H58.6963L58.5897 48.2546V48.3082L58.5365 48.3618L58.4831 48.469V48.5762L58.4299 48.6298L58.4831 48.6835L58.3766 48.7907V48.8443V48.8979L58.27 48.9515L58.2167 49.0051L58.1634 49.0587L58.1101 49.1123L58.0568 49.1659V49.2195V49.2731H58.0035L57.9502 49.3804V49.434L57.8969 49.5412L57.8436 49.6484L57.7903 49.7556V49.8092L57.8436 49.97V50.1309L57.8969 50.2381L57.9502 50.3989V50.5061L58.0035 50.7205V50.7741V50.8278L58.0568 50.8814V50.9886L58.1101 51.0422H58.1634L58.2167 51.1494V51.203L58.3233 51.2566V51.3102L58.3766 51.3638L58.4831 51.4174L58.5365 51.471L58.5897 51.5247L58.6431 51.6319V51.6855L58.6963 51.7391H58.7496L58.8562 51.8463L58.9095 51.9535L58.9628 52.0071L59.0161 52.0607H59.1227L59.176 52.1143H59.2293V52.2215V52.2752L59.176 52.3288L59.0694 52.3824L59.0161 52.436L58.9628 52.4896V52.5432V52.6504L59.0161 52.7576V52.8112L59.0694 53.0793L59.0161 53.1329L58.9628 53.2401H58.9095L58.8562 53.2937V53.3473H58.7496H58.6963H58.5897H58.4831L58.4299 53.4009L58.3766 53.4545L58.3233 53.4009V53.4545L58.27 53.5081L58.2167 53.5617H58.1634L58.1101 53.6153V53.669H58.0568H58.0035L57.9502 53.7226L57.8969 53.8298L57.8436 53.8834L57.5238 54.0978L57.4705 54.1514V54.205V54.4195V54.4731V54.5267L57.5238 54.6339V54.6875L57.4705 54.8483V54.9019L57.4172 55.0091L57.3639 55.0627L57.3107 55.1164L57.2041 55.17L57.0442 55.2236M57.0442 55.2236V55.2772M57.0442 55.2236L56.9376 55.17L56.831 55.2236L56.6711 55.2772H56.6178L56.5645 55.3844L56.4579 55.3308L56.3513 55.2772L56.298 55.3308L56.1382 55.2236L56.0316 55.2772H55.9783L55.925 55.2236H55.8717V55.2772H55.8184H55.7651H55.6052L55.5519 55.3844V55.438V55.4916L55.4986 55.5452L55.4453 55.5988L55.392 55.6524V55.706V55.8133L55.2854 55.8669H55.2321H55.1788H55.1255V55.8133L55.0722 55.7596H55.0189H54.9656L54.9124 55.8133L54.8058 55.8669H54.7524H54.5926L54.5393 55.9741L54.486 56.0277L54.3794 56.1349H54.3261L54.2728 56.1885L54.3261 56.2421V56.2957H54.2728V56.3493V56.4029L54.2195 56.4565V56.5102V56.6174L54.1662 56.671V56.7782V56.939L54.1129 56.9926L54.0596 57.0462L53.953 57.0998V57.1534V57.2607H53.8997L53.953 57.3143H53.8997L53.953 57.3679H54.0063V57.4215H54.0596H54.1129V57.4751H54.1662V57.5287H54.2195L54.1662 57.5823L54.2195 57.6895L54.1662 57.7431L54.1129 57.7967L54.1662 57.8503L54.1129 57.9039L54.1662 57.9576L54.2195 58.0112L54.2728 58.0648L54.2195 58.172V58.2256L54.2728 58.2792V58.3328H54.1662V58.44H54.1129L54.1662 58.4936H54.2195V58.5472V58.6008V58.6545H54.2728L54.2195 58.7081H54.2728V58.8153H54.3261L54.3794 58.8689L54.3261 58.9225H54.2728V58.9761H54.3261H54.4327L54.3794 59.0297L54.486 59.0833M54.486 59.0833V59.0297M54.486 59.0833H54.5926V59.1369H54.5393L54.5926 59.1905L54.6459 59.1369V59.1905L54.6992 59.1369V59.1905V59.2441V59.2977V59.3514H54.7524V59.2977V59.2441L54.8058 59.1905H54.859H54.9124L54.9656 59.2441L55.0189 59.1905L55.0722 59.2441L55.2321 59.2977L55.2854 59.2441H55.3387H55.392V59.2977V59.3514V59.405L55.4453 59.3514H55.4986L55.5519 59.2441L55.6052 59.2977V59.3514H55.6585V59.405L55.7118 59.3514H55.8184V59.4586V59.5122H55.7651V59.5658L55.8184 59.6194L55.8717 59.5658V59.6194H55.9783L56.0316 59.673V59.7802V59.8338L56.0848 59.8874L56.1382 59.941L56.1914 59.9946L56.2447 60.0482V60.1555L56.298 60.2091V60.3699L56.3513 60.4235V60.5307L56.298 60.5843L56.3513 60.6379V60.6915H56.4046L56.4579 60.6379H56.5112L56.5645 60.7451L56.6711 60.7988H56.831L56.8843 60.8524L56.831 60.906L56.7777 61.0132V61.0668L56.831 61.1204H56.8843L56.9376 61.174L57.0442 61.2276V61.2812L57.0975 61.3348V61.4957V61.5493V61.6029L57.1507 61.7101L57.2041 61.7637L57.2573 61.8173V61.8709L57.2041 61.9781V62.0317H57.2573L57.3639 62.0853H57.4172H57.4705V62.1925V62.2462H57.4172H57.3639L57.2573 62.2998V62.3534V62.407V62.4606L57.3107 62.5678L57.2573 62.6214L57.2041 62.7286L57.1507 62.7822V62.8894L57.0975 62.9431L57.0442 62.9967L56.9909 63.0503V63.1039V63.1575L57.0442 63.2111L57.1507 63.2647V63.3183L57.0975 63.3719V63.4255L56.9909 63.4791V63.5327L56.9376 63.5863L56.9909 63.6936L57.0442 63.7472V63.8008V63.8544L56.9909 63.908L57.0442 63.9616V64.0152V64.1224L56.9909 64.176L56.9376 64.2296L56.8843 64.2832V64.3905L56.831 64.4441H56.7244H56.6711V64.5513L56.6178 64.6049L56.5645 64.6585V64.7121H56.6178V64.7657H56.5645V64.8193H56.6178L56.7244 64.9801V65.0337V65.0874L56.6711 65.141V65.1946L56.7244 65.3018V65.3554L56.6178 65.4626L56.5645 65.5698V65.6234L56.6178 65.677H56.6711V65.7843V65.8379L56.6178 65.8915V65.9987L56.6711 66.1059L56.6178 66.1595L56.5645 66.2131L56.5112 66.3203L56.4046 66.3739V66.4811H56.3513H56.298H56.2447L56.1914 66.5348L56.0848 66.5884L56.0316 66.642L55.9783 66.7492V66.8028V66.8564L55.925 66.91V66.9636H55.9783L55.925 67.0708H55.8717V67.178H55.8184L55.7651 67.1244L55.7118 67.178V67.2317V67.2853L55.6585 67.3389L55.6052 67.3925H55.5519L55.4453 67.4461H55.3387L55.2854 67.3925L55.1788 67.4461V67.4997L55.0722 67.6069H55.0189L54.9656 67.5533V67.6069L54.9124 67.7141V67.7677V67.8213H54.859V67.8749V67.9822L54.8058 68.0894L54.859 68.143V68.1966L54.8058 68.3038V68.3574H54.9124V68.411L54.9656 68.5182V68.6254L55.0189 68.7327L55.0722 68.7863V68.8399V68.8935L55.0189 68.9471L54.9124 69.0543L54.859 69.1615L54.8058 69.2687L54.859 69.376V69.4296L54.8058 69.4832L54.7524 69.5368V69.644V69.6976L54.6992 69.7512V69.8048L54.7524 69.912V69.9656L54.6992 70.0192V70.0728L54.8058 70.1265L54.859 70.1801L54.7524 70.2873L54.6992 70.3409V70.3945L54.6459 70.4481V70.5017H54.5926V70.5553V70.6089L54.5393 70.7161V70.7697L54.4327 70.877V70.9306L54.486 70.9842V71.0378L54.4327 71.0914V71.145V71.1986L54.3794 71.3058L54.4327 71.3594H54.3794L54.2728 71.5203V71.5739V71.6275L54.2195 71.7347L54.1662 71.7883H54.0596L53.953 71.8419H53.8997L53.7931 71.8955H53.7398L53.58 71.9491L53.4734 72.0027L53.4201 72.0563H53.3668H53.2602L53.1536 72.1099H53.1003H52.9937L52.8338 72.0563L52.7805 72.0027L52.6739 71.9491H52.5673H52.5141H52.4607H52.3541H52.2476H52.141H52.0344H51.9811H51.9278H51.8212V72.0027L51.7679 72.0563L51.6613 72.1099L51.5547 72.1635L51.5014 72.2172H51.4481H51.3415H51.2349L51.0751 72.1635H50.9685H50.9152L50.8086 72.1099H50.702L50.6487 72.0563H50.5421H50.4888H50.4355L50.2756 72.0027H50.169L50.0092 72.0563H49.9558H49.9026L49.796 72.0027L49.6361 71.9491H49.5828H49.5295L49.4229 71.8955L49.3163 71.8419H49.1564L49.1031 71.8955H48.8899L48.8366 71.9491H48.73L48.6234 72.0027H48.4636L48.4103 72.0563H48.357L48.3037 72.1635L48.2504 72.2172H48.1971L48.0372 72.2708L47.9306 72.3244L47.7707 72.378H47.7174L47.6641 72.4316L47.5575 72.5388L47.451 72.5924H47.3977H47.3444L47.1845 72.4852L47.0246 72.4316L46.7581 72.378L46.5449 72.3244H46.3851H46.3317H46.1719L46.012 72.4316H45.9587H45.9054L45.7988 72.378H45.7455H45.6389L45.5323 72.3244L45.479 72.2708H45.3724L45.3191 72.2172L45.2658 72.1635L45.1592 72.0563H45.0527L44.8395 72.0027H44.7329L44.5197 71.9491H44.3598H44.3065L44.1999 71.8955H44.04H43.9334H43.667H43.5604H43.5071H43.4005L43.2406 71.8419H43.134L43.0274 71.8955L42.9741 71.9491L43.0807 72.0027H43.1873V72.0563V72.1099H43.2406L43.2939 72.1635V72.2708V72.3244V72.378V72.4852L43.3472 72.5388L43.2939 72.5924V72.6996V72.7532L43.3472 72.8604V72.914L43.4005 72.9677L43.5071 73.0749L43.5604 73.1285L43.667 73.1821V73.3965V73.4501L43.7203 73.5573L43.7736 73.6109V73.6646V73.7182H43.8802V73.879V73.9326V73.9862V74.0398H43.9334L43.9868 74.0934H44.04H44.0933L44.1466 74.147L44.1999 74.2006L44.2532 74.2542H44.3065V74.3078H44.3598H44.4664L44.573 74.3615L44.6263 74.4687H44.6796L44.7329 74.6295V74.6831H44.7862L44.8395 74.7367L44.8928 74.7903V74.8975H44.9461V75.0047L44.9994 75.0584H45.0527V75.112L44.9994 75.1656L45.0527 75.2192L45.1059 75.3264L45.2125 75.4336H45.2658L45.3191 75.4872L45.3724 75.5408L45.4257 75.5944L45.479 75.5408H45.5323L45.5856 75.5944V75.648H45.6389L45.7988 75.5944L45.8521 75.648H45.9054L45.9587 75.5944H46.012L46.1719 75.648L46.2251 75.7016L46.1719 75.7552L46.2251 75.8089V75.8625V75.9697L46.2785 76.0233L46.2251 76.1305V76.1841L46.2785 76.2377L46.2251 76.2913V76.3449V76.3985V76.4521H46.2785V76.5594H46.3851L46.4383 76.613V76.6666L46.3851 76.7202V76.7738H46.4916V76.8274H46.5449H46.5982H46.6515L46.7048 76.881H46.7581V77.0418H46.8114V76.9882H46.8647L46.9713 76.9346L47.0246 76.881L47.0779 76.8274L47.1312 76.881V76.9346V76.9882L47.1845 77.0418V77.0954V77.149H47.2378L47.2911 77.0954H47.3444L47.3977 77.149L47.451 77.2027H47.5043H47.5575H47.6109H47.6641L47.7174 77.2563V77.3099V77.3635L47.824 77.4171H47.8773H47.9306L48.0372 77.5243H48.0905H48.1438L48.1971 77.6315L48.2504 77.6851V77.7387V77.7923L48.1971 77.8459L48.0905 77.9532L48.0372 78.0068V78.0604V78.114V78.1676V78.2212V78.2748V78.3284V78.382L47.9839 78.4356L48.0372 78.5428V78.5965H48.0905V78.7037V78.7573V78.8109L48.1438 78.8645H48.0905V78.9717H48.0372V79.0253L47.9839 79.0789V79.1325V79.1861V79.2397L47.9306 79.2933V79.347H47.8773V79.2933L47.824 79.347V79.4006V79.4542V79.5078L47.7707 79.5614L47.7174 79.615L47.6641 79.6686V79.7222V79.8294V79.883L47.7174 79.9366H47.7707V79.9902L47.824 80.0439L47.8773 80.0975L47.9306 80.1511V80.2047V80.3655V80.4727L47.9839 80.5263L48.0372 80.6871L47.9839 80.848L47.9306 80.9552L47.9839 81.0624L48.0372 81.1696L48.0905 81.2232H48.1438L48.1971 81.2768H48.3037L48.357 81.384H48.4103V81.4377L48.5169 81.4913L48.6234 81.6521L48.6768 81.7057L48.73 81.7593L48.7834 81.8129L48.8366 81.8665L48.7834 81.9201V81.9737L48.8366 82.0809L48.9432 82.1345L48.9965 82.1882L49.1564 82.2954V82.349H49.2097L49.3163 82.4562L49.3696 82.5634H49.4762L49.5295 82.617L49.5828 82.6706H49.6361L49.5295 82.8314L49.3163 83.2067L49.263 83.3139V83.3675V83.4211L49.3163 83.582L49.3696 83.6892V83.9036L49.3163 83.9572V84.118V84.1716L49.3696 84.2788L49.4229 84.3861L49.3696 84.6541L49.5295 84.7077L49.6894 84.8685L49.7427 84.9757L49.796 85.0294V85.083H49.8493H49.9026L49.9558 85.1366H50.0092H50.0624L50.1158 85.2438H50.169H50.2223H50.2756H50.3822H50.4355L50.4888 85.2974L50.5421 85.351H50.5954L50.702 85.4046H50.8086H50.9152H50.9685H51.0751L51.1283 85.4582V85.5118L51.2349 85.5654H51.2882H51.3415V85.619L51.3948 85.6726L51.5547 85.619H51.608L51.6613 85.6726L51.7146 85.7263V85.7799V85.8335V85.8871V85.9407V85.9943L51.6613 86.0479V86.1015L51.608 86.1551V86.2087L51.5547 86.2623L51.608 86.3159L51.6613 86.3695V86.4231H51.608V86.4768L51.5014 86.584V86.6376V86.6912V86.7448V86.7984V86.9056L51.4481 87.0128H51.3948L51.3415 87.0664L51.3948 87.1737V87.2273L51.4481 87.2809L51.5014 87.3881L51.7679 87.4953L51.9278 87.5489L52.0877 87.6025L52.3009 87.6561L52.4075 87.5489L52.5141 87.4953L52.8338 87.3881H52.8871H52.9404L53.047 87.3345L53.1003 87.2809H53.1536L53.3668 87.2273L53.4201 87.1737L53.5267 87.12H53.6865H53.7398L53.8464 87.1737L53.953 87.2273H54.0063L54.1662 87.3881H54.2195L54.2728 87.4417L54.3794 87.5489L54.486 87.6025L54.5926 87.6561H54.6459L54.7524 87.7633H54.8058L54.859 87.8706L54.9656 87.9778L55.0189 88.0314V88.1386L55.0722 88.2458H55.1255V88.353L55.1788 88.4066V88.4602L55.2321 88.5674L55.2854 88.6747L55.3387 88.7283L55.392 88.8355L55.4453 88.8891L55.392 88.9963V89.1035L55.3387 89.1571V89.2107L55.2321 89.318L55.3387 89.3716V89.4252L55.4453 89.5324L55.4986 89.586V89.6396L55.5519 89.6932L55.6052 89.7468L55.4986 89.854V89.9076L55.4453 89.9612L55.392 90.0149L55.3387 90.1221L55.2854 90.1757L55.1788 90.3901V90.4973L55.0722 90.5509L55.0189 90.7117L54.9656 90.819L54.9124 90.9262V90.9798L54.859 91.087L54.8058 91.1406L54.7524 91.1942L54.6459 91.355L54.5926 91.4086L54.5393 91.5159L54.486 91.5695L54.4327 91.6767L54.3261 91.7303L54.2728 91.8375L54.2195 91.9983L54.1662 92.0519L54.1129 92.1592L54.0596 92.2664V92.32V92.4272L54.0063 92.5344H53.953L53.8997 92.6416L53.8464 92.6952L53.7398 92.7488L53.6865 92.8024L53.5267 92.9633L53.4734 93.0169L53.5267 93.1241H53.58L53.6865 93.2313V93.3385L53.7398 93.4457V93.4993V93.5529L53.6865 93.6066L53.7398 93.6602H53.7931L53.8464 93.7674V93.821L53.7931 93.8746V93.9282L53.7398 93.9818L53.6865 94.089H53.7398V94.1426L53.6865 94.1962H53.6333L53.58 94.1426L53.5267 94.2498L53.4734 94.3035H53.4201V94.3571H53.3135H53.2602L53.2069 94.4107L53.1536 94.4643H53.1003L52.9937 94.5715V94.6251L52.9404 94.6787L52.8871 94.8395L52.7805 95.054L52.7272 95.1076V95.1612V95.2148L52.6739 95.322L52.6206 95.3756L52.5673 95.4292L52.5141 95.5364H52.4607L52.4075 95.4828H52.3009H52.2476H52.1943H52.0877L51.8745 95.5364L51.8212 95.59L51.6613 95.6972L51.5547 95.8045L51.5014 95.8581L51.4481 95.9117L51.3948 95.9653L51.2882 96.0725V96.1261L51.2349 96.1797L51.1817 96.2333V96.2869L51.1283 96.3941V96.4478L51.0218 96.555H50.9685L50.9152 96.6086L50.7553 96.6622L50.6487 96.7158L50.5954 96.7694H50.5421V96.823L50.4888 96.7694V96.823L50.3289 96.9302L50.3822 97.0374H50.3289V97.091V97.1446L50.2756 97.1983V97.2519H50.2223L50.169 97.3055L50.1158 97.3591L50.0092 97.4663L49.9558 97.5199L49.9026 97.5735L49.796 97.6271L49.6894 97.6807H49.5295H49.4762L49.3696 97.7343L49.3163 97.7879L49.263 97.8415L49.1564 97.8952L49.0498 98.0024L48.9965 98.056V98.1632M48.9965 98.1632V98.2168M48.9965 98.1632L49.0498 98.324L48.9432 98.5384L48.8899 98.5921V98.6457L48.8366 98.6993V98.8601V98.9137V98.9673V99.0745V99.1281L48.8899 99.2353H48.8366V99.3426V99.4498L48.7834 99.5034V99.557V99.6642V99.7714V99.8786V99.9858V100.039V100.147L48.73 100.307V100.415L48.7834 100.576L48.8366 100.683L48.8899 100.736H48.9432H48.9965L49.0498 100.683H49.1564H49.263L49.3163 100.736L49.3696 100.79L49.263 100.897L49.2097 100.951L49.1031 101.004V101.058L48.9965 101.112V101.165V101.219V101.326V101.38V101.433V101.54L48.9432 101.648V101.701L48.8899 101.755V101.809L48.8366 101.862L48.7834 101.916L48.73 102.023L48.6768 102.13H48.6234H48.5702H48.5169H48.4636V102.237L48.4103 102.291V102.452L48.4636 102.505L48.4103 102.559L48.357 102.613L48.3037 102.773L48.2504 102.827L48.1971 102.881L48.0905 102.988V103.041V103.095V103.202V103.31L48.1438 103.417V103.47L48.0905 103.578V103.685H48.0372L47.9306 103.792H47.8773L47.824 103.846V104.006V104.114V104.167V104.328L47.7707 104.489L47.7174 104.542V104.65L47.6641 104.811L47.7174 104.918L47.824 104.971L47.8773 104.918V104.864L47.9306 104.757L48.0372 104.703H48.1438H48.1971V104.757L48.2504 104.811V104.864L48.1971 105.025L48.1438 105.132L48.0905 105.186L47.9839 105.293H47.8773L47.824 105.347L47.8773 105.454L47.824 105.561V105.615L47.7174 105.668L47.6641 105.722H47.6109H47.5575L47.5043 105.775L47.451 105.883L47.3977 105.99V106.043L47.451 105.99L47.5043 105.936V105.99L47.5575 105.936V105.883H47.6109H47.6641H47.7174H47.7707H47.824V105.936V105.99H47.8773H47.9306V106.043L47.9839 106.097H48.0372H48.0905V106.151H48.1438V106.258H48.1971H48.2504V106.204H48.3037V106.258V106.312H48.4103V106.365L48.4636 106.312L48.5169 106.419M48.5169 106.419H48.4636M48.5169 106.419H48.5702V106.526V106.58V106.633H48.6234V106.687L48.6768 106.848V106.955L48.73 107.062L48.8366 107.223L48.8899 107.276L48.9965 107.437L49.0498 107.491L49.1031 107.545L49.263 107.813L49.3696 107.92L49.4762 108.027L49.5828 108.134L49.7427 108.349V108.402L49.8493 108.563L49.9558 108.617L50.0092 108.67L50.1158 108.724L50.2223 108.938L50.2756 108.992V109.153L50.3822 109.26V109.367L50.4888 109.528L50.5421 109.582L50.5954 109.635L50.6487 109.742V109.85L50.7553 109.903L50.8086 110.01L50.9152 110.118L50.9685 110.171L50.9152 110.278H50.9685L51.0218 110.225H51.0751L51.1283 110.278H51.1817H51.2349V110.332V110.386H51.3415L51.2882 110.439V110.493V110.6H51.3415V110.547H51.3948V110.6V110.654H51.4481L51.3948 110.707L51.4481 110.761V110.707L51.5014 110.761L51.4481 110.868L51.5014 110.922V110.975V111.029L51.4481 111.083L51.5014 111.136V111.19V111.297V111.351L51.5547 111.458H51.608L51.5547 111.511L51.6613 111.726L51.9278 111.994V112.101H51.9811L52.0344 112.155V112.262L52.0877 112.316L52.141 112.262V112.316V112.369V112.423H52.1943V112.476V112.53V112.584H52.2476L52.1943 112.637H52.2476V112.691H52.3009V112.744H52.2476V112.798H52.3541V112.852L52.4075 112.905V112.959L52.4607 113.012H52.5673L52.6739 113.066L52.7272 113.173V113.281H52.7805L52.8871 113.173L52.9404 113.12L52.9937 113.066H53.1003L53.1536 113.012V112.959V112.905V112.852H53.2069H53.3135H53.3668V112.905V112.959L53.3135 113.012H53.2602V113.066H53.3135L53.3668 113.012H53.4734L53.5267 112.959L53.58 112.905V112.852L53.6333 112.798L53.7931 112.852L53.8464 112.905L53.8997 112.959H53.953L54.0063 112.905L54.0596 112.852L54.1129 112.798L54.1662 112.744V112.691H54.2195L54.1662 112.584L54.2195 112.53L54.2728 112.584H54.3261L54.3794 112.53L54.3261 112.423V112.369V112.316H54.3794H54.4327L54.486 112.369H54.5393H54.6459L54.6992 112.316L54.8058 112.262L54.9124 112.208V112.155H54.9656L55.0189 112.262L55.1255 112.369L55.1788 112.423L55.2321 112.369V112.316L55.3387 112.208L55.4453 112.048L55.4986 111.994H55.5519H55.6052H55.7118L55.6585 112.048V112.101L55.7118 112.155V112.048L55.8184 111.94L55.925 111.887V111.94V111.994L55.8717 112.101V112.208V112.262H55.925L55.9783 112.208H56.0316L55.9783 112.316V112.423L55.925 112.476L55.8717 112.53L55.8184 112.584V112.637L55.7118 112.744H55.6585L55.6052 112.798L55.5519 112.852L55.4986 112.905L55.392 113.12L55.3387 113.227V113.281L55.2854 113.334H55.2321V113.388V113.441V113.549L55.3387 113.656L55.392 113.709V113.656H55.4453L55.5519 113.709L55.6052 113.763H55.5519V113.817H55.4453V113.87V113.924V113.977L55.392 114.085L55.4453 114.138V114.299H55.392H55.3387V114.353L55.2854 114.406H55.3387L55.2854 114.46L55.2321 114.513V114.567L55.1788 114.621L55.2321 114.674L55.1788 114.728V114.782V114.889L55.1255 114.942V114.996H55.0722L55.1255 115.05L55.0189 115.103V115.05L54.9656 115.103H54.9124H54.859L54.8058 115.157V115.264V115.318V115.371V115.478V115.532V115.586V115.639V115.693V115.8L54.859 115.907L54.8058 116.014L54.7524 116.122V116.175L54.8058 116.229L54.7524 116.283L54.8058 116.336L54.7524 116.39H54.8058L54.7524 116.443L54.6992 116.497H54.6459L54.5393 116.604V116.658V116.711L54.486 116.765L54.5393 116.819V116.872L54.5926 116.926V116.979L54.5393 117.033V117.087L54.486 117.14L54.5393 117.194V117.301H54.486H54.4327V117.355H54.3261H54.2728H54.2195H54.1662L54.1129 117.301L54.0596 117.247L54.0063 117.301H53.953H53.8997V117.355H53.8464L53.7931 117.408H53.7398V117.462H53.6865H53.6333V117.569H53.58L53.5267 117.516V117.462H53.4734V117.408H53.4201H53.3668L53.3135 117.462H53.2602L53.2069 117.408V117.301L53.2602 117.194H53.2069V117.14H53.1536V117.194L53.1003 117.087V117.033L53.047 116.979L52.9937 117.033H52.9404H52.8871V116.979H52.8338H52.7805L52.8338 116.926H52.7805H52.7272H52.6739L52.6206 116.872V116.819H52.5673H52.5141V116.765L52.4607 116.711L52.4075 116.765H52.3541V116.819H52.2476V116.872L52.1943 116.926H52.141M52.141 116.926L52.0877 116.979M52.141 116.926V116.979L52.0877 117.087L52.0344 117.033L51.9811 117.087V117.033L51.9278 117.087H51.8745H51.8212V117.14V117.194H51.8745V117.247V117.301L51.8212 117.355L51.7679 117.301V117.355V117.408H51.8212V117.462V117.569V117.623V117.676L51.9278 117.73V117.784H51.9811L51.9278 117.837H51.8745L51.8212 117.891H51.7679L51.7146 117.944H51.608H51.5547L51.5014 117.891L51.4481 117.837L51.3948 117.891H51.3415V117.998H51.2882V118.052H51.2349V118.105H51.1817L51.1283 118.052H51.0751M51.0751 118.052V118.105M51.0751 118.052H51.0218L50.9685 118.105H50.9152H50.8619L50.8086 118.052L50.7553 117.998H50.702H50.6487M50.6487 117.998V118.052M50.6487 117.998L50.5954 117.944V117.891L50.5421 117.837V117.891H50.4888H50.4355H50.3289V117.837H50.2223V117.891H50.169L50.1158 117.944H50.169V117.998H50.1158L50.0624 118.052V117.998L49.9558 118.052L49.9026 118.105V118.159H49.8493L49.796 118.212L49.6894 118.266V118.212H49.6361V118.159H49.5828V118.212L49.5295 118.159H49.4762H49.4229H49.3696H49.3163L49.263 118.212V118.266L49.2097 118.32H49.1564L49.1031 118.427M49.1031 118.427V118.373M49.1031 118.427H48.9965V118.48H48.9432V118.534L48.9965 118.588L49.0498 118.641L49.1031 118.695L49.1564 118.802L49.2097 118.856V118.909L49.1564 118.963H49.2097L49.1564 119.017L49.2097 119.124L49.263 119.177L49.2097 119.231V119.285L49.1564 119.338L49.1031 119.392V119.445H49.1564V119.499V119.553L49.1031 119.606H49.1564L49.1031 119.713H49.0498V119.767L49.1031 120.035H49.0498H48.9965V119.981H48.9432V120.089V120.142L48.8899 120.249L48.8366 120.303V120.41L48.7834 120.518H48.73L48.6768 120.571V120.625L48.73 120.678H48.6768L48.6234 120.732L48.5702 120.678L48.5169 120.732V120.839V120.946V121.054V121.107V121.161L48.5702 121.214V121.322L48.5169 121.375V121.429V121.536H48.4636L48.4103 121.697H48.357L48.3037 121.751L48.1971 121.858V121.911V121.965L48.1438 122.072V122.126V122.179L48.0905 122.287L48.0372 122.34H47.9839L47.9306 122.394L47.8773 122.501V122.555L47.824 122.662L47.7174 122.715V122.769V122.823L47.6641 122.876L47.6109 122.983H47.5575L47.5043 123.037H47.451L47.3444 123.091L47.2911 123.198H47.2378L47.1312 123.252V123.305L47.0246 123.359L46.918 123.412L46.8647 123.52V123.573H46.8114H46.7581H46.7048V123.627V123.734L46.6515 123.788L46.4916 123.841L46.4383 123.895V123.948V124.002L46.3851 124.056L46.3317 124.109H46.2785L46.1719 124.163L46.1186 124.377H46.0653H46.012L45.9587 124.324L45.9054 124.27H45.8521L45.7988 124.324V124.377V124.431L45.6922 124.484H45.6389H45.5856H45.5323V124.592V124.645L45.5856 124.753L45.6389 124.86L45.5856 124.913L45.5323 124.967H45.4257L45.3724 125.021V125.074V125.128L45.4257 125.181L45.3724 125.289V125.396V125.503L45.3191 125.557H45.2658L45.2125 125.61V125.664V125.717L45.1592 125.825V125.932V126.039V126.093V126.146H45.1059V126.093L45.0527 126.039L44.9994 126.146V126.2V126.254L45.0527 126.414V126.468L44.9994 126.522V126.629H44.9461L44.8928 126.682V126.736L44.9461 126.79L44.9994 126.897V127.004L45.0527 127.058V127.111H44.9994H44.9461H44.8395L44.7862 127.165L44.8395 127.218H44.8928L44.8395 127.326V127.379V127.433V127.54V127.594L44.7329 127.54L44.6263 127.487H44.573V127.594L44.6263 127.647V127.701L44.573 127.808V127.862H44.5197H44.4664V128.023L44.5197 128.076V128.13L44.4664 128.183L44.4131 128.13H44.3598H44.3065L44.2532 128.183V128.291L44.3065 128.344L44.2532 128.398H44.1999L44.1466 128.505V128.559V128.612L44.0933 128.719L43.9868 128.666H43.9334H43.8802H43.8268L43.7736 128.719L43.8268 128.773L43.8802 128.88L43.9334 128.988V129.041V129.095L43.8802 129.148L43.8268 129.202V129.256V129.309V129.416V129.47H43.7736H43.7203L43.667 129.524L43.5604 129.577L43.5071 129.631L43.5604 129.738H43.667H43.7203V129.792V129.845V129.952V130.006L43.667 129.952L43.6137 129.899L43.5071 129.952H43.4538L43.4005 130.006V130.06V130.113L43.4538 130.274V130.328L43.5604 130.381V130.435L43.6137 130.542V130.649V130.81V130.864L43.667 130.917H43.7736L43.8268 130.971L43.9334 130.917H43.9868H44.04V130.971L44.0933 131.025L44.04 131.239V131.293L44.0933 131.4L44.1466 131.507L44.1999 131.614H44.2532L44.3065 131.668L44.4664 131.721L44.573 131.775L44.6263 131.829V131.936V131.99L44.573 132.097H44.5197V132.15V132.311V132.472L44.573 132.579L44.6263 132.686L44.7329 132.794L44.7862 132.847V132.901L44.7329 133.115V133.169V133.33V133.383L44.7862 133.491L44.8395 133.544V133.598L44.9461 133.651L44.9994 133.705H45.0527L44.9994 133.812V133.866H44.8928H44.7862H44.7329L44.6796 133.919V133.973V134.08H44.7329L44.8928 134.187L44.9461 134.241L44.9994 134.295L45.1059 134.402L45.1592 134.509V134.616V134.67V134.777L45.2125 134.938V134.992V135.099V135.313V135.42L45.1592 135.528L45.1059 135.635L45.0527 135.688V135.742V135.849L45.1059 135.956L45.1592 136.117V136.225V136.332L45.1059 136.493V136.6V136.653V136.761L45.2125 136.921V137.029L45.2658 137.136V137.243V137.297L45.3191 137.35L45.4257 137.511L45.479 137.565L45.5323 137.672V137.726V137.779L45.4257 137.886L45.3191 138.047L45.2658 138.208V138.315L45.3191 138.422L45.3724 138.476L45.5323 138.583L45.5856 138.637L45.6389 138.798L45.6922 138.959L45.7455 139.119L45.6922 139.334V139.387L45.7455 139.495V139.602L45.7988 139.87V139.977L45.8521 140.138V140.191L45.9587 140.352L46.1719 140.567L46.012 140.674L45.9587 140.513L45.7988 140.46H45.6922L45.5856 140.406H45.5323L45.479 140.352H45.3724L45.2125 140.299H45.1059H44.8928H44.7329L44.5197 140.352L44.3065 140.406H44.2532L44.0933 140.46L43.9334 140.513L43.7736 140.567L43.4538 140.674L43.3472 140.728L43.2406 140.781L43.134 140.835M43.134 140.835L43.0807 140.888H43.0274L42.9741 140.835M43.134 140.835H43.0274M43.134 140.835L43.1873 140.781L43.2406 140.728H43.134L43.0807 140.781L43.0274 140.835M42.9741 140.835H43.0274M42.9741 140.835H42.9208L42.8142 140.888L42.7076 140.942H42.6544L42.5478 140.996H42.4945L42.3879 141.049L42.3346 141.103L42.2813 141.156L42.228 141.21V141.156L42.1747 141.21H42.1214L42.0681 141.264H42.0148L41.9082 141.371H41.8016V141.424H41.695L41.5885 141.532L41.4819 141.585M41.4819 141.585V141.532M41.4819 141.585H41.4285V141.692L41.3753 141.746L41.322 141.8V141.746L41.2687 141.853L41.1621 141.907H41.1088L41.0555 141.961L41.0022 142.014L40.9489 142.121L40.8956 142.175H40.9489L40.8423 142.336H40.789H40.7357L40.5758 142.282L40.5225 142.336H40.4692L40.4159 142.389L40.3093 142.443H40.2027V142.497L40.0961 142.55L40.0429 142.604L39.9896 142.657L39.9363 142.711H39.883L39.7764 142.765L39.7231 142.818L39.6698 142.872L39.5632 142.925L39.4566 143.033L39.4033 143.086H39.2967L39.2434 143.14V143.194V143.247H39.1901V143.301H39.2434L39.1901 143.354H39.1368V143.301H39.0835L39.0302 143.247L38.977 143.301L38.9237 143.354L38.8171 143.462L38.7105 143.569H38.6572L38.7105 143.622H38.6572M41.4819 141.532V141.478V141.424V141.532ZM38.6572 143.622L38.7105 143.676M38.6572 143.622V143.73L38.6039 143.783V143.676L38.5506 143.73H38.4973H38.444L38.3907 143.783V143.837L38.2841 143.89L38.2308 143.944H38.1775L38.1242 143.998H38.0709V144.051L37.8578 144.105L37.7512 144.051H37.6978H37.6446H37.538L37.4847 144.105H37.4314L37.3781 144.158V144.212H37.3248L37.2182 144.319H37.1649V144.266H37.1116H37.0583H37.005L36.9517 144.319H36.8984H36.8451V144.373H36.7918L36.7385 144.426L36.6852 144.373H36.7385V144.319H36.6852V144.426H36.4188V144.48H36.3655H36.3122H36.2589V144.534L36.2056 144.48V144.534H36.1523L36.099 144.587L36.0457 144.641L36.1523 144.587H36.2056V144.641V144.695H36.1523L36.099 144.802H36.0457V144.855V144.909L36.099 145.07V145.123L36.0457 145.231L35.9924 145.284H35.9391H35.8858L35.8325 145.338V145.391L35.8858 145.445L35.8325 145.499H35.7792H35.7259V145.552H35.6726H35.566L35.5127 145.499L35.4595 145.445L35.4061 145.284H35.3529L35.193 145.231L35.1397 145.177H35.0864V145.123V145.07H35.0331L34.9798 145.016H34.9265H34.8732L34.8199 144.963L34.7133 144.855L34.66 144.802H34.6067L34.5534 144.748L34.5001 144.695M34.5001 144.695H34.5534V144.641H34.5001V144.695ZM34.5001 144.695L34.4468 144.587L34.3935 144.534H34.3402V144.48H34.2869V144.426H34.2336H34.1803V144.373V144.319L34.1271 144.373V144.426V144.48H34.0737V144.534H34.1271H34.1803V144.587V144.641L34.1271 144.695M34.1271 144.695L34.0737 144.641V144.695H34.1271ZM34.1271 144.695H34.1803V144.748H34.0737V144.802V144.855H34.0205L33.9139 144.909H33.8606H33.8073H33.7007V144.855L33.6474 144.802H33.5941L33.4875 144.748M33.4875 144.748L33.5408 144.855M33.4875 144.748V144.802L33.5408 144.855M33.4875 144.748L33.4342 144.695M33.5408 144.855H33.5941V144.909L33.5408 144.855ZM33.4342 144.695L33.3276 144.802M33.4342 144.695L33.3809 144.641H33.3276L33.1144 144.587L33.0611 144.534V144.587H33.0078L32.9012 144.534L32.7947 144.426H32.848L32.7414 144.373L32.6348 144.266L32.5815 144.212M32.5815 144.212H32.5282M32.5815 144.212L32.5282 144.158L32.4749 144.105V144.158H32.3683L32.4749 144.266L32.5815 144.319H32.6348L32.6881 144.373V144.426M32.6881 144.426L32.848 144.534L32.9012 144.587L32.9546 144.641L33.0078 144.695M32.6881 144.426L33.0078 144.695M32.6881 144.426L32.4216 144.266L32.1551 144.051L31.7288 143.73L31.5156 143.622L31.2491 143.408H31.1958L31.1425 143.354M33.0078 144.695H33.0611H33.1144L33.1677 144.748L33.221 144.802L33.3276 144.855L33.3809 144.909L33.4875 145.016L33.5408 145.07L33.6474 145.177H33.7007L33.754 145.231L33.8073 145.284L33.8606 145.338L33.9139 145.391H33.8606L33.7007 145.231L33.3809 144.963L33.1677 144.802L33.0078 144.695ZM31.1425 143.354V143.408M31.1425 143.354H31.0892L31.0359 143.301H30.9826H30.9293L30.876 143.247H30.8227M30.8227 143.247V143.301M30.8227 143.247L30.7694 143.194V143.247M30.8227 143.247H30.7694M30.7694 143.247V143.301M30.7694 143.247L30.7161 143.194L30.6628 143.14V143.194L30.6095 143.14H30.5562M30.5562 143.14L30.5029 143.194M30.5562 143.14V143.033H30.6095V142.979V142.925H30.5562V142.979H30.5029V143.086V143.14V143.194M30.5029 143.194L30.4497 143.14L30.3964 143.086L30.1832 142.979L30.0233 142.925L29.9167 142.872H29.8101L29.4903 142.711L29.3837 142.657H29.2771L29.2239 142.604L29.1705 142.657H29.1173H29.0107L28.9574 142.711L28.7975 142.657H28.7442V142.711H28.6909H28.5843H28.531V142.765H28.4777V142.818L28.3178 142.765H28.2645V142.818H28.2112H28.1579M28.1579 142.818V142.872M28.1579 142.818L27.9447 142.765H27.8382H27.7849H27.7316H27.6783V142.818H27.625L27.5717 142.872M27.5717 142.872L27.5184 142.818M27.5717 142.872H27.5184M27.5717 142.872L27.625 142.925H27.5717H27.5184H27.4651H27.4118L27.3585 142.979H27.2519L27.1986 143.033V143.086H27.1453H27.092H27.0387M27.5184 142.818H27.4651V142.765H27.4118V142.818H27.5184ZM27.0387 143.086V143.14L26.9854 143.086H27.0387ZM27.0387 143.086H26.9322H26.8788H26.8256L26.7722 143.14V143.086H26.719H26.6657L26.6124 143.033H26.5591L26.4525 142.979V142.925L26.2926 142.818L26.2393 142.765L26.1327 142.711L26.0794 142.657L26.0261 142.604H25.9195L25.8129 142.497L25.653 142.443L25.4932 142.389L25.3333 142.336H25.2267H25.1734H25.1201V142.389H25.0668M25.0668 142.389V142.443M25.0668 142.389L24.9602 142.443H24.9069V142.497H24.8003V142.55M24.8003 142.55V142.604M24.8003 142.55H24.747M24.747 142.55V142.604M24.747 142.55H24.6937V142.604V142.657L24.6404 142.604V142.657L24.5871 142.604M24.5871 142.604V142.657M24.5871 142.604L24.5338 142.657M24.5338 142.657V142.604M24.5338 142.657H24.4805H24.4273H24.3739H24.3207H24.2674V142.711H24.2141V142.765H24.1608V142.711H24.1075H24.0542V142.765H24.0009H23.9476H23.8943H23.841H23.7877H23.7344V142.711L23.6811 142.765V142.711H23.6278H23.5745H23.5212V142.657H23.4679L23.4146 142.604H23.3613H23.308V142.55H23.2547M23.2547 142.55V142.604M23.2547 142.55L23.2015 142.604V142.55H23.1481H23.0949L23.0415 142.497H22.9883V142.443H22.935L22.8817 142.389M22.8817 142.389V142.443M22.8817 142.389L22.8284 142.443V142.389H22.7751H22.7218H22.6685H22.6152V142.336H22.5619H22.5086M22.5086 142.336V142.389M22.5086 142.336H22.4553L22.402 142.389L22.3487 142.336H22.2954V142.282H22.2421H22.1888L22.0822 142.229H22.0289V142.175V142.121L21.8691 142.175V142.121H21.8158V142.014L21.7092 141.961H21.6026H21.5493L21.3361 141.853H21.2828H21.2295H21.1762H21.1229H21.0696L21.0163 141.907V141.961H20.963H20.9097H20.8564V141.907H20.8032L20.7498 141.853H20.6966L20.4834 141.8H20.4301L20.2169 141.746L20.0037 141.8H19.9504V141.853L19.8971 141.8M19.8971 141.8V141.853M19.8971 141.8H19.8438L19.6839 141.853H19.4708L19.3109 141.961L19.0444 142.121L18.9378 142.229L18.8845 142.282L18.8312 142.336L18.8845 142.389M18.8845 142.389H18.9378M18.8845 142.389V142.443V142.497V142.55L18.8312 142.604V142.657L18.8845 142.711V142.765V142.818L18.8312 142.872L18.8845 142.925H18.8312H18.7779V142.872H18.7246H18.6713V142.818H18.618H18.5647L18.5114 142.765H18.4049H18.2449L18.1917 142.818H18.0851H18.0318H17.9252L17.8719 142.765L17.8186 142.818V142.765H17.712L17.6054 142.711L17.5521 142.765V142.818L17.4988 142.765L17.4455 142.818H17.3922L17.3389 142.872L17.2856 142.979L17.179 143.033V142.979L17.0725 143.033H17.0191V143.086H16.9659H16.9125V143.14L16.806 143.086V143.14H16.7527H16.6994H16.6461H16.5928H16.5395V143.194H16.4862L16.3796 143.247L16.3263 143.354H16.273V143.408H16.2197L16.1664 143.354H16.2197L16.1131 143.301H16.0065H15.9H15.8466H15.7934H15.7401H15.5802L15.4736 143.354L15.3137 143.408H15.2604L15.1538 143.462H15.0472V143.515L14.9939 143.569H14.8873L14.834 143.622V143.73V143.783H14.7807V143.837L14.7274 143.89L14.6742 143.944H14.6208V143.89H14.5676L14.461 143.837V143.89H14.4077L14.3544 143.837V143.89H14.3011H14.2478H14.1945V143.944H14.1412H14.0879H14.0346H13.9813V144.051V144.105L13.928 144.212V144.158L13.8747 144.212V144.266H13.8214L13.7681 144.426H13.7148M13.7148 144.426V144.48M13.7148 144.426H13.6615V144.48H13.6082H13.5549H13.4483L13.395 144.534L13.3418 144.587L13.2885 144.641L13.2352 144.695V144.802L13.395 144.748L13.3418 144.855V144.909H13.2885V144.963L13.2352 145.016H13.1819V144.963L13.1286 144.909H13.022L12.9687 144.963V145.016H12.9154L12.8621 145.07V145.177L12.9154 145.231H12.8088V145.123V145.07L12.8621 144.963V144.855L12.8088 144.802H12.7555V144.695H12.7022V144.641H12.6489V144.587H12.5956V144.534M12.5956 144.534H12.6489M12.5956 144.534L12.6489 144.48H12.5956H12.5423V144.426L12.4357 144.373H12.3824V144.426H12.3291V144.373H12.2759H12.2225H12.1693M12.1693 144.373V144.319M12.1693 144.373L12.1159 144.319L12.0627 144.426L12.1159 144.48L12.0627 144.534V144.587L12.0094 144.534V144.48V144.426H11.9561L11.9028 144.534V144.48H11.8495H11.7962L11.8495 144.426L11.9028 144.373L11.9561 144.319V144.266H12.0094V144.212V144.158M12.0094 144.158H11.9561M12.0094 144.158H12.0627V144.105L12.1159 144.051L12.1693 143.944V143.89V143.837V143.783H12.1159L12.0627 143.73H12.1159H12.1693V143.676V143.622V143.569H12.2225V143.515H12.2759V143.462H12.3291V143.408L12.3824 143.354L12.4357 143.301V143.247H12.489L12.5423 143.194V143.14L12.5956 143.086V142.925L12.5423 142.872H12.5956V142.765V142.711H12.6489L12.5956 142.657H12.6489V142.604V142.55V142.497L12.7022 142.55H12.7555V142.497V142.443L12.8088 142.389L12.8621 142.443V142.389L12.9154 142.336V142.282H12.9687L13.0753 142.175V142.121L13.1819 142.014L13.2885 141.8M13.2885 141.8H13.2352M13.2885 141.8L13.3418 141.692L13.395 141.585V141.532V141.478V141.424H13.4483L13.5016 141.371V141.317V141.264V141.156H13.5549L13.5016 141.103H13.5549L13.6082 141.049V140.996V140.942H13.6615L13.7148 140.888H13.6615V140.835L13.7148 140.781H13.6615L13.7681 140.728V140.674L13.8214 140.567V140.46L13.7681 140.406H13.7148V140.352H13.6615V140.299V140.245L13.7148 140.191H13.6615V140.138H13.6082V140.084H13.6615V140.031L13.7148 139.977L13.6615 139.923L13.6082 139.87H13.5549V139.816H13.5016V139.763H13.5549L13.6082 139.709H13.6615H13.7148H13.7681L13.8747 139.602L13.928 139.548L13.9813 139.441L14.0879 139.28L14.1945 139.119V139.066H14.2478V139.012V138.959H14.3011V138.905V138.851V138.798H14.3544V138.744L14.4077 138.69L14.461 138.637V138.583L14.5142 138.422L14.5676 138.262L14.6742 138.047V137.994L14.7274 137.94V137.886V137.833V137.779V137.672L14.6742 137.618L14.6208 137.565V137.511V137.458L14.5676 137.404H14.6208L14.6742 137.297M14.6742 137.297H14.6208M14.6742 137.297V137.243V137.189L14.6208 137.136L14.5676 137.082H14.5142H14.461H14.4077V137.029H14.461V136.975V136.921M14.461 136.921L14.4077 136.975V136.921H14.461ZM14.461 136.921V136.868M14.461 136.868H14.4077M14.461 136.868L14.4077 136.814V136.761H14.461L14.5142 136.653H14.461L14.4077 136.546M14.4077 136.546V136.6M14.4077 136.546V136.493V136.439H14.3544V136.385H14.4077H14.461H14.5142L14.6208 136.278V136.225H14.5676L14.6208 136.171H14.6742V136.117H14.7274V136.064L14.7807 135.956L14.834 135.903L14.8873 135.849L14.9406 135.742V135.688L14.9939 135.635H15.0472L15.1005 135.528L15.0472 135.474H15.1005V135.42L15.1538 135.313H15.2071V135.26V135.206H15.2604V135.152V135.099H15.3137V135.045V134.938H15.367L15.4203 134.884V134.831L15.4736 134.777V134.724V134.67L15.5269 134.563H15.5802V134.509L15.6335 134.455V134.402V134.348L15.6868 134.241V134.187L15.7401 134.08H15.7934V134.027V133.973L15.8466 133.866V133.812V133.759H15.9L15.8466 133.705V133.651H15.9L15.8466 133.598V133.491V133.437H15.9V133.33H15.9532L15.9 133.276H15.9532M15.9532 133.276L15.9 133.223M15.9532 133.276L16.0065 133.223V133.115H16.0598V133.062H16.0065V133.008M16.0065 133.008V132.954M16.0065 133.008L16.0598 132.954H16.0065M16.0065 132.954V132.901V132.847H16.0598L16.0065 132.794V132.74H16.0598V132.686V132.633L16.0065 132.579H16.0598M16.0598 132.579V132.526M16.0598 132.579L16.1131 132.526L16.0598 132.418V132.365L16.0065 132.258H16.0598V132.204V132.15V132.097H16.1131V132.043V131.99L16.1664 131.936L16.1131 131.882V131.829M16.1131 131.829H16.0598V131.775H16.1131V131.829ZM16.1131 131.829L16.1664 131.775V131.721L16.1131 131.668V131.614V131.561V131.507H16.1664V131.453H16.2197V131.4V131.346H16.1664V131.293L16.1131 131.239H16.1664V131.185L16.2197 131.132M16.2197 131.132V131.185H16.273L16.2197 131.132ZM16.2197 131.132H16.273V131.078M16.273 131.078H16.2197M16.273 131.078V131.025V130.971V130.917V130.864V130.81H16.2197L16.273 130.757L16.3263 130.703V130.649V130.596V130.542H16.273V130.489V130.381H16.2197V130.328H16.273L16.2197 130.274L16.1664 130.22V130.167M16.1664 130.167H16.2197V130.113L16.1664 130.167ZM16.1664 130.167V130.113L16.1131 130.06H16.1664V130.006V129.952V129.899H16.1131L16.0598 129.792L16.1131 129.738H16.0598L16.0065 129.684V129.631H15.9532V129.524V129.47H15.9V129.416L15.7934 129.363L15.7401 129.309V129.256H15.7934V129.202H15.7401V129.148V129.095L15.6868 129.041V128.988H15.6335V128.934V128.827M15.6335 128.827H15.6868M15.6335 128.827V128.773H15.6868V128.719V128.666M15.6868 128.666V128.612L15.7401 128.666M15.6868 128.666H15.7401M15.7401 128.666L15.7934 128.559V128.505V128.023L15.8466 127.969V127.915M15.8466 127.915H15.7934M15.8466 127.915V127.862V127.808H15.9L15.8466 127.755H15.9L15.8466 127.701H15.9V127.647V127.594V127.54V127.487H15.9532V127.433L16.0065 127.379V127.272V127.218M16.0065 127.218H15.9532M16.0065 127.218V127.165M16.0065 127.165H15.9532M16.0065 127.165V127.111V127.058V127.004L16.0598 126.95H16.0065L16.0598 126.897V126.843L16.1131 126.682V126.629V126.575V126.522H16.1664V126.468V126.414V126.361L16.2197 126.307V126.254H16.1664V126.2L16.2197 126.146H16.1664V126.093L16.1131 126.039V125.985H16.1664H16.2197V125.932V125.878V125.825L16.273 125.771L16.3263 125.717V125.61H16.273H16.2197V125.557H16.1664V125.449V125.396L16.1131 125.289V125.235V125.181V125.128H16.0598M16.0598 125.128H16.0065M16.0598 125.128L16.0065 125.074H15.9532V125.021H15.9L15.8466 124.967H15.7934V124.913V124.86V124.806V124.753H15.8466V124.699L15.9 124.645H15.8466V124.592V124.538L15.9 124.484V124.431V124.377V124.324V124.27H15.9532L15.9 124.216H15.9532L15.9 124.163V124.056V124.002H15.9532V123.841L16.0065 123.734V123.68H15.9532V123.627V123.52L16.0065 123.412L16.0598 123.198L16.1131 123.091L16.1664 122.876V122.823L16.2197 122.715V122.608V122.555L16.1664 122.501L16.2197 122.447V122.394V122.34L16.1664 122.233V122.179V122.126V122.072M16.1664 122.072V122.019M16.1664 122.072L16.1131 122.019M16.1131 122.019V122.072M16.1131 122.019V121.965L16.1664 121.911L16.1131 121.858H16.1664V121.804H16.1131L16.1664 121.751V121.697V121.643V121.59V121.429V121.375L16.1131 121.322H16.1664L16.1131 121.268V121.161V121.107L16.0598 121V120.839V120.786V120.732V120.678V120.625V120.571V120.518L16.0065 120.464V120.41L15.9532 120.357V120.303V120.142L15.9 119.981H15.8466V119.928M15.8466 119.928L15.7934 119.981M15.8466 119.928L15.7934 119.874H15.7401V119.821H15.6868L15.5802 119.767H15.5269L15.4736 119.713L15.3137 119.66H15.2604L15.2071 119.606V119.66L15.1538 119.713L15.1005 119.66V119.713L15.2071 119.821L15.1538 119.874L15.0472 119.767L14.9406 119.713L14.9939 119.66L14.9406 119.606L14.8873 119.713M14.8873 119.713L14.834 119.767M14.8873 119.713H14.834V119.767M14.8873 119.713V119.66L14.7807 119.606V119.553L14.834 119.606L14.8873 119.553L14.834 119.499V119.445H14.7807V119.392H14.7274M14.834 119.767L14.8873 119.874M14.834 119.767L14.6208 119.606M14.8873 119.874L15.0472 119.928L15.1005 120.035H15.0472L14.9939 119.981L14.8873 119.874ZM14.7274 119.392V119.445M14.7274 119.392V119.338H14.6742H14.6208V119.285M14.6208 119.285H14.6742M14.6208 119.285L14.6742 119.231H14.6208L14.5676 119.177H14.5142L14.461 119.231L14.5142 119.285H14.461H14.4077H14.3544V119.338H14.3011V119.285H14.2478L14.1945 119.231H14.1412M14.1412 119.231V119.285V119.338V119.392V119.499V119.553L14.0879 119.445V119.338V119.285L14.1412 119.231ZM14.1412 119.231V119.177V119.124V119.07H14.1945V119.017V118.963H14.2478V118.909L14.3011 118.856H14.3544V118.802H14.4077H14.461L14.5142 118.748L14.5676 118.695V118.641L14.6742 118.534L14.7274 118.373L14.7807 118.32V118.266L14.834 118.105H14.8873V117.998L15.1005 117.623L15.2071 117.355L15.367 116.926L15.4736 116.604L15.5269 116.551V116.443L15.6335 116.175V116.122L15.6868 116.068V115.961L15.7401 115.8L15.7934 115.639V115.586L15.8466 115.425L16.0065 115.05L16.0598 114.889V114.674L16.1131 114.567L16.2197 114.192L16.273 113.977V113.817L16.3796 113.441V113.388L16.4329 113.12V113.012V112.852L16.5395 112.262V111.672V110.493L16.3796 109.153L16.3263 108.885V108.831V108.724L16.273 108.617V108.563L16.2197 108.349V108.295L16.1664 108.241V108.188V108.134L16.1131 108.081V108.027V107.973L16.0598 107.813L16.0065 107.759V107.705V107.652V107.598L15.9 107.33V107.276L15.7934 107.169V107.116L15.7401 106.955L15.6868 106.901L15.6335 106.74L15.5269 106.58V106.472L15.4203 106.365L15.3137 106.204V106.151H15.2604L15.2071 106.097L15.0472 105.883L14.9406 105.775L14.834 105.722L14.7807 105.668L14.7274 105.615L14.6742 105.507L14.6208 105.454L14.461 105.347L14.4077 105.293L14.3544 105.239L14.3011 105.186L14.1412 105.025H14.0879L14.0346 104.971L13.928 104.918L13.8747 104.864V104.811L13.8214 104.757L13.7148 104.65L13.6615 104.596V104.542V104.489H13.7148L13.7681 104.382H13.8214H13.8747H13.928L14.0346 104.435L14.1412 104.489V104.542V104.596M14.1412 104.596L14.0879 104.542L14.0346 104.489H13.9813H13.928L13.9813 104.542H14.0346L14.0879 104.65L14.1412 104.703M14.1412 104.596H14.1945M14.1412 104.703H14.1945M14.1412 104.703V104.757H14.1945V104.811V104.864L14.2478 104.918V104.971V105.025L14.3544 104.971L14.3011 104.864L14.2478 104.811L14.3011 104.757L14.2478 104.703V104.65L14.1945 104.596M14.1945 104.596H14.3011L14.3544 104.65V104.757L14.461 104.864L14.5142 104.918V104.864L14.5676 104.918L14.5142 104.971L14.6208 105.079L14.7807 105.239L14.9406 105.4L15.0472 105.454L15.1005 105.507L15.2071 105.561H15.3137L15.4203 105.668V105.722M15.4203 105.722L15.4736 105.775M15.4203 105.722H15.367M15.367 105.722V105.668H15.3137L15.367 105.722ZM15.367 105.722L15.4203 105.883V105.936V105.99L15.4736 106.151H15.5269L15.5802 106.258L15.6335 106.419L15.6868 106.472L15.7401 106.58H15.7934V106.633L15.8466 106.687L15.9 106.794V106.901H15.9532V106.955V107.008L16.0065 107.169L16.0598 107.223M16.0598 107.223V107.276V107.33L16.1131 107.437H16.1664V107.491H16.273L16.2197 107.384V107.33L16.1664 107.384L16.0598 107.223ZM16.0598 107.223V107.169V107.116L16.1131 107.062V107.169H16.1664L16.2197 107.116H16.1664V107.062V107.008V106.955V106.901L16.2197 106.848V106.794H16.273L16.3263 106.74L16.273 106.687L16.3263 106.633V106.58L16.273 106.526L16.2197 106.472H16.1664H16.1131H16.0598L16.1664 106.365L16.0598 106.258L15.9532 106.204H15.8466V106.151V106.043L15.9 105.936L15.9532 105.829H16.0065H16.0598V105.883V105.936V105.99L16.1131 106.097H16.1664L16.2197 106.151V106.204V106.258L16.273 106.365V106.419L16.3263 106.312L16.4329 106.365L16.5395 106.419V106.526V106.58V106.633V106.687V106.74H16.5928L16.6461 106.687L16.6994 106.794L16.806 106.74L16.8593 106.794L16.9125 106.74H16.8593V106.687H16.9125V106.633L17.0191 106.58M17.0191 106.58V106.633M17.0191 106.58L17.179 106.526V106.472H17.2323L17.3389 106.419V106.472L17.4988 106.419H17.5521L17.6054 106.472H17.6587H17.7653H17.8186H17.8719H17.9252H18.0851H18.1917L18.1384 106.526L18.1917 106.58H18.2983L18.4049 106.633L18.5647 106.687V106.633H18.6713L18.7246 106.687H18.7779L18.8312 106.74H18.9378L18.9911 106.794L19.0444 106.687L18.8845 106.526L18.8312 106.472L18.7779 106.419H18.7246L18.6713 106.365L18.618 106.312L18.5114 106.204V106.097L18.3515 105.936L18.2983 105.883H18.2449L18.1917 105.829L18.1384 105.775H18.0851H18.0318H17.9785H17.9252L17.8719 105.829H17.9252L17.8719 105.883H17.8186H17.7653L17.712 105.829V105.775L17.7653 105.722V105.668H17.712V105.561V105.454V105.347V105.293V105.239L17.6587 105.186H17.712V105.132V104.971V104.864V104.703H17.6587L17.712 104.65L17.6587 104.489L17.6054 104.382V104.328V104.167V104.114L17.5521 104.06V104.006V103.953V103.846H17.6054H17.6587H17.712L17.8186 103.899H17.8719L17.9252 103.846V103.792H18.0318V103.738L17.9785 103.685V103.738H17.9252H17.8719L17.8186 103.792V103.846L17.7653 103.792V103.738L17.712 103.685L17.6587 103.738H17.6054H17.5521H17.4988H17.4455L17.3922 103.631L17.3389 103.578V103.524V103.417L17.2856 103.363V103.31V103.202V103.149H17.3389V103.041L17.3922 102.988L17.4455 102.934L17.3922 102.881L17.3389 102.827V102.773L17.2856 102.666V102.613M17.2856 102.613H17.3389M17.2856 102.613V102.559L17.3389 102.505L17.3922 102.398L17.4455 102.345L17.3922 102.291V102.345L17.3389 102.398H17.2856V102.452H17.2323H17.179V102.505H17.1257M17.1257 102.505V102.452M17.1257 102.505L17.179 102.559V102.666L17.1257 102.613V102.666H17.0725V102.72H17.1257V102.773V102.827L17.0725 102.881L16.9659 102.988M16.9659 102.988V102.934V102.881L16.9125 102.934V102.988H16.9659ZM16.9659 102.988V103.041M16.9659 103.041H16.8593H16.9125H16.9659ZM16.9659 103.041L16.9125 103.149L16.806 103.202L16.7527 103.256H16.6461L16.5928 103.31H16.5395H16.4862L16.4329 103.256L16.3796 103.202L16.4329 103.149M16.4329 103.149H16.4862V103.095M16.4329 103.149V103.095H16.4862M16.4329 103.149L16.3263 103.095L16.273 103.041M16.4862 103.095L16.5395 103.149L16.5928 103.041L16.5395 103.095H16.4862ZM16.273 103.041V102.988M16.273 103.041H16.2197M16.273 103.041V103.095L16.2197 103.149V103.095H16.1664H16.1131L16.1664 103.149V103.202L16.1131 103.256L16.0598 103.31V103.256L16.0065 103.31H15.9532M16.2197 103.041L16.1664 102.988H16.1131H16.0598V102.934V102.881H16.1131L16.0598 102.827M16.2197 103.041H16.1131H16.0598L16.0065 102.988V102.934M16.0598 102.827L16.0065 102.773H15.9532M16.0598 102.827L16.0065 102.934M16.0065 102.934L15.9532 102.881V102.934M16.0065 102.934H15.9532M15.9532 102.934H15.9V102.881H15.8466H15.7934M15.9532 103.31H15.9L15.9532 103.363M15.9532 103.31V103.363M15.9532 103.31L16.0065 103.363M15.9532 103.363H15.9M15.9532 103.363H16.0065M16.0065 103.363V103.417H15.9532V103.47H16.0065L16.0598 103.524V103.578L16.1131 103.524L16.1664 103.578V103.631L16.273 103.685M16.273 103.685H16.3263H16.3796V103.738H16.3263L16.273 103.685ZM16.273 103.685L16.2197 103.738H16.273V103.792H16.2197L16.1664 103.738V103.685L16.1131 103.792M16.1131 103.792H16.0598H16.0065H15.9532H15.9V103.738M16.1131 103.792L16.1664 103.846V103.899H16.1131V103.953H16.0598M16.0598 103.953L16.0065 103.846H15.9532M16.0598 103.953L16.0065 103.899L15.9532 103.846M16.0598 103.953H16.0065H15.9532V104.006H15.9L15.7934 103.953M15.9532 103.846H15.9H15.8466H15.7934M15.7934 103.846V103.899M15.7934 103.846L15.7401 103.899M15.7934 103.953V103.899M15.7934 103.953L15.6868 103.899M15.7934 103.899H15.7401M15.7401 103.899L15.6868 103.846M15.6868 103.846V103.792L15.5802 103.738L15.6335 103.792V103.846H15.6868ZM15.6868 103.899V103.953H15.6335M15.6868 103.899L15.6335 103.953M15.6335 103.953H15.5802M15.5802 103.953L15.5269 103.899V103.953M15.5802 103.953H15.5269M15.5802 103.953L15.6335 104.006H15.6868H15.7401L15.9 104.06M15.5269 103.953H15.4736M15.9 104.06H15.8466M15.9 104.06V104.114L15.9532 104.06L16.0598 104.114H16.1131L16.273 104.006H16.3263H16.3796H16.4862H16.5928L16.6461 104.06H16.6994L16.7527 104.114L16.8593 104.167L16.9659 104.221L17.0191 104.274H16.9659H16.9125V104.221L16.806 104.167H16.7527V104.221H16.806L16.7527 104.274L16.6994 104.221M16.6994 104.221V104.167H16.6461V104.221H16.6994ZM16.6994 104.221V104.274H16.5928L16.6461 104.328H16.6994L16.6461 104.435H16.5928H16.5395H16.4862V104.489M16.4862 104.489L16.5395 104.703L16.4862 104.811M16.4862 104.489V104.596V104.811M16.4862 104.489H16.4329M16.4862 104.811V104.864L16.4329 104.811H16.3796V104.703L16.3263 104.596V104.542M16.4862 104.811H16.5395V104.864V104.971H16.3796H16.3263M16.4329 104.489V104.435M16.4329 104.489H16.3796L16.3263 104.542M16.4329 104.489L16.3263 104.542M16.4329 104.489L16.3796 104.542H16.3263M16.3263 104.971V104.811M16.3263 104.971L16.273 104.918V104.971H16.1131L16.0598 104.918V104.971H16.0065L15.9532 104.864V104.811H16.0065V104.757L16.0598 104.703H16.1131L16.1664 104.65V104.596L16.0065 104.542H15.8466M15.8466 104.542V104.757H15.9V104.918L15.8466 104.864H15.7934V104.811L15.8466 104.703M15.8466 104.542V104.703M15.8466 104.542V104.596V104.703M15.8466 104.703H15.7934M15.7934 104.703V104.65H15.7401M15.7934 104.703H15.7401M15.7401 104.65V104.703M15.7401 104.65H15.6868L15.7401 104.703M15.7401 104.65V104.596V104.542M15.7401 104.542L15.6335 104.596M15.7401 104.542L15.6868 104.489L15.6335 104.542H15.5802H15.5269V104.435L15.4736 104.489L15.4203 104.435H15.367L15.3137 104.328V104.382L15.2604 104.328L15.2071 104.274L15.1538 104.221H15.1005V104.167L15.0472 104.114L14.9939 104.06V104.006H14.9406L14.8873 103.953L14.7807 103.899L14.6742 103.953L14.6208 103.899L14.5676 103.846V103.899L14.4077 103.792V103.738L14.2478 103.685M14.2478 103.685H14.1945M14.2478 103.685V103.631H14.1945H14.1412L14.1945 103.685M14.1945 103.685H14.0879H14.0346H13.928H13.8747L13.7681 103.792L13.6082 103.899V103.953L13.5549 103.899L13.5016 103.953H13.395L13.3418 104.06M13.3418 104.06V104.006M13.3418 104.06V104.114H13.2885V104.221L13.2352 104.274V104.382L13.1819 104.489V104.542H13.1286L13.022 104.596L12.9687 104.65H12.8621H12.7555H12.7022H12.5956H12.5423H12.489L12.4357 104.703L12.3824 104.757H12.2759L12.1693 104.811H12.1159V104.864V104.918V104.971L12.0627 105.025L12.0094 105.079L11.9561 105.132V105.186L11.9028 105.239L11.7962 105.293V105.347H11.7429L11.6363 105.4L11.583 105.454H11.5297H11.4764H11.4231L11.3698 105.507L11.3165 105.561H11.2632V105.615H11.2099V105.668H11.1566V105.722H11.1033V105.668H10.9967H10.9435H10.8901H10.8369V105.722L10.7836 105.775H10.7303L10.677 105.829H10.6237V105.883L10.5704 105.829H10.5171H10.4638L10.4105 105.883V105.936H10.3572V105.99M10.3572 105.99H10.4105M10.3572 105.99V106.043M10.3572 105.99H10.3039H10.2506H10.1973H10.144H10.0907H10.0374H9.98412V105.936H9.93083H9.87755V105.883H9.82424L9.66436 105.829L9.55776 105.775H9.45116L9.39788 105.829V105.883H9.34459H9.29128V105.936V105.99M9.29128 105.99L9.34459 105.936M9.29128 105.99V106.043M9.29128 106.043L9.39788 105.99L9.45116 105.936L9.34459 106.043H9.29128ZM9.29128 106.043H9.238H9.18468H9.1314L9.07812 106.097H9.0248H8.97152H8.9182V106.151H8.86492H8.81164M8.81164 106.151V106.204M8.81164 106.151H8.70504H8.65173H8.59844H8.54516H8.43856H8.38525V106.097H8.33196V106.151H8.27868H8.22537H8.17208H8.11877V106.204H8.06549V106.258H8.0122H7.95889V106.312V106.365H7.90561L7.85229 106.419H7.79901V106.472H7.74573V106.526H7.69241V106.58V106.633H7.63913H7.58581V106.687H7.53253V106.74H7.47925L7.42593 106.687H7.37265H7.31933V106.633H7.26605H7.21277H7.15945H7.10617H7.05286H6.99957V106.58H7.05286V106.526M7.05286 106.526H6.99957M7.05286 106.526V106.472H7.10617V106.419L7.05286 106.365H7.10617H7.15945V106.312H7.10617V106.258V106.204L7.15945 106.151V106.097L7.26605 105.936V105.883L7.31933 105.775V105.722L7.37265 105.668H7.31933L7.37265 105.615H7.42593V105.561L7.47925 105.507V105.4L7.53253 105.347H7.58581V105.293V105.239L7.63913 105.186V105.079L7.69241 105.025L7.74573 104.864L7.79901 104.65V104.489V104.274L7.85229 104.06V104.006V103.578V103.417L7.79901 103.31L7.74573 102.988V102.934L7.69241 102.773V102.666L7.63913 102.452L7.58581 102.291L7.47925 102.184L7.37265 101.916L7.31933 101.755L7.26605 101.54V101.38L7.21277 101.326L7.15945 101.272V101.165L7.10617 101.058L7.05286 101.004L6.99957 100.844L6.89298 100.736L6.83969 100.629L6.78638 100.522L6.7331 100.468L6.67981 100.415V100.361H6.6265V100.307L6.57322 100.254V100.2M6.57322 100.2H6.5199M6.57322 100.2L6.5199 100.147L6.46662 100.093V100.039L6.41333 99.9858V99.9322L6.30674 99.8786L6.25342 99.7714L6.20014 99.825V99.7714L6.14686 99.7178H6.20014L6.25342 99.6642H6.30674H6.41333V99.6106H6.46662M6.46662 99.6106L6.41333 99.4498H6.36002M6.46662 99.6106L6.5199 99.557L6.57322 99.4498L6.6265 99.3962H6.67981L6.7331 99.4498H6.78638V99.3962H6.83969H6.89298H6.99957H7.05286H7.10617L7.21277 99.3426H7.26605H7.31933M7.31933 99.3426L7.37265 99.2889M7.31933 99.3426H7.37265V99.2889M7.37265 99.2889H7.42593H7.47925V99.3426H7.53253V99.2889H7.58581M7.58581 99.2889V99.3426M7.58581 99.2889L7.63913 99.3426L7.69241 99.2889H7.79901H7.85229H7.90561H7.95889L8.0122 99.2353H8.06549H8.11877V99.1817H8.17208M8.17208 99.1817V99.2353M8.17208 99.1817H8.22537H8.27868L8.33196 99.1281H8.38525L8.43856 99.0745H8.49184H8.54516V99.0209H8.59844V99.0745H8.65173L8.59844 99.1281H8.65173V99.1817L8.59844 99.2353L8.65173 99.2889H8.70504L8.65173 99.3426L8.59844 99.3962L8.54516 99.4498V99.5034L8.59844 99.6106M8.59844 99.6106H8.65173M8.59844 99.6106L8.65173 99.6642H8.70504V99.6106L8.75832 99.6642V99.7178L8.81164 99.825L8.97152 99.9322H9.0248V99.9858M9.0248 99.9858H9.1314L9.29128 100.039H9.39788H9.45116H9.55776V100.093M9.0248 99.9858L9.07812 100.039L9.1314 100.093V100.147L9.238 100.2H9.29128V100.254L9.39788 100.2L9.45116 100.147H9.50447L9.55776 100.093M9.0248 99.9858H8.97152H8.9182L8.86492 100.039H8.9182H8.97152M9.55776 100.093H9.61107V100.147M9.55776 100.093L9.61107 100.147M9.61107 100.147L9.71764 100.2L9.66436 100.254H9.61107H9.55776H9.50447L9.45116 100.307L9.50447 100.361V100.522L9.45116 100.576H9.50447V100.683V100.736V100.79V100.844L9.45116 100.897L9.39788 100.844V100.79V100.736L9.34459 100.629L9.29128 100.576L9.34459 100.522L9.29128 100.468H9.238L9.18468 100.415L9.1314 100.361H9.07812L9.0248 100.307H8.97152V100.361H8.9182H8.86492H8.81164H8.75832V100.307H8.70504H8.65173V100.254V100.2H8.70504L8.75832 100.254M9.61107 100.147H9.71764L9.77095 100.2L9.82424 100.254H9.98412M8.97152 100.039H9.0248V100.093H8.97152V100.039ZM8.97152 100.039L8.9182 100.093L8.86492 100.147L8.9182 100.2H8.86492V100.254H8.81164M8.81164 100.254H8.75832M8.81164 100.254L8.75832 100.2V100.254M9.98412 100.254H10.0374M9.98412 100.254L10.0374 100.307H9.93083V100.361V100.415M9.93083 100.415H9.87755M9.93083 100.415L9.98412 100.361L10.0907 100.307L10.144 100.415L10.1973 100.522L10.2506 100.629H10.3039L10.3572 100.736V100.79L10.3039 100.844V100.897H10.3572L10.4105 100.951M10.4105 100.951H10.3572L10.4105 101.004V100.951ZM10.4105 100.951L10.4638 101.004L10.4105 101.058L10.4638 101.112H10.5171L10.5704 101.165H10.5171V101.219L10.5704 101.272L10.6237 101.433L10.677 101.487V101.433V101.38V101.326V101.272V101.219L10.7303 101.165L10.677 101.112V101.058L10.6237 101.004L10.5704 100.951V100.897L10.6237 100.79V100.683H10.5704V100.576H10.5171L10.4638 100.522L10.4105 100.468L10.3572 100.522L10.3039 100.468L10.3572 100.361V100.307V100.254V100.147L10.2506 100.093L10.1973 100.039H10.0907H10.0374V99.9322M10.0374 99.9322V99.8786L9.98412 99.7714L9.93083 99.825L9.98412 99.8786H9.93083L9.87755 99.9322M10.0374 99.9322H9.98412H9.93083H9.87755M9.87755 99.9322L9.82424 99.8786M9.82424 99.8786V99.825M9.82424 99.8786V99.9322M9.82424 99.825L9.77095 99.8786M9.82424 99.825H9.77095V99.8786M9.82424 99.825V99.7714H9.87755L9.93083 99.7178L10.0907 99.6642H10.144V99.6106H10.1973M9.77095 99.8786L9.82424 99.9322M9.77095 99.8786V99.9322H9.82424M10.1973 99.6106V99.557M10.1973 99.6106H10.2506L10.1973 99.557M10.1973 99.557L10.4638 99.3962V99.2889L10.4105 99.2353L10.4638 99.1817H10.5171L10.5704 99.3426H10.6237L10.7303 99.2889V99.3426H10.7836M10.7836 99.3426L10.8369 99.2889M10.7836 99.3426L10.8369 99.5034L10.7836 99.557H10.8369V99.6642L10.8901 99.7178V99.7714V99.825H10.9435V99.7714H10.9967M10.9967 99.7714V99.7178H11.05L10.9967 99.7714ZM10.9967 99.7714V99.825V99.8786L11.05 99.9322H11.1033L11.05 99.8786V99.825V99.7714H11.1033V99.7178V99.6642V99.6106H11.1566V99.6642L11.2099 99.7178L11.2632 99.6642M11.2632 99.6642L11.2099 99.6106L11.2632 99.557L11.3165 99.6106H11.2632V99.6642ZM11.2632 99.6642V99.7178H11.3165H11.3698L11.4231 99.7714H11.4764L11.5297 99.7178L11.583 99.7714L11.6363 99.825L11.6896 99.9322L11.7429 99.9858H11.7962H11.8495M11.8495 99.9858V100.039H11.9028L11.8495 99.9858ZM11.8495 99.9858V99.9322L11.7429 99.8786H11.6896V99.825H11.7429V99.7714V99.7178V99.6642L11.6896 99.557H11.6363L11.583 99.5034V99.557H11.5297L11.4764 99.5034V99.3962L11.5297 99.1817L11.6363 99.0209H11.6896L11.7429 99.0745L11.7962 99.1281L11.8495 99.1817H11.7962L11.7429 99.2353H11.7962H11.8495L11.9028 99.1817L11.8495 99.1281L11.7962 99.0745L11.8495 99.0209H11.9561H12.0094L12.1159 99.0745H12.1693L12.2225 99.1281V99.1817V99.2353M12.2225 99.2353V99.2889M12.2225 99.2353H12.2759V99.1817V99.1281V99.0209H12.2225V98.9673M12.2225 98.9673H12.2759L12.2225 98.9137V98.9673ZM12.2225 98.9673L12.1693 98.9137L12.2225 98.8601H12.2759L12.2225 98.8065H12.2759L12.3291 98.8601V98.7529L12.4357 98.8065H12.489H12.5956V98.8601L12.6489 98.9137L12.7022 98.9673M12.7022 98.9673L12.7555 99.0209V99.0745L12.8088 99.0209V98.9673H12.7022ZM12.7022 98.9673L12.6489 98.8065L12.5956 98.7529H12.5423H12.489H12.4357L12.3824 98.6993L12.2759 98.6457L12.2225 98.6993V98.6457L12.2759 98.5921H12.2225L12.1693 98.6457M12.1693 98.6457V98.5921M12.1693 98.6457H12.0627H12.0094M12.0094 98.6457V98.5921M12.0094 98.6457L11.9561 98.5921L11.9028 98.6457V98.6993H11.7962H11.7429L11.6896 98.6457H11.6363M11.6363 98.6457V98.6993M11.6363 98.6457L11.5297 98.5921L11.4764 98.6457H11.3698L11.3165 98.6993H11.2099H11.1566H11.1033L10.9967 98.7529H10.9435H10.8901V98.8065L10.8369 98.8601L10.8901 98.9137H10.8369L10.7303 98.9673H10.677V98.9137L10.7303 98.8601V98.5921V98.4312L10.7836 98.3776V98.2704L10.8369 98.2168L10.9435 98.1632V98.1096H10.9967L11.1033 98.056L11.1566 98.0024H11.3165L11.4231 97.9488H11.4764L11.5297 97.8952M11.5297 97.8952H11.583M11.5297 97.8952L11.4764 97.8415L11.5297 97.7879L11.583 97.6807L11.6363 97.6271H11.7429H11.7962V97.5735L11.9561 97.5199L12.2759 97.4127L12.3291 97.3591L12.4357 97.3055L12.489 97.2519L12.5423 97.1983L12.489 97.1446H12.5423H12.5956L12.7022 97.091L12.7555 97.0374H12.9154H12.9687H13.0753H13.2352L13.2885 97.091H13.3418V97.1446V97.1983M13.3418 97.1983L13.395 97.3055V97.3591L13.5016 97.4127M13.3418 97.1983L13.395 97.091L13.3418 97.0374V96.9838H13.2885L13.2352 96.9302H13.1819V96.8766M13.5016 97.4127L13.5549 97.4663V97.4127H13.5016ZM13.1819 96.8766H13.2885M13.1819 96.8766V96.823M13.1819 96.823H13.2352M13.1819 96.823V96.7694V96.7158L13.1286 96.7694V96.7158M13.1286 96.7158L13.1819 96.6622M13.1286 96.7158L13.1819 96.6086L13.1286 96.6622L13.0753 96.7158V96.6086H13.022V96.555L13.0753 96.4478L13.1286 96.5014L13.1819 96.4478H13.2352L13.1819 96.3941H13.2352V96.3405L13.1819 96.2869H13.2352V96.2333L13.1819 96.1797H13.1286H13.0753V96.1261H13.1286H13.1819L13.2352 96.0725V96.0189L13.1819 95.9117H13.1286V95.8581H13.0753V95.8045H13.1286L13.0753 95.7509M13.0753 95.7509H13.022H12.9687V95.6972M13.0753 95.7509L12.9687 95.6972M13.0753 95.7509V95.6972L12.9687 95.5364H12.9154V95.4828H12.8621V95.4292L12.8088 95.3756L12.7555 95.322V95.2684H12.7022H12.6489M12.9687 95.6972L12.9154 95.7509M12.6489 95.2684H12.5956M12.6489 95.2684V95.2148L12.7022 95.1612H12.6489H12.5956V95.2148H12.489V95.1612V95.1076L12.5423 95.054L12.5956 94.8931H12.6489H12.7022V94.9467L12.6489 94.8395L12.7022 94.7859H12.7555L12.8621 94.7323L12.9154 94.6787L12.9687 94.5715L13.022 94.5179L13.0753 94.3571L13.1286 94.2498L13.1819 94.089L13.2352 94.0354L13.2885 93.9282L13.4483 93.821L13.5016 93.7674L13.5549 93.6602M13.5549 93.6602L13.6615 93.5529V93.4993M13.5549 93.6602L13.6082 93.4993H13.6615M13.5549 93.6602L13.4483 93.7674L13.395 93.821L13.2885 93.8746L13.1819 94.0354L13.1286 94.1426L13.0753 94.2498L12.9687 94.4643V94.5179L12.9154 94.6251L12.8088 94.6787L12.7022 94.7323L12.6489 94.7859L12.5423 94.8931L12.4357 95.0003L12.3824 95.1612L12.3291 95.1076L12.2759 95.054V95.0003V94.9467V94.8931V94.8395L12.2225 94.8931L12.1693 94.7859V94.7323H12.1159L12.0627 94.6251V94.5179L12.0094 94.4643V94.3571H12.0627L12.1159 94.3035L12.1693 94.2498V94.1962L12.2225 94.089V94.0354L12.1693 93.9818L11.9561 93.821L11.9028 93.7674L11.8495 93.6602L11.9028 93.5529V93.4993V93.3921V93.2313L11.9561 93.1777L12.0094 93.0169V92.856V92.8024V92.6416L11.9561 92.5344L11.9028 92.4272V92.3736V92.2664L11.9561 92.2128L12.0094 92.1055V92.0519L12.1159 91.9447V91.8911L12.2225 91.7303L12.2759 91.6767L12.3824 91.6231L12.489 91.4623L12.2759 91.5159L12.1693 91.5695L12.0627 91.6767L11.9561 91.8375L11.8495 91.9983L11.7429 92.2128L11.6363 92.32V92.4808L11.583 92.588L11.4764 92.7488L11.4231 92.856L11.3698 92.9633V93.1241L11.3165 93.1777L11.3698 93.3921L11.3165 93.4993L11.2632 93.6066L11.2099 93.6602L11.1566 93.7138L11.05 93.821V93.9282L10.9435 94.0354V94.089L10.8901 94.1426H10.8369L10.677 94.2498H10.6237L10.4638 94.3571L10.4105 94.4107L10.3572 94.5179L10.3039 94.5715L10.2506 94.7323L10.1973 94.7859V94.8395V94.9467L10.144 95.054L10.0374 95.1612L9.98412 95.2684L9.93083 95.322V95.4292L9.87755 95.59V95.6972L9.82424 95.8045V96.0189V96.1261V96.1797V96.2333L9.77095 96.2869H9.82424L9.77095 96.3405L9.82424 96.3941L9.77095 96.4478H9.82424V96.6086V96.6622V96.7158H9.77095V96.7694V96.8766V96.9302V96.9838H9.82424V97.091M13.6615 93.4993L13.7148 93.3921V93.3385L13.6615 93.2849V93.1777V93.1241L13.7148 93.0169L13.7681 92.856M13.6615 93.4993V93.3921V93.3385V93.2313L13.6082 93.1241L13.6615 93.0705L13.7148 92.9633L13.7681 92.856M13.7681 92.856L13.8214 92.8024M13.8214 92.8024L13.8747 92.7488L13.928 92.6952L13.9813 92.6416M13.8214 92.8024L13.8747 92.6952L13.928 92.6416H13.9813M13.9813 92.6416H14.0346M9.82424 97.091V97.1446L9.77095 97.1983L9.82424 97.091ZM9.82424 97.091L9.77095 97.1446V97.091L9.71764 97.1983L9.77095 97.2519H9.71764V97.3055M9.71764 97.3055L9.77095 97.3591H9.71764V97.3055ZM9.71764 97.3055V97.4127L9.66436 97.4663V97.5199L9.61107 97.6271M9.61107 97.6271L9.66436 97.5735H9.61107L9.55776 97.6271L9.61107 97.6807V97.6271ZM9.61107 97.6271L9.55776 97.8415L9.50447 97.8952V97.9488L9.39788 98.056L9.34459 98.1096L9.238 98.2168L9.18468 98.324L9.07812 98.4312L9.0248 98.4848H8.97152M8.97152 98.4848H8.9182M8.97152 98.4848L8.86492 98.5384H8.81164H8.70504V98.5921H8.65173H8.59844V98.5384H8.54516L8.43856 98.5921H8.38525L8.33196 98.6457M8.33196 98.6457H8.27868M8.33196 98.6457H8.38525L8.27868 98.6993L8.0122 98.7529L7.95889 98.6993L7.90561 98.7529L7.58581 98.8601H7.53253H7.47925H7.37265M7.37265 98.8601H7.42593M7.37265 98.8601L7.21277 98.9137M7.21277 98.9137V98.8601M7.21277 98.9137H7.15945V98.9673L7.10617 98.9137H7.05286H6.99957M6.99957 98.9137H6.94629L6.83969 98.8601M6.99957 98.9137L6.89298 98.8065L6.83969 98.8601M6.83969 98.8601L6.78638 98.8065L6.67981 98.8601V98.8065L6.6265 98.7529H6.57322H6.41333H6.36002V98.6993H6.25342L6.20014 98.7529L6.14686 98.6993L6.04026 98.7529H5.98694H5.93366H5.88038H5.82706M5.82706 98.7529V98.8065M5.82706 98.7529H5.72047V98.8065H5.66718H5.6139H5.56059V98.8601H5.5073V98.9137L5.45399 98.9673M5.45399 98.9673V98.9137L5.4007 98.9673M5.45399 98.9673H5.4007M5.4007 98.9673L5.34742 99.0209L5.29411 99.0745L5.24082 99.1281H5.18751H5.08094L5.02763 99.1817M5.02763 99.1817V99.1281M5.02763 99.1817V99.2353H4.97435V99.3426H4.92103V99.3962M4.92103 99.3962H4.97435M4.92103 99.3962H4.86775H4.81447V99.4498H4.76115V99.3962H4.70787V99.3426H4.60127L4.49467 99.2353H4.44139L4.33479 99.2889V99.2353L4.28151 99.1817L4.22819 99.1281H4.17491V99.0745L4.1216 99.1281L4.06831 99.0745L4.01503 99.0209H3.96172L3.90843 98.9137L3.80184 98.8601V98.9137L3.74855 98.8601H3.69524L3.64196 98.8065H3.58864L3.53536 98.7529H3.48208L3.42876 98.6993H3.37548V98.6457H3.32216H3.26888H3.2156M3.2156 98.6457V98.6993M3.2156 98.6457H3.16228H3.109L3.05568 98.5921L3.0024 98.6457H2.94912V98.6993H2.8958L2.84252 98.7529H2.78921V98.8065V98.8601H2.84252M2.84252 98.8601V98.9137L2.8958 98.8601M2.84252 98.8601L2.78921 98.9137M2.8958 98.8601L2.78921 98.9673M2.8958 98.8601V98.9137L2.78921 98.9673M2.78921 98.9137L2.84252 98.9673H2.78921M2.78921 98.9137V98.9673M2.78921 98.9137L2.73592 98.9673M2.78921 98.9673H2.73592M2.73592 98.9673H2.68264L2.62933 99.0209L2.57604 98.9673H2.52273L2.46945 98.9137L2.41616 98.8601H2.36285H2.30956H2.25625H2.20297H2.14968H2.09637H2.04309H1.98977H1.93649L1.88321 98.8065H1.82989L1.72329 98.7529H1.67001V98.6993H1.61673V98.6457H1.56341H1.51013L1.45682 98.5921M1.45682 98.5921H1.51013M1.45682 98.5921L1.40353 98.5384L1.35025 98.4848V98.4312V98.3776V98.324H1.40353V98.2704H1.45682V98.2168L1.51013 98.1096V98.056L1.56341 98.0024V97.9488V97.8952L1.61673 97.7879V97.7343L1.67001 97.6807H1.61673V97.6271V97.5735V97.5199V97.4663L1.67001 97.4127L1.61673 97.3591H1.67001L1.61673 97.3055V97.2519H1.56341V97.1983H1.51013V97.1446H1.45682L1.40353 97.091V97.0374H1.35025H1.29693V96.9838H1.24365V96.9302V96.8766H1.19034V96.823H1.13705V96.7694H1.19034L1.13705 96.6622H1.19034V96.6086H1.13705H1.08377V96.555H1.03046V96.5014V96.4478H1.08377V96.3941L1.13705 96.3405V96.2869L1.19034 96.2333V96.1797V96.1261H1.24365V96.0725L1.29693 96.0189H1.24365L1.29693 95.9653V95.9117H1.35025V95.8581L1.40353 95.8045V95.7509V95.6972H1.45682L1.51013 95.59L1.56341 95.4828L1.61673 95.3756V95.322V95.2684H1.67001V95.2148V95.1612L1.72329 95.1076V95.054L1.77661 94.9467V94.8931H1.82989V94.8395L1.88321 94.7859V94.7323L1.93649 94.6787L1.98977 94.6251V94.5715V94.5179L2.04309 94.4107L2.09637 94.3571V94.3035L2.14968 94.1962V94.1426H2.09637V94.089H2.14968V94.0354V93.9818H2.20297V93.9282L2.25625 93.8746V93.821V93.7674L2.30956 93.6602V93.5529H2.36285L2.30956 93.4457H2.36285V93.3921V93.3385L2.41616 93.2313M2.41616 93.2313V93.2849H2.46945V93.2313H2.41616ZM2.41616 93.2313V93.1777H2.46945V93.1241V93.0705V93.0169L2.52273 92.9097V92.856V92.8024H2.57604V92.7488L2.62933 92.6416L2.68264 92.588V92.5344V92.4808L2.73592 92.3736V92.32L2.78921 92.2664H2.73592V92.1592L2.78921 92.1055V92.0519H2.84252V91.9447V91.8911V91.8375V91.7839V91.6767V91.6231V91.5695V91.5159H2.78921H2.73592L2.78921 91.4623V91.4086H2.73592M2.73592 91.4086H2.68264M2.73592 91.4086V91.355V91.3014V91.2478V91.1942V91.087V91.0334V90.9798V90.9262V90.8726H2.78921V90.819V90.7654L2.73592 90.7117H2.68264V90.6581V90.6045L2.62933 90.5509L2.68264 90.4437L2.62933 90.3901H2.57604L2.62933 90.3365V90.2829V90.2293V90.1757V90.1221H2.68264H2.73592V90.0685V90.0149M2.73592 90.0149H2.68264M2.73592 90.0149L2.68264 89.9612V89.9076H2.62933L2.68264 89.854V89.8004V89.7468V89.6932H2.73592V89.6396V89.586L2.78921 89.5324V89.4788V89.4252V89.3716V89.318L2.84252 89.2643V89.2107V89.1571V89.1035V89.0499L2.78921 88.9963L2.84252 88.9427V88.8891V88.8355V88.7819V88.7283V88.6211L2.78921 88.5138L2.73592 88.4602V88.4066V88.353V88.2994H2.78921V88.1386L2.84252 88.0314H2.8958V87.9778V87.9242L3.0024 87.8169V87.7633L3.05568 87.7097L3.109 87.6561V87.6025L3.16228 87.5489L3.2156 87.4417L3.26888 87.3881L3.32216 87.2809V87.1737V87.12V87.0664L3.37548 86.9592L3.42876 86.9056V86.852H3.48208V86.7984V86.7448V86.6912H3.53536V86.6376L3.58864 86.5304H3.64196V86.4768H3.69524V86.4231L3.74855 86.3159V86.2623H3.80184V86.2087V86.1551L3.85512 86.1015L3.90843 85.9943V85.9407L3.96172 85.8335V85.7799L4.01503 85.7263L4.06831 85.619L4.1216 85.5654L4.06831 85.5118L4.1216 85.4582V85.4046H4.06831V85.351H4.1216L4.17491 85.2974V85.1902L4.28151 84.9757V84.9221V84.8685L4.33479 84.7613V84.7077V84.6005V84.5469V84.4933H4.38807V84.4397V84.3861L4.44139 84.3325V84.2788V84.2252V84.1716L4.49467 84.0644H4.44139V84.0108H4.49467V83.9572L4.44139 83.9036L4.49467 83.85L4.44139 83.7964V83.7428H4.38807L4.44139 83.6356L4.49467 83.4211H4.44139L4.49467 83.2067H4.54799V83.0995V82.9923V82.8851V82.7778V82.7242V82.6706V82.617V82.5098L4.49467 82.4562H4.44139H4.38807V82.4026L4.44139 82.349V82.2954V82.2418V82.1882V82.1345H4.38807H4.33479V82.0809H4.28151L4.33479 82.0273V81.9201V81.8129V81.7593H4.28151V81.7057L4.22819 81.6521V81.5985H4.17491V81.5449H4.1216L4.06831 81.4913V81.4377H4.01503V81.384H4.06831V81.2768V81.116L4.01503 81.0088V80.9552L3.90843 80.7408L3.85512 80.6871M3.85512 80.6871H3.74855M3.85512 80.6871V80.6335L3.90843 80.5799H3.96172L3.85512 80.5263L3.80184 80.6335L3.74855 80.5799L3.80184 80.5263H3.69524V80.5799H3.64196L3.69524 80.6871V80.7408L3.64196 80.6335H3.58864H3.53536V80.5799L3.48208 80.6335V80.5799L3.42876 80.6335H3.37548L3.32216 80.5799H3.26888V80.5263H3.2156H3.16228L3.109 80.4727H3.0024V80.4191L3.109 80.2583V80.2047H3.16228V80.1511H3.2156H3.26888H3.32216H3.37548L3.42876 80.0975H3.48208L3.53536 80.1511L3.64196 80.2047L3.69524 80.1511V80.0975V80.0439M3.69524 80.0439H3.64196V79.9902H3.69524V80.0439ZM3.69524 80.0439H3.74855V80.0975L3.80184 80.1511L3.74855 80.2047V80.2583L3.80184 80.3119L3.90843 80.3655L4.01503 80.4191H4.06831H4.1216L4.17491 80.3655H4.28151V80.3119L4.38807 80.2583H4.44139V80.2047L4.49467 80.1511V80.0975V80.0439M4.49467 80.0439H4.44139V79.9902V79.9366M4.49467 80.0439V79.9902V79.9366H4.44139M4.49467 80.0439H4.54799H4.65455H4.70787L4.81447 79.9902H4.86775L4.97435 79.9366M4.44139 79.9366V79.883M4.97435 79.9366V79.883M4.97435 79.9366L5.02763 79.883L5.13423 79.8294H5.18751L5.24082 79.7222L5.29411 79.6686H5.34742L5.6139 79.5078L5.72047 79.4006L5.77378 79.347L5.98694 79.1861V79.1325L6.14686 79.0253L6.25342 78.9717L6.30674 78.8645L6.41333 78.8109L6.5199 78.7037L6.57322 78.6501V78.5965L6.67981 78.5428L6.7331 78.4892L6.78638 78.382L6.83969 78.3284L6.94629 78.2212V78.1676V78.114L7.05286 78.0604V78.0068L7.10617 77.9532V77.8996L7.15945 77.8459V77.7923H7.21277V77.7387H7.26605V77.6851V77.6315L7.31933 77.5779V77.5243L7.37265 77.4707V77.4171V77.3635V77.3099V77.2563H7.42593H7.53253L7.58581 77.2027V77.149L7.69241 77.0418L7.74573 76.9882V76.9346H7.79901L7.85229 76.881V76.8274V76.7738L7.90561 76.7202L7.95889 76.6666L8.0122 76.613H8.06549V76.5594V76.5058L8.11877 76.4521L8.17208 76.3985H8.27868H8.33196V76.3449L8.38525 76.2913H8.49184V76.2377H8.54516H8.59844V76.2913L8.65173 76.2377M8.65173 76.2377L8.59844 76.3449V76.3985L8.65173 76.4521H8.70504H8.75832L8.81164 76.3449H8.86492V76.2377V76.1841L8.81164 76.1305L8.70504 76.2377H8.65173ZM8.65173 76.2377L8.70504 76.1841V76.1305V76.0769V76.0233H8.65173V75.9697V75.9161H8.70504V75.9697L8.75832 75.9161H8.81164L8.9182 75.8089L9.0248 75.7016V75.648V75.5944V75.5408L9.07812 75.4872L9.1314 75.4336V75.38H9.18468L9.29128 75.2728L9.34459 75.2192L9.71764 74.5759L9.82424 74.5223L9.87755 74.4151L9.93083 74.3078V74.2542L10.0907 74.0934M10.0907 74.0934V74.0398V73.9862V74.0934ZM10.0907 74.0934H10.144V74.2006H10.1973V74.147V74.0934L10.144 74.0398V73.9862V73.9326V73.8254V73.7182L10.0907 73.6109H9.93083V73.5037V73.4501V73.3429V73.1821V73.1285L9.98412 73.0213L10.0374 72.8604L10.0907 72.6996V72.646L10.144 72.5924V72.4852L10.2506 72.2172V72.1635L10.3039 72.0563L10.3572 71.9491V71.8955L10.4105 71.7883V71.6275L10.4638 71.5739V71.4666V71.413V71.3594L10.5704 71.1986V71.0914L10.6237 70.9842V70.9306L10.677 70.7697L10.6237 70.7161L10.677 70.6625V70.5553V70.5017L10.6237 70.4481V70.3945L10.677 70.2873L10.7836 70.0192L10.8369 69.9656L10.8901 69.8048L10.9435 69.6976V69.644V69.5904L10.9967 69.4832L11.05 69.376V69.2687L11.1033 69.1079L11.1566 68.9471V68.8935L11.2099 68.7863L11.2632 68.7327V68.6791L11.3165 68.6254V68.5182L11.4231 68.3038V68.2502L11.4764 68.1966L11.5297 68.0894L11.583 67.9286L11.6896 67.7141V67.6069L11.7962 67.4461V67.3925L11.8495 67.2853L11.9028 67.178V67.0708L11.9561 67.0172V66.9636L12.0094 66.8564V66.8028L12.0627 66.7492L12.1159 66.5884V66.5348L12.1693 66.4811V66.4275V66.3739V66.3203L12.2225 66.2667V66.2131L12.2759 66.1059L12.3291 66.0523L12.3824 65.8915L12.4357 65.7843V65.7306V65.677L12.489 65.6234L12.5423 65.4626V65.409L12.5956 65.3018V65.2482V65.1946L12.6489 65.141V65.0874L12.7022 65.0337V64.9801V64.9265V64.8729V64.8193L12.7555 64.7657V64.6585L12.8088 64.6049V64.5513V64.4977L12.8621 64.3905L12.9154 64.3368L12.9687 64.176L13.022 64.1224V64.0152V63.9616L13.0753 63.908V63.8008H13.1286V63.7472V63.6936L13.1819 63.5863L13.2352 63.4255V63.3719L13.2885 63.3183V63.2647V63.2111L13.3418 63.1575V63.1039L13.395 63.0503V62.9967V62.9431L13.4483 62.8358L13.5016 62.7286V62.675L13.5549 62.5142V62.4606L13.6082 62.407V62.2998L13.6615 62.2462V62.1925V62.1389L13.7148 62.0853V62.0317L13.7681 61.9245L13.8214 61.7637V61.7101L13.8747 61.6029L13.928 61.4957V61.3348L13.9813 61.2276L14.0346 61.0668L14.0879 60.9596L14.0346 60.906L14.0879 60.8524L14.1412 60.7451L14.1945 60.5843V60.5307L14.2478 60.4235L14.3011 60.3163V60.2091L14.3544 60.1019L14.4077 60.0482V59.9946H14.3544L14.4077 59.941V59.8338L14.461 59.7802V59.673L14.5142 59.6194V59.5658L14.5676 59.5122V59.4586V59.3514L14.6208 59.1905V59.0833V59.0297L14.6742 58.9761M14.6742 58.9761H14.6208M14.6742 58.9761V58.8689V58.8153V58.7617V58.7081V58.6008V58.5472H14.6208L14.5142 58.4936H14.461H14.3544L14.4077 58.44V58.3864H14.461V58.3328V58.2256V58.172V58.1184L14.4077 58.0112L14.3544 57.9576L14.3011 57.9039L14.2478 57.8503L14.1412 57.7967V57.7431H14.0879L14.0346 57.6895L13.9813 57.6359V57.5823H13.928L13.8214 57.5287H13.7681V57.4751L13.7148 57.4215V57.3679V57.3143V57.2607V57.1534V57.0998H13.7681V57.0462L13.8214 56.9926V56.939V56.8854L13.8747 56.7782L13.928 56.6174L13.9813 56.4565L14.0346 56.4029V56.3493L14.0879 56.2421L14.1412 56.0813L14.2478 55.8133L14.3011 55.706V55.5988L14.3544 55.438L14.4077 55.3844V55.3308L14.461 55.2236L14.5142 55.1164V55.0627V54.9555L14.5676 54.8483L14.6208 54.7947V54.6875L14.6742 54.6339L14.7274 54.2586H14.7807V54.1514L14.834 54.0978V53.9906V53.937L14.8873 53.8298V53.7762L14.9406 53.669L14.9939 53.5617V53.5081V53.4545L15.0472 53.3473V53.2937V53.2401V53.1865L15.1005 53.0793L15.1538 52.9721V52.9184V52.8648L15.2071 52.8112V52.6504L15.2604 52.5968V52.5432V52.436L15.3137 52.3824V52.2215L15.367 52.1143V52.0607L15.4203 51.8999V51.7927L15.4736 51.6855L15.5269 51.5783V51.5247V51.4174L15.5802 51.3102L15.6335 51.1494V51.0958V50.935L15.6868 50.8278L15.8466 50.2381V50.1845V50.0772L15.9 49.9164V49.8628H15.8466L15.9 49.8092V49.7556L15.9532 49.6484L16.0065 49.4876V49.434V49.3804V49.3267V49.2731L16.1131 49.0587V48.9515L16.1664 48.8979L16.2197 48.7907V48.7371L16.1664 48.6835V48.6298L16.2197 48.5762L16.273 48.469V48.4154V48.3618L16.3263 48.2546V48.1474L16.3796 48.0938V47.9329V47.8793V47.8257H16.4329L16.4862 47.6649V47.6113V47.5041L16.5395 47.3969L16.5928 47.2361V47.1824V47.0752V47.0216V46.9144L16.6461 46.8608V46.7536L16.6994 46.5928V46.5392L16.7527 46.3783V46.3247L16.806 46.2175V46.1103L16.8593 46.0567V46.0031V45.8959L16.9125 45.8423V45.7886V45.6814V45.5742L16.9659 45.4134V45.3598V45.3062V45.2526L17.0191 45.1454V45.0381L17.0725 44.8773V44.8237V44.7701V44.7165L17.1257 44.6629V44.6093V44.4485L16.9125 44.3949H16.7527L16.8593 44.3412L16.9125 44.2876L17.0191 43.966L17.0725 43.8588V43.7516L17.1257 43.6443L17.179 43.5371V43.4299L17.2323 43.3763V43.2155L17.2856 43.1083V43.0547L17.3389 42.9475V42.8402L17.3922 42.733V42.6794L17.4455 42.465L17.4988 42.3042L17.6054 41.9825L17.6587 41.8217V41.6609L17.712 41.6073V41.5537L17.7653 41.3928L17.8186 41.232V41.1248V41.0712L17.8719 40.9104L17.9252 40.8568V40.7495L17.9785 40.6423V40.4815L18.0318 40.4279V40.3207L18.0851 40.2135V40.0526L18.1384 39.9454V39.8918L18.1917 39.8382V39.731V39.6774L18.2449 39.6238V39.5702L18.2983 39.463V39.4094V39.3557L18.3515 39.1949L18.4049 39.0341V38.9805L18.4581 38.7661V38.7125V38.6588L18.5114 38.5516L18.5647 38.3372L18.618 38.1764V38.0156V37.962V37.9083L18.6713 37.8547V37.8011M18.6713 37.8011H18.618M18.6713 37.8011V37.6939H18.7246L18.7779 37.4795V37.4259V37.3723L18.8312 37.3187V37.2651V37.1042L18.8845 36.997V36.9434L18.9378 36.7826V36.729V36.6218L18.9911 36.5682V36.5145L19.0444 36.3001V36.1929L18.9911 36.1393L19.0444 36.0321V35.9249V35.8713V35.8176L19.0977 35.764V35.7104V35.6568L19.0444 35.6032L19.0977 35.5496V35.496L19.151 35.4424L19.0977 35.3888L19.151 35.2816V35.228V35.1744L19.2043 35.1208L19.2576 35.0135V34.9599H19.2043L19.2576 34.9063V34.8527V34.7455V34.6919L19.3109 34.6383V34.5311M19.3109 34.5311H19.2576V34.4775L19.3109 34.5311ZM19.3109 34.5311V34.4775V34.4239V34.3702V34.3166V34.263L19.2576 34.2094H19.3109V34.1022V34.0486V33.9414V33.8342V33.727M19.3109 33.727H19.3642M19.3109 33.727L19.3642 33.5661V33.5125V33.4589H19.3109V33.2981V33.1909L19.2576 33.1373L19.2043 33.0301V32.9765V32.9228V32.8692L19.151 32.8156H19.0977V32.762V32.7084V32.6012V32.5476V32.4404V32.3332V32.2796L19.0444 32.2259L19.0977 32.1723L19.0444 32.1187L19.0977 32.0115V31.9579V31.7971V31.7435V31.6363L19.0444 31.529V31.4754V31.3682L18.9911 31.3146V31.2074H18.9378V31.1538V31.1002V30.993V30.9394V30.8858V30.8322L18.8845 30.7249V30.6177L18.8312 30.4569L18.7779 30.3497H18.8312V30.2961L18.8845 30.2425V30.1889L18.8312 30.1353H18.7779H18.7246L18.6713 30.0816H18.7246L18.6713 30.028M18.6713 30.028H18.618M18.6713 30.028L18.7246 29.9744H18.6713V29.9208L18.618 29.8136H18.5647V29.76L18.5114 29.7064M18.5114 29.7064V29.6528H18.4581V29.5992V29.5456V29.492H18.4049V29.4384L18.3515 29.3847H18.4049V29.3311V29.2775L18.2983 29.1703L18.2449 29.0631L18.1917 29.1167L18.1384 29.1703L18.0851 29.1167H18.0318H17.9785V29.2239V29.2775M18.5114 29.7064H18.4581M17.9785 29.2775H18.0318M17.9785 29.2775L17.9252 29.1167V29.0095V28.9559V28.9023H18.0318V28.7951V28.7415V28.6879H17.9785V28.6342L17.9252 28.5806V28.527L17.8719 28.4734V28.4198L17.8186 28.3662H17.8719L17.8186 28.3126V28.259V28.2054L17.8719 28.1518L17.8186 27.9373V27.8837V27.7229H17.7653L17.712 27.6693V27.5621H17.6587V27.5085V27.4549V27.4013L17.6054 27.3477V27.2941L17.5521 27.2404H17.6054V27.1868V27.0796L17.6587 26.9724V26.8652V26.8116V26.758L17.6054 26.7044L17.5521 26.6508L17.6054 26.5435L17.5521 26.3827V26.2755V26.2219L17.4988 26.1147V26.0611V26.0075L17.4455 25.9003V25.8467L17.3922 25.6858V25.5786H17.3389V25.525L17.2856 25.3642V25.3106L17.3389 25.1498V25.0961V25.0425V24.8817V24.8281V24.6673L17.2856 24.6137V24.5601L17.179 24.5065H17.1257M17.1257 24.5065V24.5601M17.1257 24.5065L17.0725 24.4529H17.0191V24.3992V24.292V24.1848V24.1312M17.0191 24.1312H16.9659M17.0191 24.1312V24.0776L16.9659 23.9704L16.9125 23.8632H16.8593V23.8096V23.756H16.806V23.7024H16.8593V23.6487H16.7527L16.6994 23.5415M16.6994 23.5415L16.7527 23.5951L16.806 23.6487V23.5951V23.5415H16.8593L16.806 23.4879V23.4343L16.7527 23.3807V23.4343L16.6994 23.4879M16.6994 23.5415V23.4879M16.6994 23.5415L16.6461 23.5951L16.6994 23.4879M16.6994 23.4879H16.7527M16.6994 23.4879V23.4343V23.3807L16.6461 23.2735V23.2199V23.1663H16.5928L16.5395 23.1127L16.5928 23.0055L16.4862 22.8982H16.4329L16.4862 22.8446V22.6838L16.4329 22.5766L16.3796 22.523V22.4694L16.3263 22.4158H16.273V22.3622M16.273 22.3622H16.3263M16.273 22.3622V22.3086V22.2549H16.3263V22.1477L16.3796 21.9869V21.8797V21.7725L16.4329 21.6117L16.4862 21.5044V21.4508V21.3972V21.3436V21.29V21.1828V21.0756L16.5395 20.8612V20.7539V20.7003V20.4859V20.4323H16.4862V20.3251L16.4329 20.2715L16.3796 20.2179V20.1643L16.3263 20.057V20.0034L16.273 19.8962V19.8426H16.2197L16.273 19.6818L16.3263 19.4674L16.273 19.4137V19.3065L16.2197 19.1993V19.1457L16.1664 19.0921L16.2197 18.9849V18.8777V18.8241L16.1664 18.7169M16.1664 18.7169H16.2197M16.1664 18.7169V18.6632V18.6096V18.5024V18.3416L16.1131 18.288V18.2344V18.1808L16.0598 18.1272V17.9663V17.9127V17.8055V17.7519H16.0065V17.6983V17.5911L15.9532 17.5375L15.9 17.4839V17.3767L15.9532 17.2694L15.9 17.2158L15.8466 17.055V16.9478V16.8942V16.8406V16.7334L15.7934 16.6798V16.5726L15.7401 16.5189V16.4653L15.6868 16.3045L15.6335 16.2509L15.5802 16.1973V16.0901V15.9829V15.8757L15.5269 15.7684V15.7148L15.4736 15.554V15.5004V15.3396V15.2324V15.1251V14.9643L15.4203 14.8571V14.8035L15.367 14.7499L15.2604 14.6963L15.2071 14.5891H15.1538H15.1005L15.0472 14.6427M15.0472 14.6427V14.6963L15.1005 14.8571" stroke="white" stroke-width="0.983607" stroke-linejoin="round"/>
</g>
<defs>
<clipPath id="clip0_24_559">
<rect width="73" height="146" fill="white"/>
</clipPath>
</defs>
</svg>
