<svg width="108" height="108" viewBox="0 0 108 108" fill="none" xmlns="http://www.w3.org/2000/svg">
<path d="M30.9515 18.874C29.6284 15.5661 28.9668 13.9122 29.2427 12.5845C29.484 11.4234 30.1738 10.4045 31.1622 9.74927C32.2925 9 34.0739 9 37.6366 9H70.3673C73.93 9 75.7114 9 76.8416 9.74927C77.8301 10.4045 78.5199 11.4234 78.7612 12.5845C79.0371 13.9122 78.3755 15.5661 77.0523 18.874L72.5169 30.2126C72.3245 30.6936 72.2283 30.9341 72.1606 31.1821C72.1005 31.4025 72.0572 31.6271 72.0312 31.8541C72.0019 32.1095 72.0019 32.3685 72.0019 32.8866V42.4744C72.0019 43.4105 72.0019 43.8785 72.0938 44.3262C72.1753 44.7234 72.3101 45.1077 72.4946 45.4688C72.7025 45.8757 72.9949 46.2412 73.5797 46.9722L80.6437 55.8022C83.6395 59.547 85.1374 61.4194 85.1391 62.9951C85.1406 64.3656 84.5175 65.662 83.4465 66.5169C82.2149 67.5 79.8171 67.5 75.0214 67.5H32.9824C28.1868 67.5 25.789 67.5 24.5574 66.5169C23.4864 65.662 22.8633 64.3656 22.8647 62.9951C22.8665 61.4194 24.3644 59.547 27.3602 55.8022L34.4242 46.9722C35.009 46.2412 35.3013 45.8757 35.5093 45.4688C35.6937 45.1077 35.8285 44.7234 35.9101 44.3262C36.0019 43.8785 36.0019 43.4105 36.0019 42.4744V32.8866C36.0019 32.3685 36.0019 32.1095 35.9726 31.8541C35.9466 31.6271 35.9034 31.4025 35.8433 31.1821C35.7756 30.9341 35.6794 30.6936 35.487 30.2126L30.9515 18.874Z" fill="white"/>
<path d="M54.0019 67.5L54.0019 99M36.0019 32.8866V42.4744C36.0019 43.4105 36.0019 43.8785 35.9101 44.3262C35.8285 44.7234 35.6937 45.1077 35.5093 45.4688C35.3013 45.8757 35.009 46.2412 34.4242 46.9722L27.3602 55.8022C24.3644 59.547 22.8665 61.4194 22.8647 62.9951C22.8633 64.3656 23.4864 65.662 24.5574 66.5169C25.789 67.5 28.1868 67.5 32.9824 67.5H75.0214C79.8171 67.5 82.2149 67.5 83.4465 66.5169C84.5175 65.662 85.1406 64.3656 85.1391 62.9951C85.1374 61.4194 83.6395 59.547 80.6437 55.8022L73.5797 46.9722C72.9949 46.2412 72.7025 45.8757 72.4946 45.4688C72.3101 45.1077 72.1753 44.7234 72.0938 44.3262C72.0019 43.8785 72.0019 43.4105 72.0019 42.4744V32.8866C72.0019 32.3685 72.0019 32.1095 72.0312 31.8541C72.0572 31.6271 72.1005 31.4025 72.1606 31.1821C72.2283 30.9341 72.3245 30.6936 72.5169 30.2126L77.0523 18.874C78.3755 15.5661 79.0371 13.9122 78.7612 12.5845C78.5199 11.4234 77.8301 10.4045 76.8416 9.74927C75.7114 9 73.93 9 70.3673 9H37.6366C34.0739 9 32.2925 9 31.1622 9.74927C30.1738 10.4045 29.484 11.4234 29.2427 12.5845C28.9668 13.9122 29.6284 15.5661 30.9515 18.874L35.487 30.2126C35.6794 30.6936 35.7756 30.9341 35.8433 31.1821C35.9034 31.4025 35.9466 31.6271 35.9726 31.8541C36.0019 32.1095 36.0019 32.3685 36.0019 32.8866Z" stroke="white" stroke-width="6" stroke-linecap="round" stroke-linejoin="round"/>
</svg>
