<svg width="109" height="109" viewBox="0 0 109 109" fill="none" xmlns="http://www.w3.org/2000/svg">
<path d="M54.5019 68.125L54.5019 99.9167M36.3352 33.1911V42.8677C36.3352 43.8124 36.3352 44.2848 36.2425 44.7366C36.1602 45.1375 36.0242 45.5254 35.838 45.8898C35.6282 46.3005 35.3331 46.6694 34.7429 47.4071L27.6135 56.3189C24.5899 60.0983 23.0781 61.9881 23.0764 63.5784C23.0749 64.9615 23.7038 66.27 24.7848 67.1328C26.0277 68.125 28.4477 68.125 33.2878 68.125H75.716C80.5561 68.125 82.9761 68.125 84.2191 67.1328C85.3 66.27 85.9289 64.9615 85.9274 63.5784C85.9257 61.9881 84.4139 60.0983 81.3904 56.3189L74.2609 47.4071C73.6708 46.6694 73.3757 46.3005 73.1658 45.8898C72.9796 45.5254 72.8436 45.1375 72.7613 44.7366C72.6686 44.2848 72.6686 43.8124 72.6686 42.8677V33.1911C72.6686 32.6682 72.6686 32.4068 72.6981 32.149C72.7244 31.92 72.7681 31.6933 72.8287 31.4709C72.897 31.2205 72.9941 30.9778 73.1883 30.4923L77.7657 19.0488C79.1011 15.7102 79.7689 14.041 79.4904 12.701C79.2469 11.5292 78.5507 10.5008 77.5531 9.83954C76.4124 9.08333 74.6145 9.08333 71.0188 9.08333H37.985C34.3893 9.08333 32.5915 9.08333 31.4507 9.83954C30.4531 10.5008 29.7569 11.5292 29.5134 12.701C29.235 14.041 29.9027 15.7102 31.2381 19.0488L35.8155 30.4923C36.0097 30.9778 36.1068 31.2205 36.1751 31.4709C36.2358 31.6933 36.2794 31.92 36.3057 32.149C36.3352 32.4068 36.3352 32.6682 36.3352 33.1911Z" stroke="white" stroke-width="6" stroke-linecap="round" stroke-linejoin="round"/>
</svg>
